G04 #@! TF.GenerationSoftware,KiCad,Pcbnew,(5.1.0)-1*
G04 #@! TF.CreationDate,2019-06-07T11:38:14-04:00*
G04 #@! TF.ProjectId,PiHat_AX5043_JZK,50694861-745f-4415-9835-3034335f4a5a,rev?*
G04 #@! TF.SameCoordinates,Original*
G04 #@! TF.FileFunction,Soldermask,Bot*
G04 #@! TF.FilePolarity,Negative*
%FSLAX46Y46*%
G04 Gerber Fmt 4.6, Leading zero omitted, Abs format (unit mm)*
G04 Created by KiCad (PCBNEW (5.1.0)-1) date 2019-06-07 11:38:14*
%MOMM*%
%LPD*%
G04 APERTURE LIST*
%ADD10C,2.700000*%
%ADD11O,3.000000X1.700000*%
%ADD12R,3.000000X1.700000*%
%ADD13C,2.250000*%
%ADD14C,2.050000*%
%ADD15O,1.700000X1.700000*%
%ADD16R,1.700000X1.700000*%
G04 APERTURE END LIST*
D10*
X261500000Y-146500000D03*
X203500000Y-146500000D03*
X261500000Y-97500000D03*
X203500000Y-97500000D03*
D11*
X212800000Y-117480000D03*
X213054000Y-109860000D03*
X213054000Y-114940000D03*
X212800000Y-112400000D03*
D12*
X212800000Y-122560000D03*
D11*
X213054000Y-120020000D03*
D13*
X229000000Y-145980000D03*
X229000000Y-140900000D03*
X234080000Y-140900000D03*
X234080000Y-145980000D03*
D14*
X231540000Y-143440000D03*
D15*
X256630000Y-101183000D03*
X256630000Y-98643000D03*
X210910000Y-98643000D03*
X246470000Y-98643000D03*
X221070000Y-98643000D03*
X226150000Y-101183000D03*
X231230000Y-101183000D03*
X218530000Y-98897000D03*
X251550000Y-101183000D03*
X246470000Y-101183000D03*
X231230000Y-98643000D03*
X236310000Y-98643000D03*
X238850000Y-101437000D03*
X208370000Y-101437000D03*
X241390000Y-98643000D03*
X243930000Y-98897000D03*
X254090000Y-101437000D03*
X254090000Y-98897000D03*
X233770000Y-101437000D03*
X251550000Y-98643000D03*
D16*
X208370000Y-98897000D03*
D15*
X223610000Y-101437000D03*
X249010000Y-98897000D03*
X213450000Y-98897000D03*
X218530000Y-101437000D03*
X210910000Y-101183000D03*
X223610000Y-98897000D03*
X236310000Y-101183000D03*
X226150000Y-98643000D03*
X249010000Y-101437000D03*
X238850000Y-98897000D03*
X243930000Y-101437000D03*
X228690000Y-98897000D03*
X233770000Y-98897000D03*
X215990000Y-98643000D03*
X228690000Y-101437000D03*
X241390000Y-101183000D03*
X213450000Y-101437000D03*
X221070000Y-101183000D03*
X215990000Y-101183000D03*
M02*
