M48
; DRILL file {KiCad (5.1.0)-1} date 6/7/2019 11:38:26 AM
; FORMAT={2:4/ absolute / inch / suppress leading zeros}
; #@! TF.CreationDate,2019-06-07T11:38:26-04:00
; #@! TF.GenerationSoftware,Kicad,Pcbnew,(5.1.0)-1
; #@! TF.FileFunction,Plated,1,4,PTH
FMAT,2
INCH,TZ
T1C0.0079
T2C0.0236
T3C0.0394
T4C0.0591
T5C0.0669
%
G90
G05
T1
X90906Y-43622
X90906Y-44016
X90906Y-44409
X91299Y-43622
X91299Y-44016
X91299Y-44409
X91693Y-43622
X91693Y-44016
X91693Y-44409
T2
X86448Y-42274
X86654Y-40512
X86780Y-42607
X88140Y-41309
X88434Y-40990
X88858Y-40906
X89288Y-44260
X89449Y-43858
X89729Y-43382
X90551Y-40472
X91063Y-42205
X91505Y-41977
X91575Y-40472
X91811Y-42283
X92520Y-40512
X92520Y-42323
X92835Y-43346
X93031Y-40551
X93031Y-42835
X93307Y-43474
X93307Y-43907
T3
X83780Y-44252
X83780Y-46252
X83780Y-48252
X83880Y-43252
X83880Y-45252
X83880Y-47252
X82035Y-38936
X82035Y-39936
X83035Y-38836
X83035Y-39836
X84035Y-38936
X84035Y-39936
X85035Y-38836
X85035Y-39836
X86035Y-38936
X86035Y-39936
X87035Y-38836
X87035Y-39836
X88035Y-38936
X88035Y-39936
X89035Y-38836
X89035Y-39836
X90035Y-38936
X90035Y-39936
X91035Y-38836
X91035Y-39836
X92035Y-38936
X92035Y-39936
X93035Y-38836
X93035Y-39836
X94035Y-38936
X94035Y-39936
X95035Y-38836
X95035Y-39836
X96035Y-38936
X96035Y-39936
X97035Y-38836
X97035Y-39836
X98035Y-38936
X98035Y-39936
X99035Y-38836
X99035Y-39836
X100035Y-38936
X100035Y-39936
X101035Y-38836
X101035Y-39836
T4
X91157Y-56472
T5
X90157Y-55472
X90157Y-57472
X92157Y-55472
X92157Y-57472
T0
M30
