G04 #@! TF.GenerationSoftware,KiCad,Pcbnew,(5.1.0)-1*
G04 #@! TF.CreationDate,2019-06-07T11:38:14-04:00*
G04 #@! TF.ProjectId,PiHat_AX5043_JZK,50694861-745f-4415-9835-3034335f4a5a,rev?*
G04 #@! TF.SameCoordinates,Original*
G04 #@! TF.FileFunction,Legend,Top*
G04 #@! TF.FilePolarity,Positive*
%FSLAX46Y46*%
G04 Gerber Fmt 4.6, Leading zero omitted, Abs format (unit mm)*
G04 Created by KiCad (PCBNEW (5.1.0)-1) date 2019-06-07 11:38:14*
%MOMM*%
%LPD*%
G04 APERTURE LIST*
%ADD10C,0.150000*%
%ADD11C,0.010000*%
%ADD12C,0.050000*%
%ADD13C,0.120000*%
G04 APERTURE END LIST*
D10*
X218628571Y-117452380D02*
X218057142Y-117452380D01*
X218342857Y-117452380D02*
X218342857Y-116452380D01*
X218247619Y-116595238D01*
X218152380Y-116690476D01*
X218057142Y-116738095D01*
X219485714Y-116452380D02*
X219295238Y-116452380D01*
X219200000Y-116500000D01*
X219152380Y-116547619D01*
X219057142Y-116690476D01*
X219009523Y-116880952D01*
X219009523Y-117261904D01*
X219057142Y-117357142D01*
X219104761Y-117404761D01*
X219200000Y-117452380D01*
X219390476Y-117452380D01*
X219485714Y-117404761D01*
X219533333Y-117357142D01*
X219580952Y-117261904D01*
X219580952Y-117023809D01*
X219533333Y-116928571D01*
X219485714Y-116880952D01*
X219390476Y-116833333D01*
X219200000Y-116833333D01*
X219104761Y-116880952D01*
X219057142Y-116928571D01*
X219009523Y-117023809D01*
X220771428Y-117452380D02*
X220771428Y-116452380D01*
X221104761Y-117166666D01*
X221438095Y-116452380D01*
X221438095Y-117452380D01*
X221914285Y-117452380D02*
X221914285Y-116452380D01*
X221914285Y-116928571D02*
X222485714Y-116928571D01*
X222485714Y-117452380D02*
X222485714Y-116452380D01*
X222866666Y-116785714D02*
X223390476Y-116785714D01*
X222866666Y-117452380D01*
X223390476Y-117452380D01*
X221941666Y-136176190D02*
X221941666Y-135700000D01*
X222227380Y-136271428D02*
X221227380Y-135938095D01*
X222227380Y-135604761D01*
X221560714Y-135271428D02*
X222227380Y-135271428D01*
X221655952Y-135271428D02*
X221608333Y-135223809D01*
X221560714Y-135128571D01*
X221560714Y-134985714D01*
X221608333Y-134890476D01*
X221703571Y-134842857D01*
X222227380Y-134842857D01*
X221560714Y-134509523D02*
X221560714Y-134128571D01*
X221227380Y-134366666D02*
X222084523Y-134366666D01*
X222179761Y-134319047D01*
X222227380Y-134223809D01*
X222227380Y-134128571D01*
X222179761Y-133414285D02*
X222227380Y-133509523D01*
X222227380Y-133700000D01*
X222179761Y-133795238D01*
X222084523Y-133842857D01*
X221703571Y-133842857D01*
X221608333Y-133795238D01*
X221560714Y-133700000D01*
X221560714Y-133509523D01*
X221608333Y-133414285D01*
X221703571Y-133366666D01*
X221798809Y-133366666D01*
X221894047Y-133842857D01*
X221560714Y-132938095D02*
X222227380Y-132938095D01*
X221655952Y-132938095D02*
X221608333Y-132890476D01*
X221560714Y-132795238D01*
X221560714Y-132652380D01*
X221608333Y-132557142D01*
X221703571Y-132509523D01*
X222227380Y-132509523D01*
X221560714Y-132033333D02*
X222227380Y-132033333D01*
X221655952Y-132033333D02*
X221608333Y-131985714D01*
X221560714Y-131890476D01*
X221560714Y-131747619D01*
X221608333Y-131652380D01*
X221703571Y-131604761D01*
X222227380Y-131604761D01*
X222227380Y-130700000D02*
X221703571Y-130700000D01*
X221608333Y-130747619D01*
X221560714Y-130842857D01*
X221560714Y-131033333D01*
X221608333Y-131128571D01*
X222179761Y-130700000D02*
X222227380Y-130795238D01*
X222227380Y-131033333D01*
X222179761Y-131128571D01*
X222084523Y-131176190D01*
X221989285Y-131176190D01*
X221894047Y-131128571D01*
X221846428Y-131033333D01*
X221846428Y-130795238D01*
X221798809Y-130700000D01*
X222227380Y-129461904D02*
X221227380Y-129461904D01*
X221941666Y-129128571D01*
X221227380Y-128795238D01*
X222227380Y-128795238D01*
X222227380Y-127890476D02*
X221703571Y-127890476D01*
X221608333Y-127938095D01*
X221560714Y-128033333D01*
X221560714Y-128223809D01*
X221608333Y-128319047D01*
X222179761Y-127890476D02*
X222227380Y-127985714D01*
X222227380Y-128223809D01*
X222179761Y-128319047D01*
X222084523Y-128366666D01*
X221989285Y-128366666D01*
X221894047Y-128319047D01*
X221846428Y-128223809D01*
X221846428Y-127985714D01*
X221798809Y-127890476D01*
X221560714Y-127557142D02*
X221560714Y-127176190D01*
X221227380Y-127414285D02*
X222084523Y-127414285D01*
X222179761Y-127366666D01*
X222227380Y-127271428D01*
X222227380Y-127176190D01*
X222179761Y-126414285D02*
X222227380Y-126509523D01*
X222227380Y-126700000D01*
X222179761Y-126795238D01*
X222132142Y-126842857D01*
X222036904Y-126890476D01*
X221751190Y-126890476D01*
X221655952Y-126842857D01*
X221608333Y-126795238D01*
X221560714Y-126700000D01*
X221560714Y-126509523D01*
X221608333Y-126414285D01*
X222227380Y-125985714D02*
X221227380Y-125985714D01*
X222227380Y-125557142D02*
X221703571Y-125557142D01*
X221608333Y-125604761D01*
X221560714Y-125700000D01*
X221560714Y-125842857D01*
X221608333Y-125938095D01*
X221655952Y-125985714D01*
X222227380Y-125080952D02*
X221560714Y-125080952D01*
X221227380Y-125080952D02*
X221275000Y-125128571D01*
X221322619Y-125080952D01*
X221275000Y-125033333D01*
X221227380Y-125080952D01*
X221322619Y-125080952D01*
X221560714Y-124604761D02*
X222227380Y-124604761D01*
X221655952Y-124604761D02*
X221608333Y-124557142D01*
X221560714Y-124461904D01*
X221560714Y-124319047D01*
X221608333Y-124223809D01*
X221703571Y-124176190D01*
X222227380Y-124176190D01*
X221560714Y-123271428D02*
X222370238Y-123271428D01*
X222465476Y-123319047D01*
X222513095Y-123366666D01*
X222560714Y-123461904D01*
X222560714Y-123604761D01*
X222513095Y-123700000D01*
X222179761Y-123271428D02*
X222227380Y-123366666D01*
X222227380Y-123557142D01*
X222179761Y-123652380D01*
X222132142Y-123700000D01*
X222036904Y-123747619D01*
X221751190Y-123747619D01*
X221655952Y-123700000D01*
X221608333Y-123652380D01*
X221560714Y-123557142D01*
X221560714Y-123366666D01*
X221608333Y-123271428D01*
X223877380Y-132390476D02*
X222877380Y-132390476D01*
X223877380Y-131819047D01*
X222877380Y-131819047D01*
X223829761Y-130961904D02*
X223877380Y-131057142D01*
X223877380Y-131247619D01*
X223829761Y-131342857D01*
X223734523Y-131390476D01*
X223353571Y-131390476D01*
X223258333Y-131342857D01*
X223210714Y-131247619D01*
X223210714Y-131057142D01*
X223258333Y-130961904D01*
X223353571Y-130914285D01*
X223448809Y-130914285D01*
X223544047Y-131390476D01*
X223210714Y-130628571D02*
X223210714Y-130247619D01*
X222877380Y-130485714D02*
X223734523Y-130485714D01*
X223829761Y-130438095D01*
X223877380Y-130342857D01*
X223877380Y-130247619D01*
X223210714Y-130009523D02*
X223877380Y-129819047D01*
X223401190Y-129628571D01*
X223877380Y-129438095D01*
X223210714Y-129247619D01*
X223877380Y-128723809D02*
X223829761Y-128819047D01*
X223782142Y-128866666D01*
X223686904Y-128914285D01*
X223401190Y-128914285D01*
X223305952Y-128866666D01*
X223258333Y-128819047D01*
X223210714Y-128723809D01*
X223210714Y-128580952D01*
X223258333Y-128485714D01*
X223305952Y-128438095D01*
X223401190Y-128390476D01*
X223686904Y-128390476D01*
X223782142Y-128438095D01*
X223829761Y-128485714D01*
X223877380Y-128580952D01*
X223877380Y-128723809D01*
X223877380Y-127961904D02*
X223210714Y-127961904D01*
X223401190Y-127961904D02*
X223305952Y-127914285D01*
X223258333Y-127866666D01*
X223210714Y-127771428D01*
X223210714Y-127676190D01*
X223877380Y-127342857D02*
X222877380Y-127342857D01*
X223496428Y-127247619D02*
X223877380Y-126961904D01*
X223210714Y-126961904D02*
X223591666Y-127342857D01*
X236057142Y-105702380D02*
X236247619Y-105702380D01*
X236342857Y-105750000D01*
X236438095Y-105845238D01*
X236485714Y-106035714D01*
X236485714Y-106369047D01*
X236438095Y-106559523D01*
X236342857Y-106654761D01*
X236247619Y-106702380D01*
X236057142Y-106702380D01*
X235961904Y-106654761D01*
X235866666Y-106559523D01*
X235819047Y-106369047D01*
X235819047Y-106035714D01*
X235866666Y-105845238D01*
X235961904Y-105750000D01*
X236057142Y-105702380D01*
X236914285Y-106035714D02*
X236914285Y-107035714D01*
X236914285Y-106083333D02*
X237009523Y-106035714D01*
X237200000Y-106035714D01*
X237295238Y-106083333D01*
X237342857Y-106130952D01*
X237390476Y-106226190D01*
X237390476Y-106511904D01*
X237342857Y-106607142D01*
X237295238Y-106654761D01*
X237200000Y-106702380D01*
X237009523Y-106702380D01*
X236914285Y-106654761D01*
X237676190Y-106035714D02*
X238057142Y-106035714D01*
X237819047Y-105702380D02*
X237819047Y-106559523D01*
X237866666Y-106654761D01*
X237961904Y-106702380D01*
X238057142Y-106702380D01*
X238390476Y-106702380D02*
X238390476Y-106035714D01*
X238390476Y-105702380D02*
X238342857Y-105750000D01*
X238390476Y-105797619D01*
X238438095Y-105750000D01*
X238390476Y-105702380D01*
X238390476Y-105797619D01*
X239009523Y-106702380D02*
X238914285Y-106654761D01*
X238866666Y-106607142D01*
X238819047Y-106511904D01*
X238819047Y-106226190D01*
X238866666Y-106130952D01*
X238914285Y-106083333D01*
X239009523Y-106035714D01*
X239152380Y-106035714D01*
X239247619Y-106083333D01*
X239295238Y-106130952D01*
X239342857Y-106226190D01*
X239342857Y-106511904D01*
X239295238Y-106607142D01*
X239247619Y-106654761D01*
X239152380Y-106702380D01*
X239009523Y-106702380D01*
X239771428Y-106035714D02*
X239771428Y-106702380D01*
X239771428Y-106130952D02*
X239819047Y-106083333D01*
X239914285Y-106035714D01*
X240057142Y-106035714D01*
X240152380Y-106083333D01*
X240200000Y-106178571D01*
X240200000Y-106702380D01*
X241104761Y-106702380D02*
X241104761Y-106178571D01*
X241057142Y-106083333D01*
X240961904Y-106035714D01*
X240771428Y-106035714D01*
X240676190Y-106083333D01*
X241104761Y-106654761D02*
X241009523Y-106702380D01*
X240771428Y-106702380D01*
X240676190Y-106654761D01*
X240628571Y-106559523D01*
X240628571Y-106464285D01*
X240676190Y-106369047D01*
X240771428Y-106321428D01*
X241009523Y-106321428D01*
X241104761Y-106273809D01*
X241723809Y-106702380D02*
X241628571Y-106654761D01*
X241580952Y-106559523D01*
X241580952Y-105702380D01*
X242866666Y-106702380D02*
X242866666Y-105702380D01*
X243342857Y-106035714D02*
X243342857Y-106702380D01*
X243342857Y-106130952D02*
X243390476Y-106083333D01*
X243485714Y-106035714D01*
X243628571Y-106035714D01*
X243723809Y-106083333D01*
X243771428Y-106178571D01*
X243771428Y-106702380D01*
X244676190Y-106702380D02*
X244676190Y-105702380D01*
X244676190Y-106654761D02*
X244580952Y-106702380D01*
X244390476Y-106702380D01*
X244295238Y-106654761D01*
X244247619Y-106607142D01*
X244200000Y-106511904D01*
X244200000Y-106226190D01*
X244247619Y-106130952D01*
X244295238Y-106083333D01*
X244390476Y-106035714D01*
X244580952Y-106035714D01*
X244676190Y-106083333D01*
X245580952Y-106035714D02*
X245580952Y-106702380D01*
X245152380Y-106035714D02*
X245152380Y-106559523D01*
X245200000Y-106654761D01*
X245295238Y-106702380D01*
X245438095Y-106702380D01*
X245533333Y-106654761D01*
X245580952Y-106607142D01*
X246485714Y-106654761D02*
X246390476Y-106702380D01*
X246200000Y-106702380D01*
X246104761Y-106654761D01*
X246057142Y-106607142D01*
X246009523Y-106511904D01*
X246009523Y-106226190D01*
X246057142Y-106130952D01*
X246104761Y-106083333D01*
X246200000Y-106035714D01*
X246390476Y-106035714D01*
X246485714Y-106083333D01*
X246771428Y-106035714D02*
X247152380Y-106035714D01*
X246914285Y-105702380D02*
X246914285Y-106559523D01*
X246961904Y-106654761D01*
X247057142Y-106702380D01*
X247152380Y-106702380D01*
X247628571Y-106702380D02*
X247533333Y-106654761D01*
X247485714Y-106607142D01*
X247438095Y-106511904D01*
X247438095Y-106226190D01*
X247485714Y-106130952D01*
X247533333Y-106083333D01*
X247628571Y-106035714D01*
X247771428Y-106035714D01*
X247866666Y-106083333D01*
X247914285Y-106130952D01*
X247961904Y-106226190D01*
X247961904Y-106511904D01*
X247914285Y-106607142D01*
X247866666Y-106654761D01*
X247771428Y-106702380D01*
X247628571Y-106702380D01*
X248390476Y-106702380D02*
X248390476Y-106035714D01*
X248390476Y-106226190D02*
X248438095Y-106130952D01*
X248485714Y-106083333D01*
X248580952Y-106035714D01*
X248676190Y-106035714D01*
X237604761Y-108066666D02*
X238080952Y-108066666D01*
X237509523Y-108352380D02*
X237842857Y-107352380D01*
X238176190Y-108352380D01*
X238938095Y-108352380D02*
X238938095Y-107352380D01*
X238938095Y-108304761D02*
X238842857Y-108352380D01*
X238652380Y-108352380D01*
X238557142Y-108304761D01*
X238509523Y-108257142D01*
X238461904Y-108161904D01*
X238461904Y-107876190D01*
X238509523Y-107780952D01*
X238557142Y-107733333D01*
X238652380Y-107685714D01*
X238842857Y-107685714D01*
X238938095Y-107733333D01*
X239842857Y-108352380D02*
X239842857Y-107352380D01*
X239842857Y-108304761D02*
X239747619Y-108352380D01*
X239557142Y-108352380D01*
X239461904Y-108304761D01*
X239414285Y-108257142D01*
X239366666Y-108161904D01*
X239366666Y-107876190D01*
X239414285Y-107780952D01*
X239461904Y-107733333D01*
X239557142Y-107685714D01*
X239747619Y-107685714D01*
X239842857Y-107733333D01*
X241366666Y-107352380D02*
X241366666Y-108066666D01*
X241319047Y-108209523D01*
X241223809Y-108304761D01*
X241080952Y-108352380D01*
X240985714Y-108352380D01*
X242271428Y-107685714D02*
X242271428Y-108352380D01*
X241842857Y-107685714D02*
X241842857Y-108209523D01*
X241890476Y-108304761D01*
X241985714Y-108352380D01*
X242128571Y-108352380D01*
X242223809Y-108304761D01*
X242271428Y-108257142D01*
X242747619Y-108352380D02*
X242747619Y-107685714D01*
X242747619Y-107780952D02*
X242795238Y-107733333D01*
X242890476Y-107685714D01*
X243033333Y-107685714D01*
X243128571Y-107733333D01*
X243176190Y-107828571D01*
X243176190Y-108352380D01*
X243176190Y-107828571D02*
X243223809Y-107733333D01*
X243319047Y-107685714D01*
X243461904Y-107685714D01*
X243557142Y-107733333D01*
X243604761Y-107828571D01*
X243604761Y-108352380D01*
X244080952Y-107685714D02*
X244080952Y-108685714D01*
X244080952Y-107733333D02*
X244176190Y-107685714D01*
X244366666Y-107685714D01*
X244461904Y-107733333D01*
X244509523Y-107780952D01*
X244557142Y-107876190D01*
X244557142Y-108161904D01*
X244509523Y-108257142D01*
X244461904Y-108304761D01*
X244366666Y-108352380D01*
X244176190Y-108352380D01*
X244080952Y-108304761D01*
X245366666Y-108304761D02*
X245271428Y-108352380D01*
X245080952Y-108352380D01*
X244985714Y-108304761D01*
X244938095Y-108209523D01*
X244938095Y-107828571D01*
X244985714Y-107733333D01*
X245080952Y-107685714D01*
X245271428Y-107685714D01*
X245366666Y-107733333D01*
X245414285Y-107828571D01*
X245414285Y-107923809D01*
X244938095Y-108019047D01*
X245842857Y-108352380D02*
X245842857Y-107685714D01*
X245842857Y-107876190D02*
X245890476Y-107780952D01*
X245938095Y-107733333D01*
X246033333Y-107685714D01*
X246128571Y-107685714D01*
X238890476Y-110002380D02*
X238890476Y-109335714D01*
X238890476Y-109002380D02*
X238842857Y-109050000D01*
X238890476Y-109097619D01*
X238938095Y-109050000D01*
X238890476Y-109002380D01*
X238890476Y-109097619D01*
X239223809Y-109335714D02*
X239604761Y-109335714D01*
X239366666Y-110002380D02*
X239366666Y-109145238D01*
X239414285Y-109050000D01*
X239509523Y-109002380D01*
X239604761Y-109002380D01*
X241128571Y-109335714D02*
X241128571Y-110002380D01*
X240700000Y-109335714D02*
X240700000Y-109859523D01*
X240747619Y-109954761D01*
X240842857Y-110002380D01*
X240985714Y-110002380D01*
X241080952Y-109954761D01*
X241128571Y-109907142D01*
X241604761Y-109335714D02*
X241604761Y-110002380D01*
X241604761Y-109430952D02*
X241652380Y-109383333D01*
X241747619Y-109335714D01*
X241890476Y-109335714D01*
X241985714Y-109383333D01*
X242033333Y-109478571D01*
X242033333Y-110002380D01*
X242938095Y-109335714D02*
X242938095Y-110002380D01*
X242509523Y-109335714D02*
X242509523Y-109859523D01*
X242557142Y-109954761D01*
X242652380Y-110002380D01*
X242795238Y-110002380D01*
X242890476Y-109954761D01*
X242938095Y-109907142D01*
X243366666Y-109954761D02*
X243461904Y-110002380D01*
X243652380Y-110002380D01*
X243747619Y-109954761D01*
X243795238Y-109859523D01*
X243795238Y-109811904D01*
X243747619Y-109716666D01*
X243652380Y-109669047D01*
X243509523Y-109669047D01*
X243414285Y-109621428D01*
X243366666Y-109526190D01*
X243366666Y-109478571D01*
X243414285Y-109383333D01*
X243509523Y-109335714D01*
X243652380Y-109335714D01*
X243747619Y-109383333D01*
X244604761Y-109954761D02*
X244509523Y-110002380D01*
X244319047Y-110002380D01*
X244223809Y-109954761D01*
X244176190Y-109859523D01*
X244176190Y-109478571D01*
X244223809Y-109383333D01*
X244319047Y-109335714D01*
X244509523Y-109335714D01*
X244604761Y-109383333D01*
X244652380Y-109478571D01*
X244652380Y-109573809D01*
X244176190Y-109669047D01*
X245509523Y-110002380D02*
X245509523Y-109002380D01*
X245509523Y-109954761D02*
X245414285Y-110002380D01*
X245223809Y-110002380D01*
X245128571Y-109954761D01*
X245080952Y-109907142D01*
X245033333Y-109811904D01*
X245033333Y-109526190D01*
X245080952Y-109430952D01*
X245128571Y-109383333D01*
X245223809Y-109335714D01*
X245414285Y-109335714D01*
X245509523Y-109383333D01*
X226266666Y-146261904D02*
X226266666Y-145785714D01*
X226552380Y-146357142D02*
X225552380Y-146023809D01*
X226552380Y-145690476D01*
X225885714Y-145357142D02*
X226552380Y-145357142D01*
X225980952Y-145357142D02*
X225933333Y-145309523D01*
X225885714Y-145214285D01*
X225885714Y-145071428D01*
X225933333Y-144976190D01*
X226028571Y-144928571D01*
X226552380Y-144928571D01*
X225885714Y-144595238D02*
X225885714Y-144214285D01*
X225552380Y-144452380D02*
X226409523Y-144452380D01*
X226504761Y-144404761D01*
X226552380Y-144309523D01*
X226552380Y-144214285D01*
X226504761Y-143500000D02*
X226552380Y-143595238D01*
X226552380Y-143785714D01*
X226504761Y-143880952D01*
X226409523Y-143928571D01*
X226028571Y-143928571D01*
X225933333Y-143880952D01*
X225885714Y-143785714D01*
X225885714Y-143595238D01*
X225933333Y-143500000D01*
X226028571Y-143452380D01*
X226123809Y-143452380D01*
X226219047Y-143928571D01*
X225885714Y-143023809D02*
X226552380Y-143023809D01*
X225980952Y-143023809D02*
X225933333Y-142976190D01*
X225885714Y-142880952D01*
X225885714Y-142738095D01*
X225933333Y-142642857D01*
X226028571Y-142595238D01*
X226552380Y-142595238D01*
X225885714Y-142119047D02*
X226552380Y-142119047D01*
X225980952Y-142119047D02*
X225933333Y-142071428D01*
X225885714Y-141976190D01*
X225885714Y-141833333D01*
X225933333Y-141738095D01*
X226028571Y-141690476D01*
X226552380Y-141690476D01*
X226552380Y-140785714D02*
X226028571Y-140785714D01*
X225933333Y-140833333D01*
X225885714Y-140928571D01*
X225885714Y-141119047D01*
X225933333Y-141214285D01*
X226504761Y-140785714D02*
X226552380Y-140880952D01*
X226552380Y-141119047D01*
X226504761Y-141214285D01*
X226409523Y-141261904D01*
X226314285Y-141261904D01*
X226219047Y-141214285D01*
X226171428Y-141119047D01*
X226171428Y-140880952D01*
X226123809Y-140785714D01*
X206638095Y-104975000D02*
X206542857Y-104927380D01*
X206400000Y-104927380D01*
X206257142Y-104975000D01*
X206161904Y-105070238D01*
X206114285Y-105165476D01*
X206066666Y-105355952D01*
X206066666Y-105498809D01*
X206114285Y-105689285D01*
X206161904Y-105784523D01*
X206257142Y-105879761D01*
X206400000Y-105927380D01*
X206495238Y-105927380D01*
X206638095Y-105879761D01*
X206685714Y-105832142D01*
X206685714Y-105498809D01*
X206495238Y-105498809D01*
X207114285Y-105927380D02*
X207114285Y-104927380D01*
X207685714Y-105927380D01*
X207685714Y-104927380D01*
X208161904Y-105927380D02*
X208161904Y-104927380D01*
X208400000Y-104927380D01*
X208542857Y-104975000D01*
X208638095Y-105070238D01*
X208685714Y-105165476D01*
X208733333Y-105355952D01*
X208733333Y-105498809D01*
X208685714Y-105689285D01*
X208638095Y-105784523D01*
X208542857Y-105879761D01*
X208400000Y-105927380D01*
X208161904Y-105927380D01*
X204566666Y-107577380D02*
X204566666Y-106577380D01*
X204947619Y-106577380D01*
X205042857Y-106625000D01*
X205090476Y-106672619D01*
X205138095Y-106767857D01*
X205138095Y-106910714D01*
X205090476Y-107005952D01*
X205042857Y-107053571D01*
X204947619Y-107101190D01*
X204566666Y-107101190D01*
X205471428Y-106577380D02*
X205709523Y-107577380D01*
X205900000Y-106863095D01*
X206090476Y-107577380D01*
X206328571Y-106577380D01*
X207280952Y-107577380D02*
X206947619Y-107101190D01*
X206709523Y-107577380D02*
X206709523Y-106577380D01*
X207090476Y-106577380D01*
X207185714Y-106625000D01*
X207233333Y-106672619D01*
X207280952Y-106767857D01*
X207280952Y-106910714D01*
X207233333Y-107005952D01*
X207185714Y-107053571D01*
X207090476Y-107101190D01*
X206709523Y-107101190D01*
X207661904Y-107291666D02*
X208138095Y-107291666D01*
X207566666Y-107577380D02*
X207900000Y-106577380D01*
X208233333Y-107577380D01*
X208566666Y-107577380D02*
X208566666Y-106577380D01*
X208900000Y-107291666D01*
X209233333Y-106577380D01*
X209233333Y-107577380D01*
X209709523Y-107577380D02*
X209709523Y-106577380D01*
X210090476Y-106577380D01*
X210185714Y-106625000D01*
X210233333Y-106672619D01*
X210280952Y-106767857D01*
X210280952Y-106910714D01*
X210233333Y-107005952D01*
X210185714Y-107053571D01*
X210090476Y-107101190D01*
X209709523Y-107101190D01*
X204542857Y-108941666D02*
X205019047Y-108941666D01*
X204447619Y-109227380D02*
X204780952Y-108227380D01*
X205114285Y-109227380D01*
X205447619Y-109227380D02*
X205447619Y-108227380D01*
X206019047Y-109227380D01*
X206019047Y-108227380D01*
X206352380Y-108227380D02*
X206923809Y-108227380D01*
X206638095Y-109227380D02*
X206638095Y-108227380D01*
X207019047Y-109322619D02*
X207780952Y-109322619D01*
X207971428Y-109179761D02*
X208114285Y-109227380D01*
X208352380Y-109227380D01*
X208447619Y-109179761D01*
X208495238Y-109132142D01*
X208542857Y-109036904D01*
X208542857Y-108941666D01*
X208495238Y-108846428D01*
X208447619Y-108798809D01*
X208352380Y-108751190D01*
X208161904Y-108703571D01*
X208066666Y-108655952D01*
X208019047Y-108608333D01*
X207971428Y-108513095D01*
X207971428Y-108417857D01*
X208019047Y-108322619D01*
X208066666Y-108275000D01*
X208161904Y-108227380D01*
X208400000Y-108227380D01*
X208542857Y-108275000D01*
X208971428Y-108703571D02*
X209304761Y-108703571D01*
X209447619Y-109227380D02*
X208971428Y-109227380D01*
X208971428Y-108227380D01*
X209447619Y-108227380D01*
X210352380Y-109227380D02*
X209876190Y-109227380D01*
X209876190Y-108227380D01*
X205257142Y-109925000D02*
X205161904Y-109877380D01*
X205019047Y-109877380D01*
X204876190Y-109925000D01*
X204780952Y-110020238D01*
X204733333Y-110115476D01*
X204685714Y-110305952D01*
X204685714Y-110448809D01*
X204733333Y-110639285D01*
X204780952Y-110734523D01*
X204876190Y-110829761D01*
X205019047Y-110877380D01*
X205114285Y-110877380D01*
X205257142Y-110829761D01*
X205304761Y-110782142D01*
X205304761Y-110448809D01*
X205114285Y-110448809D01*
X205733333Y-110877380D02*
X205733333Y-109877380D01*
X206114285Y-109877380D01*
X206209523Y-109925000D01*
X206257142Y-109972619D01*
X206304761Y-110067857D01*
X206304761Y-110210714D01*
X206257142Y-110305952D01*
X206209523Y-110353571D01*
X206114285Y-110401190D01*
X205733333Y-110401190D01*
X206685714Y-110591666D02*
X207161904Y-110591666D01*
X206590476Y-110877380D02*
X206923809Y-109877380D01*
X207257142Y-110877380D01*
X207590476Y-110877380D02*
X207590476Y-109877380D01*
X207828571Y-109877380D01*
X207971428Y-109925000D01*
X208066666Y-110020238D01*
X208114285Y-110115476D01*
X208161904Y-110305952D01*
X208161904Y-110448809D01*
X208114285Y-110639285D01*
X208066666Y-110734523D01*
X207971428Y-110829761D01*
X207828571Y-110877380D01*
X207590476Y-110877380D01*
X209161904Y-110782142D02*
X209114285Y-110829761D01*
X208971428Y-110877380D01*
X208876190Y-110877380D01*
X208733333Y-110829761D01*
X208638095Y-110734523D01*
X208590476Y-110639285D01*
X208542857Y-110448809D01*
X208542857Y-110305952D01*
X208590476Y-110115476D01*
X208638095Y-110020238D01*
X208733333Y-109925000D01*
X208876190Y-109877380D01*
X208971428Y-109877380D01*
X209114285Y-109925000D01*
X209161904Y-109972619D01*
X210114285Y-110877380D02*
X209542857Y-110877380D01*
X209828571Y-110877380D02*
X209828571Y-109877380D01*
X209733333Y-110020238D01*
X209638095Y-110115476D01*
X209542857Y-110163095D01*
X205257142Y-111575000D02*
X205161904Y-111527380D01*
X205019047Y-111527380D01*
X204876190Y-111575000D01*
X204780952Y-111670238D01*
X204733333Y-111765476D01*
X204685714Y-111955952D01*
X204685714Y-112098809D01*
X204733333Y-112289285D01*
X204780952Y-112384523D01*
X204876190Y-112479761D01*
X205019047Y-112527380D01*
X205114285Y-112527380D01*
X205257142Y-112479761D01*
X205304761Y-112432142D01*
X205304761Y-112098809D01*
X205114285Y-112098809D01*
X205733333Y-112527380D02*
X205733333Y-111527380D01*
X206114285Y-111527380D01*
X206209523Y-111575000D01*
X206257142Y-111622619D01*
X206304761Y-111717857D01*
X206304761Y-111860714D01*
X206257142Y-111955952D01*
X206209523Y-112003571D01*
X206114285Y-112051190D01*
X205733333Y-112051190D01*
X206685714Y-112241666D02*
X207161904Y-112241666D01*
X206590476Y-112527380D02*
X206923809Y-111527380D01*
X207257142Y-112527380D01*
X207590476Y-112527380D02*
X207590476Y-111527380D01*
X207828571Y-111527380D01*
X207971428Y-111575000D01*
X208066666Y-111670238D01*
X208114285Y-111765476D01*
X208161904Y-111955952D01*
X208161904Y-112098809D01*
X208114285Y-112289285D01*
X208066666Y-112384523D01*
X207971428Y-112479761D01*
X207828571Y-112527380D01*
X207590476Y-112527380D01*
X209161904Y-112432142D02*
X209114285Y-112479761D01*
X208971428Y-112527380D01*
X208876190Y-112527380D01*
X208733333Y-112479761D01*
X208638095Y-112384523D01*
X208590476Y-112289285D01*
X208542857Y-112098809D01*
X208542857Y-111955952D01*
X208590476Y-111765476D01*
X208638095Y-111670238D01*
X208733333Y-111575000D01*
X208876190Y-111527380D01*
X208971428Y-111527380D01*
X209114285Y-111575000D01*
X209161904Y-111622619D01*
X209542857Y-111622619D02*
X209590476Y-111575000D01*
X209685714Y-111527380D01*
X209923809Y-111527380D01*
X210019047Y-111575000D01*
X210066666Y-111622619D01*
X210114285Y-111717857D01*
X210114285Y-111813095D01*
X210066666Y-111955952D01*
X209495238Y-112527380D01*
X210114285Y-112527380D01*
X205447619Y-113796428D02*
X206209523Y-113796428D01*
X205828571Y-114177380D02*
X205828571Y-113415476D01*
X206590476Y-113177380D02*
X207209523Y-113177380D01*
X206876190Y-113558333D01*
X207019047Y-113558333D01*
X207114285Y-113605952D01*
X207161904Y-113653571D01*
X207209523Y-113748809D01*
X207209523Y-113986904D01*
X207161904Y-114082142D01*
X207114285Y-114129761D01*
X207019047Y-114177380D01*
X206733333Y-114177380D01*
X206638095Y-114129761D01*
X206590476Y-114082142D01*
X207638095Y-114082142D02*
X207685714Y-114129761D01*
X207638095Y-114177380D01*
X207590476Y-114129761D01*
X207638095Y-114082142D01*
X207638095Y-114177380D01*
X208019047Y-113177380D02*
X208638095Y-113177380D01*
X208304761Y-113558333D01*
X208447619Y-113558333D01*
X208542857Y-113605952D01*
X208590476Y-113653571D01*
X208638095Y-113748809D01*
X208638095Y-113986904D01*
X208590476Y-114082142D01*
X208542857Y-114129761D01*
X208447619Y-114177380D01*
X208161904Y-114177380D01*
X208066666Y-114129761D01*
X208019047Y-114082142D01*
X208971428Y-113510714D02*
X209209523Y-114177380D01*
X209447619Y-113510714D01*
X206600000Y-134266666D02*
X207076190Y-134266666D01*
X206504761Y-134552380D02*
X206838095Y-133552380D01*
X207171428Y-134552380D01*
X207409523Y-133552380D02*
X208076190Y-134552380D01*
X208076190Y-133552380D02*
X207409523Y-134552380D01*
X208933333Y-133552380D02*
X208457142Y-133552380D01*
X208409523Y-134028571D01*
X208457142Y-133980952D01*
X208552380Y-133933333D01*
X208790476Y-133933333D01*
X208885714Y-133980952D01*
X208933333Y-134028571D01*
X208980952Y-134123809D01*
X208980952Y-134361904D01*
X208933333Y-134457142D01*
X208885714Y-134504761D01*
X208790476Y-134552380D01*
X208552380Y-134552380D01*
X208457142Y-134504761D01*
X208409523Y-134457142D01*
X209600000Y-133552380D02*
X209695238Y-133552380D01*
X209790476Y-133600000D01*
X209838095Y-133647619D01*
X209885714Y-133742857D01*
X209933333Y-133933333D01*
X209933333Y-134171428D01*
X209885714Y-134361904D01*
X209838095Y-134457142D01*
X209790476Y-134504761D01*
X209695238Y-134552380D01*
X209600000Y-134552380D01*
X209504761Y-134504761D01*
X209457142Y-134457142D01*
X209409523Y-134361904D01*
X209361904Y-134171428D01*
X209361904Y-133933333D01*
X209409523Y-133742857D01*
X209457142Y-133647619D01*
X209504761Y-133600000D01*
X209600000Y-133552380D01*
X210790476Y-133885714D02*
X210790476Y-134552380D01*
X210552380Y-133504761D02*
X210314285Y-134219047D01*
X210933333Y-134219047D01*
X211219047Y-133552380D02*
X211838095Y-133552380D01*
X211504761Y-133933333D01*
X211647619Y-133933333D01*
X211742857Y-133980952D01*
X211790476Y-134028571D01*
X211838095Y-134123809D01*
X211838095Y-134361904D01*
X211790476Y-134457142D01*
X211742857Y-134504761D01*
X211647619Y-134552380D01*
X211361904Y-134552380D01*
X211266666Y-134504761D01*
X211219047Y-134457142D01*
X203957142Y-136202380D02*
X203623809Y-135726190D01*
X203385714Y-136202380D02*
X203385714Y-135202380D01*
X203766666Y-135202380D01*
X203861904Y-135250000D01*
X203909523Y-135297619D01*
X203957142Y-135392857D01*
X203957142Y-135535714D01*
X203909523Y-135630952D01*
X203861904Y-135678571D01*
X203766666Y-135726190D01*
X203385714Y-135726190D01*
X204814285Y-136202380D02*
X204814285Y-135678571D01*
X204766666Y-135583333D01*
X204671428Y-135535714D01*
X204480952Y-135535714D01*
X204385714Y-135583333D01*
X204814285Y-136154761D02*
X204719047Y-136202380D01*
X204480952Y-136202380D01*
X204385714Y-136154761D01*
X204338095Y-136059523D01*
X204338095Y-135964285D01*
X204385714Y-135869047D01*
X204480952Y-135821428D01*
X204719047Y-135821428D01*
X204814285Y-135773809D01*
X205242857Y-136154761D02*
X205338095Y-136202380D01*
X205528571Y-136202380D01*
X205623809Y-136154761D01*
X205671428Y-136059523D01*
X205671428Y-136011904D01*
X205623809Y-135916666D01*
X205528571Y-135869047D01*
X205385714Y-135869047D01*
X205290476Y-135821428D01*
X205242857Y-135726190D01*
X205242857Y-135678571D01*
X205290476Y-135583333D01*
X205385714Y-135535714D01*
X205528571Y-135535714D01*
X205623809Y-135583333D01*
X206100000Y-135535714D02*
X206100000Y-136535714D01*
X206100000Y-135583333D02*
X206195238Y-135535714D01*
X206385714Y-135535714D01*
X206480952Y-135583333D01*
X206528571Y-135630952D01*
X206576190Y-135726190D01*
X206576190Y-136011904D01*
X206528571Y-136107142D01*
X206480952Y-136154761D01*
X206385714Y-136202380D01*
X206195238Y-136202380D01*
X206100000Y-136154761D01*
X207004761Y-136202380D02*
X207004761Y-135202380D01*
X207004761Y-135583333D02*
X207100000Y-135535714D01*
X207290476Y-135535714D01*
X207385714Y-135583333D01*
X207433333Y-135630952D01*
X207480952Y-135726190D01*
X207480952Y-136011904D01*
X207433333Y-136107142D01*
X207385714Y-136154761D01*
X207290476Y-136202380D01*
X207100000Y-136202380D01*
X207004761Y-136154761D01*
X208290476Y-136154761D02*
X208195238Y-136202380D01*
X208004761Y-136202380D01*
X207909523Y-136154761D01*
X207861904Y-136059523D01*
X207861904Y-135678571D01*
X207909523Y-135583333D01*
X208004761Y-135535714D01*
X208195238Y-135535714D01*
X208290476Y-135583333D01*
X208338095Y-135678571D01*
X208338095Y-135773809D01*
X207861904Y-135869047D01*
X208766666Y-136202380D02*
X208766666Y-135535714D01*
X208766666Y-135726190D02*
X208814285Y-135630952D01*
X208861904Y-135583333D01*
X208957142Y-135535714D01*
X209052380Y-135535714D01*
X209385714Y-136202380D02*
X209385714Y-135535714D01*
X209385714Y-135726190D02*
X209433333Y-135630952D01*
X209480952Y-135583333D01*
X209576190Y-135535714D01*
X209671428Y-135535714D01*
X209909523Y-135535714D02*
X210147619Y-136202380D01*
X210385714Y-135535714D02*
X210147619Y-136202380D01*
X210052380Y-136440476D01*
X210004761Y-136488095D01*
X209909523Y-136535714D01*
X211528571Y-136202380D02*
X211528571Y-135202380D01*
X211909523Y-135202380D01*
X212004761Y-135250000D01*
X212052380Y-135297619D01*
X212100000Y-135392857D01*
X212100000Y-135535714D01*
X212052380Y-135630952D01*
X212004761Y-135678571D01*
X211909523Y-135726190D01*
X211528571Y-135726190D01*
X212528571Y-136202380D02*
X212528571Y-135535714D01*
X212528571Y-135202380D02*
X212480952Y-135250000D01*
X212528571Y-135297619D01*
X212576190Y-135250000D01*
X212528571Y-135202380D01*
X212528571Y-135297619D01*
X213766666Y-136202380D02*
X213766666Y-135202380D01*
X213766666Y-135678571D02*
X214338095Y-135678571D01*
X214338095Y-136202380D02*
X214338095Y-135202380D01*
X215242857Y-136202380D02*
X215242857Y-135678571D01*
X215195238Y-135583333D01*
X215100000Y-135535714D01*
X214909523Y-135535714D01*
X214814285Y-135583333D01*
X215242857Y-136154761D02*
X215147619Y-136202380D01*
X214909523Y-136202380D01*
X214814285Y-136154761D01*
X214766666Y-136059523D01*
X214766666Y-135964285D01*
X214814285Y-135869047D01*
X214909523Y-135821428D01*
X215147619Y-135821428D01*
X215242857Y-135773809D01*
X215576190Y-135535714D02*
X215957142Y-135535714D01*
X215719047Y-135202380D02*
X215719047Y-136059523D01*
X215766666Y-136154761D01*
X215861904Y-136202380D01*
X215957142Y-136202380D01*
X204147619Y-136852380D02*
X204147619Y-137566666D01*
X204100000Y-137709523D01*
X204004761Y-137804761D01*
X203861904Y-137852380D01*
X203766666Y-137852380D01*
X204766666Y-137852380D02*
X204671428Y-137804761D01*
X204623809Y-137757142D01*
X204576190Y-137661904D01*
X204576190Y-137376190D01*
X204623809Y-137280952D01*
X204671428Y-137233333D01*
X204766666Y-137185714D01*
X204909523Y-137185714D01*
X205004761Y-137233333D01*
X205052380Y-137280952D01*
X205100000Y-137376190D01*
X205100000Y-137661904D01*
X205052380Y-137757142D01*
X205004761Y-137804761D01*
X204909523Y-137852380D01*
X204766666Y-137852380D01*
X205528571Y-137185714D02*
X205528571Y-137852380D01*
X205528571Y-137280952D02*
X205576190Y-137233333D01*
X205671428Y-137185714D01*
X205814285Y-137185714D01*
X205909523Y-137233333D01*
X205957142Y-137328571D01*
X205957142Y-137852380D01*
X206861904Y-137852380D02*
X206861904Y-137328571D01*
X206814285Y-137233333D01*
X206719047Y-137185714D01*
X206528571Y-137185714D01*
X206433333Y-137233333D01*
X206861904Y-137804761D02*
X206766666Y-137852380D01*
X206528571Y-137852380D01*
X206433333Y-137804761D01*
X206385714Y-137709523D01*
X206385714Y-137614285D01*
X206433333Y-137519047D01*
X206528571Y-137471428D01*
X206766666Y-137471428D01*
X206861904Y-137423809D01*
X207195238Y-137185714D02*
X207576190Y-137185714D01*
X207338095Y-136852380D02*
X207338095Y-137709523D01*
X207385714Y-137804761D01*
X207480952Y-137852380D01*
X207576190Y-137852380D01*
X207909523Y-137852380D02*
X207909523Y-136852380D01*
X208338095Y-137852380D02*
X208338095Y-137328571D01*
X208290476Y-137233333D01*
X208195238Y-137185714D01*
X208052380Y-137185714D01*
X207957142Y-137233333D01*
X207909523Y-137280952D01*
X209242857Y-137852380D02*
X209242857Y-137328571D01*
X209195238Y-137233333D01*
X209100000Y-137185714D01*
X208909523Y-137185714D01*
X208814285Y-137233333D01*
X209242857Y-137804761D02*
X209147619Y-137852380D01*
X208909523Y-137852380D01*
X208814285Y-137804761D01*
X208766666Y-137709523D01*
X208766666Y-137614285D01*
X208814285Y-137519047D01*
X208909523Y-137471428D01*
X209147619Y-137471428D01*
X209242857Y-137423809D01*
X209719047Y-137185714D02*
X209719047Y-137852380D01*
X209719047Y-137280952D02*
X209766666Y-137233333D01*
X209861904Y-137185714D01*
X210004761Y-137185714D01*
X210100000Y-137233333D01*
X210147619Y-137328571D01*
X210147619Y-137852380D01*
X211385714Y-137852380D02*
X211385714Y-136852380D01*
X211957142Y-137852380D02*
X211528571Y-137280952D01*
X211957142Y-136852380D02*
X211385714Y-137423809D01*
X212814285Y-137852380D02*
X212814285Y-137328571D01*
X212766666Y-137233333D01*
X212671428Y-137185714D01*
X212480952Y-137185714D01*
X212385714Y-137233333D01*
X212814285Y-137804761D02*
X212719047Y-137852380D01*
X212480952Y-137852380D01*
X212385714Y-137804761D01*
X212338095Y-137709523D01*
X212338095Y-137614285D01*
X212385714Y-137519047D01*
X212480952Y-137471428D01*
X212719047Y-137471428D01*
X212814285Y-137423809D01*
X213195238Y-137185714D02*
X213433333Y-137852380D01*
X213671428Y-137185714D02*
X213433333Y-137852380D01*
X213338095Y-138090476D01*
X213290476Y-138138095D01*
X213195238Y-138185714D01*
X214052380Y-137185714D02*
X214052380Y-137852380D01*
X214052380Y-137280952D02*
X214100000Y-137233333D01*
X214195238Y-137185714D01*
X214338095Y-137185714D01*
X214433333Y-137233333D01*
X214480952Y-137328571D01*
X214480952Y-137852380D01*
X215338095Y-137804761D02*
X215242857Y-137852380D01*
X215052380Y-137852380D01*
X214957142Y-137804761D01*
X214909523Y-137709523D01*
X214909523Y-137328571D01*
X214957142Y-137233333D01*
X215052380Y-137185714D01*
X215242857Y-137185714D01*
X215338095Y-137233333D01*
X215385714Y-137328571D01*
X215385714Y-137423809D01*
X214909523Y-137519047D01*
X203385714Y-138978571D02*
X203528571Y-139026190D01*
X203576190Y-139073809D01*
X203623809Y-139169047D01*
X203623809Y-139311904D01*
X203576190Y-139407142D01*
X203528571Y-139454761D01*
X203433333Y-139502380D01*
X203052380Y-139502380D01*
X203052380Y-138502380D01*
X203385714Y-138502380D01*
X203480952Y-138550000D01*
X203528571Y-138597619D01*
X203576190Y-138692857D01*
X203576190Y-138788095D01*
X203528571Y-138883333D01*
X203480952Y-138930952D01*
X203385714Y-138978571D01*
X203052380Y-138978571D01*
X204052380Y-139502380D02*
X204052380Y-138835714D01*
X204052380Y-139026190D02*
X204100000Y-138930952D01*
X204147619Y-138883333D01*
X204242857Y-138835714D01*
X204338095Y-138835714D01*
X205100000Y-139502380D02*
X205100000Y-138978571D01*
X205052380Y-138883333D01*
X204957142Y-138835714D01*
X204766666Y-138835714D01*
X204671428Y-138883333D01*
X205100000Y-139454761D02*
X205004761Y-139502380D01*
X204766666Y-139502380D01*
X204671428Y-139454761D01*
X204623809Y-139359523D01*
X204623809Y-139264285D01*
X204671428Y-139169047D01*
X204766666Y-139121428D01*
X205004761Y-139121428D01*
X205100000Y-139073809D01*
X205576190Y-138835714D02*
X205576190Y-139502380D01*
X205576190Y-138930952D02*
X205623809Y-138883333D01*
X205719047Y-138835714D01*
X205861904Y-138835714D01*
X205957142Y-138883333D01*
X206004761Y-138978571D01*
X206004761Y-139502380D01*
X206909523Y-139502380D02*
X206909523Y-138502380D01*
X206909523Y-139454761D02*
X206814285Y-139502380D01*
X206623809Y-139502380D01*
X206528571Y-139454761D01*
X206480952Y-139407142D01*
X206433333Y-139311904D01*
X206433333Y-139026190D01*
X206480952Y-138930952D01*
X206528571Y-138883333D01*
X206623809Y-138835714D01*
X206814285Y-138835714D01*
X206909523Y-138883333D01*
X207766666Y-139454761D02*
X207671428Y-139502380D01*
X207480952Y-139502380D01*
X207385714Y-139454761D01*
X207338095Y-139359523D01*
X207338095Y-138978571D01*
X207385714Y-138883333D01*
X207480952Y-138835714D01*
X207671428Y-138835714D01*
X207766666Y-138883333D01*
X207814285Y-138978571D01*
X207814285Y-139073809D01*
X207338095Y-139169047D01*
X208242857Y-138835714D02*
X208242857Y-139502380D01*
X208242857Y-138930952D02*
X208290476Y-138883333D01*
X208385714Y-138835714D01*
X208528571Y-138835714D01*
X208623809Y-138883333D01*
X208671428Y-138978571D01*
X208671428Y-139502380D01*
X209147619Y-139502380D02*
X209147619Y-138502380D01*
X209147619Y-138883333D02*
X209242857Y-138835714D01*
X209433333Y-138835714D01*
X209528571Y-138883333D01*
X209576190Y-138930952D01*
X209623809Y-139026190D01*
X209623809Y-139311904D01*
X209576190Y-139407142D01*
X209528571Y-139454761D01*
X209433333Y-139502380D01*
X209242857Y-139502380D01*
X209147619Y-139454761D01*
X210480952Y-138835714D02*
X210480952Y-139502380D01*
X210052380Y-138835714D02*
X210052380Y-139359523D01*
X210100000Y-139454761D01*
X210195238Y-139502380D01*
X210338095Y-139502380D01*
X210433333Y-139454761D01*
X210480952Y-139407142D01*
X210957142Y-139502380D02*
X210957142Y-138835714D01*
X210957142Y-139026190D02*
X211004761Y-138930952D01*
X211052380Y-138883333D01*
X211147619Y-138835714D01*
X211242857Y-138835714D01*
X212004761Y-138835714D02*
X212004761Y-139645238D01*
X211957142Y-139740476D01*
X211909523Y-139788095D01*
X211814285Y-139835714D01*
X211671428Y-139835714D01*
X211576190Y-139788095D01*
X212004761Y-139454761D02*
X211909523Y-139502380D01*
X211719047Y-139502380D01*
X211623809Y-139454761D01*
X211576190Y-139407142D01*
X211528571Y-139311904D01*
X211528571Y-139026190D01*
X211576190Y-138930952D01*
X211623809Y-138883333D01*
X211719047Y-138835714D01*
X211909523Y-138835714D01*
X212004761Y-138883333D01*
X213100000Y-138502380D02*
X213671428Y-138502380D01*
X213385714Y-139502380D02*
X213385714Y-138502380D01*
X214385714Y-139454761D02*
X214290476Y-139502380D01*
X214100000Y-139502380D01*
X214004761Y-139454761D01*
X213957142Y-139359523D01*
X213957142Y-138978571D01*
X214004761Y-138883333D01*
X214100000Y-138835714D01*
X214290476Y-138835714D01*
X214385714Y-138883333D01*
X214433333Y-138978571D01*
X214433333Y-139073809D01*
X213957142Y-139169047D01*
X215290476Y-139454761D02*
X215195238Y-139502380D01*
X215004761Y-139502380D01*
X214909523Y-139454761D01*
X214861904Y-139407142D01*
X214814285Y-139311904D01*
X214814285Y-139026190D01*
X214861904Y-138930952D01*
X214909523Y-138883333D01*
X215004761Y-138835714D01*
X215195238Y-138835714D01*
X215290476Y-138883333D01*
X215719047Y-139502380D02*
X215719047Y-138502380D01*
X216147619Y-139502380D02*
X216147619Y-138978571D01*
X216100000Y-138883333D01*
X216004761Y-138835714D01*
X215861904Y-138835714D01*
X215766666Y-138883333D01*
X215719047Y-138930952D01*
X208052380Y-141152380D02*
X207719047Y-140676190D01*
X207480952Y-141152380D02*
X207480952Y-140152380D01*
X207861904Y-140152380D01*
X207957142Y-140200000D01*
X208004761Y-140247619D01*
X208052380Y-140342857D01*
X208052380Y-140485714D01*
X208004761Y-140580952D01*
X207957142Y-140628571D01*
X207861904Y-140676190D01*
X207480952Y-140676190D01*
X208861904Y-141104761D02*
X208766666Y-141152380D01*
X208576190Y-141152380D01*
X208480952Y-141104761D01*
X208433333Y-141009523D01*
X208433333Y-140628571D01*
X208480952Y-140533333D01*
X208576190Y-140485714D01*
X208766666Y-140485714D01*
X208861904Y-140533333D01*
X208909523Y-140628571D01*
X208909523Y-140723809D01*
X208433333Y-140819047D01*
X209242857Y-140485714D02*
X209480952Y-141152380D01*
X209719047Y-140485714D01*
X210100000Y-141057142D02*
X210147619Y-141104761D01*
X210100000Y-141152380D01*
X210052380Y-141104761D01*
X210100000Y-141057142D01*
X210100000Y-141152380D01*
X211290476Y-140866666D02*
X211766666Y-140866666D01*
X211195238Y-141152380D02*
X211528571Y-140152380D01*
X211861904Y-141152380D01*
D11*
G36*
X250418330Y-120880193D02*
G01*
X250494706Y-120677812D01*
X250605818Y-120543152D01*
X250849455Y-120369778D01*
X251077463Y-120362623D01*
X251305196Y-120521429D01*
X251314574Y-120531291D01*
X251451488Y-120754977D01*
X251498200Y-121065434D01*
X251498666Y-121109846D01*
X251487137Y-121352411D01*
X251458056Y-121517635D01*
X251442222Y-121548889D01*
X251333026Y-121579367D01*
X251108881Y-121599862D01*
X250891888Y-121605334D01*
X250398000Y-121605334D01*
X250398000Y-121178152D01*
X250418330Y-120880193D01*
X250418330Y-120880193D01*
G37*
X250418330Y-120880193D02*
X250494706Y-120677812D01*
X250605818Y-120543152D01*
X250849455Y-120369778D01*
X251077463Y-120362623D01*
X251305196Y-120521429D01*
X251314574Y-120531291D01*
X251451488Y-120754977D01*
X251498200Y-121065434D01*
X251498666Y-121109846D01*
X251487137Y-121352411D01*
X251458056Y-121517635D01*
X251442222Y-121548889D01*
X251333026Y-121579367D01*
X251108881Y-121599862D01*
X250891888Y-121605334D01*
X250398000Y-121605334D01*
X250398000Y-121178152D01*
X250418330Y-120880193D01*
G36*
X257764000Y-104333334D02*
G01*
X257764000Y-146582000D01*
X249890000Y-146582000D01*
X249890000Y-146427241D01*
X250419166Y-146134923D01*
X250606196Y-146032880D01*
X250924053Y-145860933D01*
X251354241Y-145629030D01*
X251878263Y-145347117D01*
X252477622Y-145025140D01*
X253133822Y-144673045D01*
X253828365Y-144300780D01*
X254229166Y-144086136D01*
X254913048Y-143719464D01*
X255548644Y-143377637D01*
X256120865Y-143068847D01*
X256614622Y-142801285D01*
X257014825Y-142583141D01*
X257306387Y-142422608D01*
X257474218Y-142327876D01*
X257510000Y-142305100D01*
X257439015Y-142259455D01*
X257240094Y-142145079D01*
X256934287Y-141973721D01*
X256542644Y-141757131D01*
X256086215Y-141507057D01*
X255837833Y-141371802D01*
X254880498Y-140851180D01*
X254060394Y-140403630D01*
X253365825Y-140021632D01*
X252785098Y-139697664D01*
X252306516Y-139424206D01*
X251918386Y-139193737D01*
X251609014Y-138998737D01*
X251366704Y-138831683D01*
X251179763Y-138685057D01*
X251036495Y-138551336D01*
X250925206Y-138423000D01*
X250834202Y-138292529D01*
X250751788Y-138152401D01*
X250708325Y-138073000D01*
X250662568Y-137983346D01*
X250624960Y-137888335D01*
X250594555Y-137770972D01*
X250570405Y-137614263D01*
X250551561Y-137401213D01*
X250537077Y-137114825D01*
X250526004Y-136738105D01*
X250517395Y-136254057D01*
X250510301Y-135645687D01*
X250503776Y-134895998D01*
X250499403Y-134326500D01*
X250495028Y-133585511D01*
X250493276Y-132900014D01*
X250494022Y-132287875D01*
X250497140Y-131766959D01*
X250502503Y-131355132D01*
X250509985Y-131070259D01*
X250519460Y-130930206D01*
X250523464Y-130918667D01*
X250616347Y-130956279D01*
X250818137Y-131056018D01*
X251089461Y-131198244D01*
X251159904Y-131236167D01*
X251746687Y-131553667D01*
X251770843Y-132983506D01*
X251795000Y-134413345D01*
X252684000Y-134894096D01*
X253568805Y-135372632D01*
X254316605Y-135777252D01*
X254939374Y-136114527D01*
X255449090Y-136391029D01*
X255857727Y-136613329D01*
X256177262Y-136788000D01*
X256419669Y-136921613D01*
X256596924Y-137020740D01*
X256721004Y-137091953D01*
X256803883Y-137141824D01*
X256857538Y-137176924D01*
X256893944Y-137203825D01*
X256896166Y-137205579D01*
X256958449Y-137346792D01*
X256993957Y-137643444D01*
X257002000Y-137956367D01*
X256997612Y-138292813D01*
X256979337Y-138493611D01*
X256939503Y-138592331D01*
X256870439Y-138622545D01*
X256849600Y-138623334D01*
X256675086Y-138585833D01*
X256616766Y-138550467D01*
X256511387Y-138481933D01*
X256291948Y-138355714D01*
X255994623Y-138192250D01*
X255774333Y-138074440D01*
X255420459Y-137885898D01*
X255095703Y-137710548D01*
X254847178Y-137573934D01*
X254758333Y-137523563D01*
X254574598Y-137418955D01*
X254319192Y-137277603D01*
X253974713Y-137090062D01*
X253523758Y-136846882D01*
X252948926Y-136538616D01*
X252620500Y-136362941D01*
X251752666Y-135899029D01*
X251752666Y-138534319D01*
X252006666Y-138665667D01*
X252260666Y-138797016D01*
X252260666Y-137868505D01*
X252266113Y-137490080D01*
X252280872Y-137178783D01*
X252302571Y-136970714D01*
X252324166Y-136902268D01*
X252415458Y-136928666D01*
X252629600Y-137025205D01*
X252941552Y-137179549D01*
X253326275Y-137379358D01*
X253700000Y-137580198D01*
X254184287Y-137844134D01*
X254670478Y-138108828D01*
X255116904Y-138351611D01*
X255481894Y-138549818D01*
X255647333Y-138639468D01*
X256050980Y-138858388D01*
X256499785Y-139102550D01*
X256896855Y-139319242D01*
X256898253Y-139320007D01*
X257514174Y-139656930D01*
X257490920Y-138245772D01*
X257467666Y-136834613D01*
X256959666Y-136560668D01*
X256658093Y-136398585D01*
X256269459Y-136190467D01*
X255856237Y-135969746D01*
X255647333Y-135858399D01*
X255224448Y-135632531D01*
X254771634Y-135389594D01*
X254361874Y-135168783D01*
X254208000Y-135085464D01*
X254208000Y-127532000D01*
X254716000Y-127532000D01*
X254716000Y-126516000D01*
X257594666Y-126516000D01*
X257594666Y-125923334D01*
X254716000Y-125923334D01*
X254716000Y-124907334D01*
X254250333Y-124907334D01*
X254250333Y-124314975D01*
X255922500Y-124314821D01*
X257594666Y-124314667D01*
X257594666Y-122198000D01*
X257086666Y-122198000D01*
X257086666Y-123806667D01*
X256155333Y-123806667D01*
X256155333Y-122452000D01*
X256064396Y-122452000D01*
X256064396Y-121598700D01*
X256565786Y-121488639D01*
X256996443Y-121250743D01*
X257328067Y-120897307D01*
X257417623Y-120744420D01*
X257564780Y-120286690D01*
X257588134Y-119781803D01*
X257491457Y-119289224D01*
X257300579Y-118899242D01*
X257151726Y-118695228D01*
X257059489Y-118614284D01*
X256989564Y-118636625D01*
X256942902Y-118692942D01*
X256842801Y-118923341D01*
X256876845Y-119186876D01*
X256959145Y-119373156D01*
X257074863Y-119759809D01*
X257045695Y-120150254D01*
X256892119Y-120511841D01*
X256634614Y-120811919D01*
X256293658Y-121017838D01*
X255889729Y-121096945D01*
X255877938Y-121097017D01*
X255671165Y-121075424D01*
X255488589Y-120990508D01*
X255275767Y-120812773D01*
X255179438Y-120718562D01*
X254966191Y-120490952D01*
X254851937Y-120313689D01*
X254806919Y-120127134D01*
X254800666Y-119959434D01*
X254834233Y-119643852D01*
X254917398Y-119340209D01*
X254942278Y-119282115D01*
X255029581Y-119051588D01*
X255024168Y-118873009D01*
X254982501Y-118762627D01*
X254895994Y-118615026D01*
X254809771Y-118606612D01*
X254750034Y-118648888D01*
X254542341Y-118914476D01*
X254390681Y-119289347D01*
X254303951Y-119720142D01*
X254291046Y-120153505D01*
X254360862Y-120536076D01*
X254414185Y-120663401D01*
X254614623Y-120945819D01*
X254898501Y-121219823D01*
X255211232Y-121440749D01*
X255498227Y-121563932D01*
X255520571Y-121568631D01*
X256064396Y-121598700D01*
X256064396Y-122452000D01*
X255647333Y-122452000D01*
X255647333Y-123806667D01*
X254716000Y-123806667D01*
X254716000Y-123002334D01*
X254714424Y-122629697D01*
X254704260Y-122394679D01*
X254677354Y-122265565D01*
X254625549Y-122210641D01*
X254540692Y-122198193D01*
X254509172Y-122198000D01*
X254302344Y-122198000D01*
X254276338Y-123256488D01*
X254250333Y-124314975D01*
X254250333Y-117795334D01*
X257594666Y-117795334D01*
X257594666Y-117287334D01*
X256155333Y-117287334D01*
X256155333Y-115509334D01*
X257594666Y-115509334D01*
X257594666Y-114916667D01*
X254242002Y-114916667D01*
X254276597Y-115213000D01*
X254311192Y-115509334D01*
X255647333Y-115509334D01*
X255647333Y-117287334D01*
X254250333Y-117287334D01*
X254250333Y-117795334D01*
X254250333Y-124314975D01*
X254250333Y-124907334D01*
X254208000Y-124907334D01*
X254208000Y-127532000D01*
X254208000Y-135085464D01*
X253800338Y-134864907D01*
X253343287Y-134618648D01*
X252938000Y-134401180D01*
X252303000Y-134061507D01*
X252256794Y-131202015D01*
X251898897Y-131011045D01*
X251666764Y-130886891D01*
X251338759Y-130711089D01*
X250968140Y-130512197D01*
X250766165Y-130403704D01*
X250440275Y-130231048D01*
X250171614Y-130093337D01*
X249995833Y-130008511D01*
X249995833Y-127931142D01*
X250102608Y-127885473D01*
X250339359Y-127782502D01*
X250681084Y-127633159D01*
X251102782Y-127448374D01*
X251579449Y-127239077D01*
X251689166Y-127190847D01*
X253276666Y-126492861D01*
X253276666Y-126219600D01*
X253260673Y-126050373D01*
X253185184Y-125940702D01*
X253008935Y-125846918D01*
X252874500Y-125793991D01*
X252569861Y-125671850D01*
X252207419Y-125517178D01*
X251964333Y-125408414D01*
X251649025Y-125265270D01*
X251248801Y-125085833D01*
X250833935Y-124901555D01*
X250694333Y-124840000D01*
X249932333Y-124504814D01*
X249904820Y-124713561D01*
X249933763Y-124905222D01*
X250036709Y-125099189D01*
X250171453Y-125227587D01*
X250235881Y-125246000D01*
X250340631Y-125279054D01*
X250553134Y-125365842D01*
X250828016Y-125487803D01*
X250836592Y-125491738D01*
X251204320Y-125657429D01*
X251597385Y-125829704D01*
X251847429Y-125936238D01*
X252102184Y-126054129D01*
X252282542Y-126159247D01*
X252343139Y-126218506D01*
X252327382Y-126257362D01*
X252253433Y-126314282D01*
X252104615Y-126397487D01*
X251864252Y-126515197D01*
X251515664Y-126675632D01*
X251042175Y-126887012D01*
X250525000Y-127114657D01*
X250185546Y-127287745D01*
X249985932Y-127458602D01*
X249899320Y-127654878D01*
X249890000Y-127768908D01*
X249890000Y-123806667D01*
X253276666Y-123806667D01*
X253276666Y-123298667D01*
X253276666Y-122113334D01*
X253276666Y-121605334D01*
X252006666Y-121605334D01*
X252006666Y-121321268D01*
X252023360Y-121157283D01*
X252094153Y-121021585D01*
X252250114Y-120874240D01*
X252493500Y-120695486D01*
X252852314Y-120432125D01*
X253085852Y-120226054D01*
X253215866Y-120050561D01*
X253264106Y-119878930D01*
X253261455Y-119752285D01*
X253234333Y-119492063D01*
X252619172Y-119966963D01*
X252004012Y-120441863D01*
X251796916Y-120218403D01*
X251550954Y-120029795D01*
X251550954Y-119065334D01*
X252090028Y-119013821D01*
X252516442Y-118848492D01*
X252855888Y-118553164D01*
X253134060Y-118111652D01*
X253163956Y-118049334D01*
X253250943Y-117722514D01*
X253269238Y-117311267D01*
X253221746Y-116884622D01*
X253111371Y-116511605D01*
X253098009Y-116482078D01*
X252919351Y-116102000D01*
X251583333Y-116102000D01*
X251583333Y-116652334D01*
X251589545Y-116952472D01*
X251614889Y-117119860D01*
X251669429Y-117190840D01*
X251735733Y-117202667D01*
X251951420Y-117129543D01*
X252074666Y-116934742D01*
X252091333Y-116804734D01*
X252117259Y-116671816D01*
X252227487Y-116617968D01*
X252384403Y-116610000D01*
X252575851Y-116625503D01*
X252680820Y-116703365D01*
X252752675Y-116890619D01*
X252768666Y-116948667D01*
X252811141Y-117374813D01*
X252719850Y-117764532D01*
X252519864Y-118096207D01*
X252236250Y-118348221D01*
X251894077Y-118498958D01*
X251518415Y-118526799D01*
X251134331Y-118410129D01*
X251097105Y-118390064D01*
X250850151Y-118211750D01*
X250648534Y-118000140D01*
X250611661Y-117945245D01*
X250489650Y-117609908D01*
X250470280Y-117238902D01*
X250554443Y-116905967D01*
X250598121Y-116827405D01*
X250721612Y-116543482D01*
X250700875Y-116305206D01*
X250609666Y-116186667D01*
X250472170Y-116132527D01*
X250332582Y-116212158D01*
X250177121Y-116437465D01*
X250066631Y-116655721D01*
X249915879Y-117160865D01*
X249925339Y-117666731D01*
X250088029Y-118147223D01*
X250396964Y-118576241D01*
X250637415Y-118788950D01*
X250864386Y-118944696D01*
X251065169Y-119028027D01*
X251311969Y-119060790D01*
X251550954Y-119065334D01*
X251550954Y-120029795D01*
X251456293Y-119957206D01*
X251078439Y-119841689D01*
X250698022Y-119869023D01*
X250349710Y-120036373D01*
X250068172Y-120340909D01*
X250055905Y-120360611D01*
X249968765Y-120544312D01*
X249917338Y-120773699D01*
X249894012Y-121095280D01*
X249890316Y-121372500D01*
X249890000Y-122113334D01*
X249890000Y-115001334D01*
X253276666Y-115001334D01*
X253276666Y-114493334D01*
X253276666Y-113308000D01*
X253276666Y-112800000D01*
X252006666Y-112800000D01*
X251564888Y-112796013D01*
X251190180Y-112785024D01*
X250911750Y-112768497D01*
X250758806Y-112747894D01*
X250738519Y-112736500D01*
X250804503Y-112669131D01*
X250986846Y-112520190D01*
X251263973Y-112306332D01*
X251614310Y-112044212D01*
X252008519Y-111756098D01*
X252459681Y-111427513D01*
X252790256Y-111178966D01*
X253018556Y-110993646D01*
X253162896Y-110854742D01*
X253241589Y-110745441D01*
X253272949Y-110648930D01*
X253276666Y-110591932D01*
X253276666Y-110344667D01*
X249890000Y-110344667D01*
X249890000Y-109159334D01*
X253276666Y-109159334D01*
X253276666Y-108651334D01*
X253229688Y-108651334D01*
X253229688Y-107974000D01*
X253273394Y-107904448D01*
X253276333Y-107742384D01*
X253245687Y-107557699D01*
X253188637Y-107420284D01*
X253170833Y-107401298D01*
X253054586Y-107335579D01*
X252817287Y-107220514D01*
X252493919Y-107072533D01*
X252133666Y-106914185D01*
X251742989Y-106744131D01*
X251387142Y-106586428D01*
X251107846Y-106459736D01*
X250956578Y-106387732D01*
X250710824Y-106262955D01*
X251252912Y-106020182D01*
X251597764Y-105871625D01*
X251818319Y-105798656D01*
X251941820Y-105801300D01*
X251995509Y-105879582D01*
X252006666Y-106020902D01*
X252064726Y-106253371D01*
X252259823Y-106449399D01*
X252260666Y-106450000D01*
X252514666Y-106630864D01*
X252514666Y-106038138D01*
X252520876Y-105719867D01*
X252546064Y-105531647D01*
X252600066Y-105434440D01*
X252677018Y-105393883D01*
X252972865Y-105242167D01*
X253186163Y-105021446D01*
X253276029Y-104775343D01*
X253276666Y-104754063D01*
X253276666Y-104509749D01*
X252705166Y-104764523D01*
X252354807Y-104920758D01*
X252004487Y-105077050D01*
X251752666Y-105189463D01*
X251496784Y-105303472D01*
X251148797Y-105458158D01*
X250771434Y-105625645D01*
X250652000Y-105678597D01*
X250314415Y-105831498D01*
X250103163Y-105942422D01*
X249988738Y-106035630D01*
X249941631Y-106135386D01*
X249932336Y-106265951D01*
X249932333Y-106270356D01*
X249936850Y-106374767D01*
X249965447Y-106460131D01*
X250040695Y-106541278D01*
X250185164Y-106633039D01*
X250421425Y-106750242D01*
X250772049Y-106907718D01*
X251160000Y-107076985D01*
X251617308Y-107276401D01*
X252052879Y-107467347D01*
X252427968Y-107632768D01*
X252703831Y-107755608D01*
X252785188Y-107792411D01*
X253019467Y-107895603D01*
X253184925Y-107961390D01*
X253229688Y-107974000D01*
X253229688Y-108651334D01*
X249890000Y-108651334D01*
X249890000Y-109159334D01*
X249890000Y-110344667D01*
X249890000Y-110852667D01*
X251040055Y-110852667D01*
X251547394Y-110857804D01*
X251896142Y-110873802D01*
X252096746Y-110901542D01*
X252159652Y-110941907D01*
X252158646Y-110947060D01*
X252081790Y-111025969D01*
X251890062Y-111182427D01*
X251607849Y-111397644D01*
X251259538Y-111652833D01*
X251029757Y-111816760D01*
X250618062Y-112108835D01*
X250324279Y-112324192D01*
X250127848Y-112483572D01*
X250008206Y-112607717D01*
X249944792Y-112717367D01*
X249917044Y-112833265D01*
X249906298Y-112950034D01*
X249880263Y-113308000D01*
X253276666Y-113308000D01*
X253276666Y-114493334D01*
X249890000Y-114493334D01*
X249890000Y-115001334D01*
X249890000Y-122113334D01*
X253276666Y-122113334D01*
X253276666Y-123298667D01*
X249890000Y-123298667D01*
X249890000Y-123806667D01*
X249890000Y-127768908D01*
X249924331Y-127917553D01*
X249995833Y-127931142D01*
X249995833Y-130008511D01*
X249993749Y-130007505D01*
X249940665Y-129987334D01*
X249930104Y-130069144D01*
X249920330Y-130303149D01*
X249911572Y-130672213D01*
X249904062Y-131159197D01*
X249898029Y-131746965D01*
X249893703Y-132418380D01*
X249891315Y-133156304D01*
X249890916Y-133691500D01*
X249891653Y-134624485D01*
X249894326Y-135405221D01*
X249900382Y-136050793D01*
X249911269Y-136578285D01*
X249928433Y-137004781D01*
X249953322Y-137347366D01*
X249987383Y-137623123D01*
X250032062Y-137849138D01*
X250088808Y-138042493D01*
X250159066Y-138220274D01*
X250244285Y-138399565D01*
X250298759Y-138506368D01*
X250390859Y-138670755D01*
X250498261Y-138825951D01*
X250633345Y-138980037D01*
X250808492Y-139141091D01*
X251036080Y-139317195D01*
X251328491Y-139516427D01*
X251698106Y-139746867D01*
X252157303Y-140016595D01*
X252718465Y-140333692D01*
X253393970Y-140706236D01*
X254196200Y-141142308D01*
X255012333Y-141582602D01*
X255483339Y-141838899D01*
X255820273Y-142029838D01*
X256040123Y-142166582D01*
X256159876Y-142260291D01*
X256196518Y-142322127D01*
X256182697Y-142351602D01*
X256126090Y-142394975D01*
X256015659Y-142463622D01*
X255831707Y-142568555D01*
X255554538Y-142720784D01*
X255164456Y-142931320D01*
X254716000Y-143171503D01*
X254100431Y-143500569D01*
X253604320Y-143765977D01*
X253197761Y-143983845D01*
X252850849Y-144170295D01*
X252533678Y-144341443D01*
X252216344Y-144513411D01*
X251868940Y-144702317D01*
X251461561Y-144924280D01*
X251237443Y-145046475D01*
X250940769Y-145204718D01*
X250701547Y-145325746D01*
X250557673Y-145390650D01*
X250535647Y-145396667D01*
X250511464Y-145318558D01*
X250497948Y-145110004D01*
X250496971Y-144809666D01*
X250500537Y-144671747D01*
X250525000Y-143946827D01*
X251160000Y-143607974D01*
X251540168Y-143403648D01*
X251942469Y-143185133D01*
X252283851Y-142997554D01*
X252303000Y-142986927D01*
X252633062Y-142805706D01*
X252966795Y-142625832D01*
X253178221Y-142514300D01*
X253545442Y-142323868D01*
X253262887Y-142164793D01*
X253093750Y-142069220D01*
X252809499Y-141908220D01*
X252442258Y-141700005D01*
X252024149Y-141462784D01*
X251752666Y-141308673D01*
X250525000Y-140611629D01*
X250482666Y-140098108D01*
X250435698Y-139756550D01*
X250343101Y-139504041D01*
X250175297Y-139261062D01*
X250168005Y-139252128D01*
X249895677Y-138919667D01*
X249895826Y-139935667D01*
X249895974Y-140951667D01*
X251047436Y-141587321D01*
X251442660Y-141810476D01*
X251779098Y-142009934D01*
X252031384Y-142169892D01*
X252174152Y-142274551D01*
X252196807Y-142303270D01*
X252128223Y-142395023D01*
X251964742Y-142508148D01*
X251952524Y-142514872D01*
X251783640Y-142606944D01*
X251505704Y-142759017D01*
X251158066Y-142949542D01*
X250800166Y-143145936D01*
X249890000Y-143645694D01*
X249890000Y-146427241D01*
X249890000Y-146582000D01*
X249636000Y-146582000D01*
X249636000Y-104333334D01*
X257764000Y-104333334D01*
X257764000Y-104333334D01*
G37*
X257764000Y-104333334D02*
X257764000Y-146582000D01*
X249890000Y-146582000D01*
X249890000Y-146427241D01*
X250419166Y-146134923D01*
X250606196Y-146032880D01*
X250924053Y-145860933D01*
X251354241Y-145629030D01*
X251878263Y-145347117D01*
X252477622Y-145025140D01*
X253133822Y-144673045D01*
X253828365Y-144300780D01*
X254229166Y-144086136D01*
X254913048Y-143719464D01*
X255548644Y-143377637D01*
X256120865Y-143068847D01*
X256614622Y-142801285D01*
X257014825Y-142583141D01*
X257306387Y-142422608D01*
X257474218Y-142327876D01*
X257510000Y-142305100D01*
X257439015Y-142259455D01*
X257240094Y-142145079D01*
X256934287Y-141973721D01*
X256542644Y-141757131D01*
X256086215Y-141507057D01*
X255837833Y-141371802D01*
X254880498Y-140851180D01*
X254060394Y-140403630D01*
X253365825Y-140021632D01*
X252785098Y-139697664D01*
X252306516Y-139424206D01*
X251918386Y-139193737D01*
X251609014Y-138998737D01*
X251366704Y-138831683D01*
X251179763Y-138685057D01*
X251036495Y-138551336D01*
X250925206Y-138423000D01*
X250834202Y-138292529D01*
X250751788Y-138152401D01*
X250708325Y-138073000D01*
X250662568Y-137983346D01*
X250624960Y-137888335D01*
X250594555Y-137770972D01*
X250570405Y-137614263D01*
X250551561Y-137401213D01*
X250537077Y-137114825D01*
X250526004Y-136738105D01*
X250517395Y-136254057D01*
X250510301Y-135645687D01*
X250503776Y-134895998D01*
X250499403Y-134326500D01*
X250495028Y-133585511D01*
X250493276Y-132900014D01*
X250494022Y-132287875D01*
X250497140Y-131766959D01*
X250502503Y-131355132D01*
X250509985Y-131070259D01*
X250519460Y-130930206D01*
X250523464Y-130918667D01*
X250616347Y-130956279D01*
X250818137Y-131056018D01*
X251089461Y-131198244D01*
X251159904Y-131236167D01*
X251746687Y-131553667D01*
X251770843Y-132983506D01*
X251795000Y-134413345D01*
X252684000Y-134894096D01*
X253568805Y-135372632D01*
X254316605Y-135777252D01*
X254939374Y-136114527D01*
X255449090Y-136391029D01*
X255857727Y-136613329D01*
X256177262Y-136788000D01*
X256419669Y-136921613D01*
X256596924Y-137020740D01*
X256721004Y-137091953D01*
X256803883Y-137141824D01*
X256857538Y-137176924D01*
X256893944Y-137203825D01*
X256896166Y-137205579D01*
X256958449Y-137346792D01*
X256993957Y-137643444D01*
X257002000Y-137956367D01*
X256997612Y-138292813D01*
X256979337Y-138493611D01*
X256939503Y-138592331D01*
X256870439Y-138622545D01*
X256849600Y-138623334D01*
X256675086Y-138585833D01*
X256616766Y-138550467D01*
X256511387Y-138481933D01*
X256291948Y-138355714D01*
X255994623Y-138192250D01*
X255774333Y-138074440D01*
X255420459Y-137885898D01*
X255095703Y-137710548D01*
X254847178Y-137573934D01*
X254758333Y-137523563D01*
X254574598Y-137418955D01*
X254319192Y-137277603D01*
X253974713Y-137090062D01*
X253523758Y-136846882D01*
X252948926Y-136538616D01*
X252620500Y-136362941D01*
X251752666Y-135899029D01*
X251752666Y-138534319D01*
X252006666Y-138665667D01*
X252260666Y-138797016D01*
X252260666Y-137868505D01*
X252266113Y-137490080D01*
X252280872Y-137178783D01*
X252302571Y-136970714D01*
X252324166Y-136902268D01*
X252415458Y-136928666D01*
X252629600Y-137025205D01*
X252941552Y-137179549D01*
X253326275Y-137379358D01*
X253700000Y-137580198D01*
X254184287Y-137844134D01*
X254670478Y-138108828D01*
X255116904Y-138351611D01*
X255481894Y-138549818D01*
X255647333Y-138639468D01*
X256050980Y-138858388D01*
X256499785Y-139102550D01*
X256896855Y-139319242D01*
X256898253Y-139320007D01*
X257514174Y-139656930D01*
X257490920Y-138245772D01*
X257467666Y-136834613D01*
X256959666Y-136560668D01*
X256658093Y-136398585D01*
X256269459Y-136190467D01*
X255856237Y-135969746D01*
X255647333Y-135858399D01*
X255224448Y-135632531D01*
X254771634Y-135389594D01*
X254361874Y-135168783D01*
X254208000Y-135085464D01*
X254208000Y-127532000D01*
X254716000Y-127532000D01*
X254716000Y-126516000D01*
X257594666Y-126516000D01*
X257594666Y-125923334D01*
X254716000Y-125923334D01*
X254716000Y-124907334D01*
X254250333Y-124907334D01*
X254250333Y-124314975D01*
X255922500Y-124314821D01*
X257594666Y-124314667D01*
X257594666Y-122198000D01*
X257086666Y-122198000D01*
X257086666Y-123806667D01*
X256155333Y-123806667D01*
X256155333Y-122452000D01*
X256064396Y-122452000D01*
X256064396Y-121598700D01*
X256565786Y-121488639D01*
X256996443Y-121250743D01*
X257328067Y-120897307D01*
X257417623Y-120744420D01*
X257564780Y-120286690D01*
X257588134Y-119781803D01*
X257491457Y-119289224D01*
X257300579Y-118899242D01*
X257151726Y-118695228D01*
X257059489Y-118614284D01*
X256989564Y-118636625D01*
X256942902Y-118692942D01*
X256842801Y-118923341D01*
X256876845Y-119186876D01*
X256959145Y-119373156D01*
X257074863Y-119759809D01*
X257045695Y-120150254D01*
X256892119Y-120511841D01*
X256634614Y-120811919D01*
X256293658Y-121017838D01*
X255889729Y-121096945D01*
X255877938Y-121097017D01*
X255671165Y-121075424D01*
X255488589Y-120990508D01*
X255275767Y-120812773D01*
X255179438Y-120718562D01*
X254966191Y-120490952D01*
X254851937Y-120313689D01*
X254806919Y-120127134D01*
X254800666Y-119959434D01*
X254834233Y-119643852D01*
X254917398Y-119340209D01*
X254942278Y-119282115D01*
X255029581Y-119051588D01*
X255024168Y-118873009D01*
X254982501Y-118762627D01*
X254895994Y-118615026D01*
X254809771Y-118606612D01*
X254750034Y-118648888D01*
X254542341Y-118914476D01*
X254390681Y-119289347D01*
X254303951Y-119720142D01*
X254291046Y-120153505D01*
X254360862Y-120536076D01*
X254414185Y-120663401D01*
X254614623Y-120945819D01*
X254898501Y-121219823D01*
X255211232Y-121440749D01*
X255498227Y-121563932D01*
X255520571Y-121568631D01*
X256064396Y-121598700D01*
X256064396Y-122452000D01*
X255647333Y-122452000D01*
X255647333Y-123806667D01*
X254716000Y-123806667D01*
X254716000Y-123002334D01*
X254714424Y-122629697D01*
X254704260Y-122394679D01*
X254677354Y-122265565D01*
X254625549Y-122210641D01*
X254540692Y-122198193D01*
X254509172Y-122198000D01*
X254302344Y-122198000D01*
X254276338Y-123256488D01*
X254250333Y-124314975D01*
X254250333Y-117795334D01*
X257594666Y-117795334D01*
X257594666Y-117287334D01*
X256155333Y-117287334D01*
X256155333Y-115509334D01*
X257594666Y-115509334D01*
X257594666Y-114916667D01*
X254242002Y-114916667D01*
X254276597Y-115213000D01*
X254311192Y-115509334D01*
X255647333Y-115509334D01*
X255647333Y-117287334D01*
X254250333Y-117287334D01*
X254250333Y-117795334D01*
X254250333Y-124314975D01*
X254250333Y-124907334D01*
X254208000Y-124907334D01*
X254208000Y-127532000D01*
X254208000Y-135085464D01*
X253800338Y-134864907D01*
X253343287Y-134618648D01*
X252938000Y-134401180D01*
X252303000Y-134061507D01*
X252256794Y-131202015D01*
X251898897Y-131011045D01*
X251666764Y-130886891D01*
X251338759Y-130711089D01*
X250968140Y-130512197D01*
X250766165Y-130403704D01*
X250440275Y-130231048D01*
X250171614Y-130093337D01*
X249995833Y-130008511D01*
X249995833Y-127931142D01*
X250102608Y-127885473D01*
X250339359Y-127782502D01*
X250681084Y-127633159D01*
X251102782Y-127448374D01*
X251579449Y-127239077D01*
X251689166Y-127190847D01*
X253276666Y-126492861D01*
X253276666Y-126219600D01*
X253260673Y-126050373D01*
X253185184Y-125940702D01*
X253008935Y-125846918D01*
X252874500Y-125793991D01*
X252569861Y-125671850D01*
X252207419Y-125517178D01*
X251964333Y-125408414D01*
X251649025Y-125265270D01*
X251248801Y-125085833D01*
X250833935Y-124901555D01*
X250694333Y-124840000D01*
X249932333Y-124504814D01*
X249904820Y-124713561D01*
X249933763Y-124905222D01*
X250036709Y-125099189D01*
X250171453Y-125227587D01*
X250235881Y-125246000D01*
X250340631Y-125279054D01*
X250553134Y-125365842D01*
X250828016Y-125487803D01*
X250836592Y-125491738D01*
X251204320Y-125657429D01*
X251597385Y-125829704D01*
X251847429Y-125936238D01*
X252102184Y-126054129D01*
X252282542Y-126159247D01*
X252343139Y-126218506D01*
X252327382Y-126257362D01*
X252253433Y-126314282D01*
X252104615Y-126397487D01*
X251864252Y-126515197D01*
X251515664Y-126675632D01*
X251042175Y-126887012D01*
X250525000Y-127114657D01*
X250185546Y-127287745D01*
X249985932Y-127458602D01*
X249899320Y-127654878D01*
X249890000Y-127768908D01*
X249890000Y-123806667D01*
X253276666Y-123806667D01*
X253276666Y-123298667D01*
X253276666Y-122113334D01*
X253276666Y-121605334D01*
X252006666Y-121605334D01*
X252006666Y-121321268D01*
X252023360Y-121157283D01*
X252094153Y-121021585D01*
X252250114Y-120874240D01*
X252493500Y-120695486D01*
X252852314Y-120432125D01*
X253085852Y-120226054D01*
X253215866Y-120050561D01*
X253264106Y-119878930D01*
X253261455Y-119752285D01*
X253234333Y-119492063D01*
X252619172Y-119966963D01*
X252004012Y-120441863D01*
X251796916Y-120218403D01*
X251550954Y-120029795D01*
X251550954Y-119065334D01*
X252090028Y-119013821D01*
X252516442Y-118848492D01*
X252855888Y-118553164D01*
X253134060Y-118111652D01*
X253163956Y-118049334D01*
X253250943Y-117722514D01*
X253269238Y-117311267D01*
X253221746Y-116884622D01*
X253111371Y-116511605D01*
X253098009Y-116482078D01*
X252919351Y-116102000D01*
X251583333Y-116102000D01*
X251583333Y-116652334D01*
X251589545Y-116952472D01*
X251614889Y-117119860D01*
X251669429Y-117190840D01*
X251735733Y-117202667D01*
X251951420Y-117129543D01*
X252074666Y-116934742D01*
X252091333Y-116804734D01*
X252117259Y-116671816D01*
X252227487Y-116617968D01*
X252384403Y-116610000D01*
X252575851Y-116625503D01*
X252680820Y-116703365D01*
X252752675Y-116890619D01*
X252768666Y-116948667D01*
X252811141Y-117374813D01*
X252719850Y-117764532D01*
X252519864Y-118096207D01*
X252236250Y-118348221D01*
X251894077Y-118498958D01*
X251518415Y-118526799D01*
X251134331Y-118410129D01*
X251097105Y-118390064D01*
X250850151Y-118211750D01*
X250648534Y-118000140D01*
X250611661Y-117945245D01*
X250489650Y-117609908D01*
X250470280Y-117238902D01*
X250554443Y-116905967D01*
X250598121Y-116827405D01*
X250721612Y-116543482D01*
X250700875Y-116305206D01*
X250609666Y-116186667D01*
X250472170Y-116132527D01*
X250332582Y-116212158D01*
X250177121Y-116437465D01*
X250066631Y-116655721D01*
X249915879Y-117160865D01*
X249925339Y-117666731D01*
X250088029Y-118147223D01*
X250396964Y-118576241D01*
X250637415Y-118788950D01*
X250864386Y-118944696D01*
X251065169Y-119028027D01*
X251311969Y-119060790D01*
X251550954Y-119065334D01*
X251550954Y-120029795D01*
X251456293Y-119957206D01*
X251078439Y-119841689D01*
X250698022Y-119869023D01*
X250349710Y-120036373D01*
X250068172Y-120340909D01*
X250055905Y-120360611D01*
X249968765Y-120544312D01*
X249917338Y-120773699D01*
X249894012Y-121095280D01*
X249890316Y-121372500D01*
X249890000Y-122113334D01*
X249890000Y-115001334D01*
X253276666Y-115001334D01*
X253276666Y-114493334D01*
X253276666Y-113308000D01*
X253276666Y-112800000D01*
X252006666Y-112800000D01*
X251564888Y-112796013D01*
X251190180Y-112785024D01*
X250911750Y-112768497D01*
X250758806Y-112747894D01*
X250738519Y-112736500D01*
X250804503Y-112669131D01*
X250986846Y-112520190D01*
X251263973Y-112306332D01*
X251614310Y-112044212D01*
X252008519Y-111756098D01*
X252459681Y-111427513D01*
X252790256Y-111178966D01*
X253018556Y-110993646D01*
X253162896Y-110854742D01*
X253241589Y-110745441D01*
X253272949Y-110648930D01*
X253276666Y-110591932D01*
X253276666Y-110344667D01*
X249890000Y-110344667D01*
X249890000Y-109159334D01*
X253276666Y-109159334D01*
X253276666Y-108651334D01*
X253229688Y-108651334D01*
X253229688Y-107974000D01*
X253273394Y-107904448D01*
X253276333Y-107742384D01*
X253245687Y-107557699D01*
X253188637Y-107420284D01*
X253170833Y-107401298D01*
X253054586Y-107335579D01*
X252817287Y-107220514D01*
X252493919Y-107072533D01*
X252133666Y-106914185D01*
X251742989Y-106744131D01*
X251387142Y-106586428D01*
X251107846Y-106459736D01*
X250956578Y-106387732D01*
X250710824Y-106262955D01*
X251252912Y-106020182D01*
X251597764Y-105871625D01*
X251818319Y-105798656D01*
X251941820Y-105801300D01*
X251995509Y-105879582D01*
X252006666Y-106020902D01*
X252064726Y-106253371D01*
X252259823Y-106449399D01*
X252260666Y-106450000D01*
X252514666Y-106630864D01*
X252514666Y-106038138D01*
X252520876Y-105719867D01*
X252546064Y-105531647D01*
X252600066Y-105434440D01*
X252677018Y-105393883D01*
X252972865Y-105242167D01*
X253186163Y-105021446D01*
X253276029Y-104775343D01*
X253276666Y-104754063D01*
X253276666Y-104509749D01*
X252705166Y-104764523D01*
X252354807Y-104920758D01*
X252004487Y-105077050D01*
X251752666Y-105189463D01*
X251496784Y-105303472D01*
X251148797Y-105458158D01*
X250771434Y-105625645D01*
X250652000Y-105678597D01*
X250314415Y-105831498D01*
X250103163Y-105942422D01*
X249988738Y-106035630D01*
X249941631Y-106135386D01*
X249932336Y-106265951D01*
X249932333Y-106270356D01*
X249936850Y-106374767D01*
X249965447Y-106460131D01*
X250040695Y-106541278D01*
X250185164Y-106633039D01*
X250421425Y-106750242D01*
X250772049Y-106907718D01*
X251160000Y-107076985D01*
X251617308Y-107276401D01*
X252052879Y-107467347D01*
X252427968Y-107632768D01*
X252703831Y-107755608D01*
X252785188Y-107792411D01*
X253019467Y-107895603D01*
X253184925Y-107961390D01*
X253229688Y-107974000D01*
X253229688Y-108651334D01*
X249890000Y-108651334D01*
X249890000Y-109159334D01*
X249890000Y-110344667D01*
X249890000Y-110852667D01*
X251040055Y-110852667D01*
X251547394Y-110857804D01*
X251896142Y-110873802D01*
X252096746Y-110901542D01*
X252159652Y-110941907D01*
X252158646Y-110947060D01*
X252081790Y-111025969D01*
X251890062Y-111182427D01*
X251607849Y-111397644D01*
X251259538Y-111652833D01*
X251029757Y-111816760D01*
X250618062Y-112108835D01*
X250324279Y-112324192D01*
X250127848Y-112483572D01*
X250008206Y-112607717D01*
X249944792Y-112717367D01*
X249917044Y-112833265D01*
X249906298Y-112950034D01*
X249880263Y-113308000D01*
X253276666Y-113308000D01*
X253276666Y-114493334D01*
X249890000Y-114493334D01*
X249890000Y-115001334D01*
X249890000Y-122113334D01*
X253276666Y-122113334D01*
X253276666Y-123298667D01*
X249890000Y-123298667D01*
X249890000Y-123806667D01*
X249890000Y-127768908D01*
X249924331Y-127917553D01*
X249995833Y-127931142D01*
X249995833Y-130008511D01*
X249993749Y-130007505D01*
X249940665Y-129987334D01*
X249930104Y-130069144D01*
X249920330Y-130303149D01*
X249911572Y-130672213D01*
X249904062Y-131159197D01*
X249898029Y-131746965D01*
X249893703Y-132418380D01*
X249891315Y-133156304D01*
X249890916Y-133691500D01*
X249891653Y-134624485D01*
X249894326Y-135405221D01*
X249900382Y-136050793D01*
X249911269Y-136578285D01*
X249928433Y-137004781D01*
X249953322Y-137347366D01*
X249987383Y-137623123D01*
X250032062Y-137849138D01*
X250088808Y-138042493D01*
X250159066Y-138220274D01*
X250244285Y-138399565D01*
X250298759Y-138506368D01*
X250390859Y-138670755D01*
X250498261Y-138825951D01*
X250633345Y-138980037D01*
X250808492Y-139141091D01*
X251036080Y-139317195D01*
X251328491Y-139516427D01*
X251698106Y-139746867D01*
X252157303Y-140016595D01*
X252718465Y-140333692D01*
X253393970Y-140706236D01*
X254196200Y-141142308D01*
X255012333Y-141582602D01*
X255483339Y-141838899D01*
X255820273Y-142029838D01*
X256040123Y-142166582D01*
X256159876Y-142260291D01*
X256196518Y-142322127D01*
X256182697Y-142351602D01*
X256126090Y-142394975D01*
X256015659Y-142463622D01*
X255831707Y-142568555D01*
X255554538Y-142720784D01*
X255164456Y-142931320D01*
X254716000Y-143171503D01*
X254100431Y-143500569D01*
X253604320Y-143765977D01*
X253197761Y-143983845D01*
X252850849Y-144170295D01*
X252533678Y-144341443D01*
X252216344Y-144513411D01*
X251868940Y-144702317D01*
X251461561Y-144924280D01*
X251237443Y-145046475D01*
X250940769Y-145204718D01*
X250701547Y-145325746D01*
X250557673Y-145390650D01*
X250535647Y-145396667D01*
X250511464Y-145318558D01*
X250497948Y-145110004D01*
X250496971Y-144809666D01*
X250500537Y-144671747D01*
X250525000Y-143946827D01*
X251160000Y-143607974D01*
X251540168Y-143403648D01*
X251942469Y-143185133D01*
X252283851Y-142997554D01*
X252303000Y-142986927D01*
X252633062Y-142805706D01*
X252966795Y-142625832D01*
X253178221Y-142514300D01*
X253545442Y-142323868D01*
X253262887Y-142164793D01*
X253093750Y-142069220D01*
X252809499Y-141908220D01*
X252442258Y-141700005D01*
X252024149Y-141462784D01*
X251752666Y-141308673D01*
X250525000Y-140611629D01*
X250482666Y-140098108D01*
X250435698Y-139756550D01*
X250343101Y-139504041D01*
X250175297Y-139261062D01*
X250168005Y-139252128D01*
X249895677Y-138919667D01*
X249895826Y-139935667D01*
X249895974Y-140951667D01*
X251047436Y-141587321D01*
X251442660Y-141810476D01*
X251779098Y-142009934D01*
X252031384Y-142169892D01*
X252174152Y-142274551D01*
X252196807Y-142303270D01*
X252128223Y-142395023D01*
X251964742Y-142508148D01*
X251952524Y-142514872D01*
X251783640Y-142606944D01*
X251505704Y-142759017D01*
X251158066Y-142949542D01*
X250800166Y-143145936D01*
X249890000Y-143645694D01*
X249890000Y-146427241D01*
X249890000Y-146582000D01*
X249636000Y-146582000D01*
X249636000Y-104333334D01*
X257764000Y-104333334D01*
D12*
X226450000Y-108800000D02*
X226650000Y-108800000D01*
X226050000Y-108800000D02*
X226250000Y-108800000D01*
X226450000Y-109150000D02*
X226450000Y-108450000D01*
X226250000Y-109150000D02*
X226250000Y-108450000D01*
X225850000Y-107900000D02*
X224100000Y-107900000D01*
X225850000Y-109650000D02*
X224100000Y-109650000D01*
X224100000Y-109650000D02*
X224100000Y-107900000D01*
X228600000Y-107900000D02*
X226850000Y-107900000D01*
X228600000Y-109650000D02*
X226850000Y-109650000D01*
X228600000Y-109650000D02*
X228600000Y-107900000D01*
X228450000Y-117100000D02*
X228650000Y-117100000D01*
X228050000Y-117100000D02*
X228250000Y-117100000D01*
X228450000Y-117450000D02*
X228450000Y-116750000D01*
X228250000Y-117450000D02*
X228250000Y-116750000D01*
X227850000Y-116200000D02*
X226100000Y-116200000D01*
X227850000Y-117950000D02*
X226100000Y-117950000D01*
X226100000Y-117950000D02*
X226100000Y-116200000D01*
X230600000Y-116200000D02*
X228850000Y-116200000D01*
X230600000Y-117950000D02*
X228850000Y-117950000D01*
X230600000Y-117950000D02*
X230600000Y-116200000D01*
X233200000Y-116350000D02*
X233200000Y-118100000D01*
X233200000Y-116350000D02*
X234950000Y-116350000D01*
X233200000Y-118100000D02*
X234950000Y-118100000D01*
X237700000Y-116350000D02*
X237700000Y-118100000D01*
X235950000Y-116350000D02*
X237700000Y-116350000D01*
X235950000Y-118100000D02*
X237700000Y-118100000D01*
X235550000Y-116850000D02*
X235550000Y-117550000D01*
X235350000Y-116850000D02*
X235350000Y-117550000D01*
X235750000Y-117200000D02*
X235550000Y-117200000D01*
X235350000Y-117200000D02*
X235150000Y-117200000D01*
X230400000Y-123650000D02*
X230400000Y-123850000D01*
X230400000Y-123250000D02*
X230400000Y-123450000D01*
X230050000Y-123650000D02*
X230750000Y-123650000D01*
X230050000Y-123450000D02*
X230750000Y-123450000D01*
X231300000Y-123050000D02*
X231300000Y-121300000D01*
X229550000Y-123050000D02*
X229550000Y-121300000D01*
X229550000Y-121300000D02*
X231300000Y-121300000D01*
X231300000Y-125800000D02*
X231300000Y-124050000D01*
X229550000Y-125800000D02*
X229550000Y-124050000D01*
X229550000Y-125800000D02*
X231300000Y-125800000D01*
X232900000Y-123650000D02*
X232900000Y-123850000D01*
X232900000Y-123250000D02*
X232900000Y-123450000D01*
X232550000Y-123650000D02*
X233250000Y-123650000D01*
X232550000Y-123450000D02*
X233250000Y-123450000D01*
X233800000Y-123050000D02*
X233800000Y-121300000D01*
X232050000Y-123050000D02*
X232050000Y-121300000D01*
X232050000Y-121300000D02*
X233800000Y-121300000D01*
X233800000Y-125800000D02*
X233800000Y-124050000D01*
X232050000Y-125800000D02*
X232050000Y-124050000D01*
X232050000Y-125800000D02*
X233800000Y-125800000D01*
X231400000Y-131850000D02*
X231400000Y-130100000D01*
X231400000Y-131850000D02*
X229650000Y-131850000D01*
X231400000Y-130100000D02*
X229650000Y-130100000D01*
X226900000Y-131850000D02*
X226900000Y-130100000D01*
X228650000Y-131850000D02*
X226900000Y-131850000D01*
X228650000Y-130100000D02*
X226900000Y-130100000D01*
X229050000Y-131350000D02*
X229050000Y-130650000D01*
X229250000Y-131350000D02*
X229250000Y-130650000D01*
X228850000Y-131000000D02*
X229050000Y-131000000D01*
X229250000Y-131000000D02*
X229450000Y-131000000D01*
X231900000Y-130150000D02*
X231900000Y-131900000D01*
X231900000Y-130150000D02*
X233650000Y-130150000D01*
X231900000Y-131900000D02*
X233650000Y-131900000D01*
X236400000Y-130150000D02*
X236400000Y-131900000D01*
X234650000Y-130150000D02*
X236400000Y-130150000D01*
X234650000Y-131900000D02*
X236400000Y-131900000D01*
X234250000Y-130650000D02*
X234250000Y-131350000D01*
X234050000Y-130650000D02*
X234050000Y-131350000D01*
X234450000Y-131000000D02*
X234250000Y-131000000D01*
X234050000Y-131000000D02*
X233850000Y-131000000D01*
X232050000Y-139000000D02*
X233800000Y-139000000D01*
X232050000Y-139000000D02*
X232050000Y-137250000D01*
X233800000Y-139000000D02*
X233800000Y-137250000D01*
X232050000Y-134500000D02*
X233800000Y-134500000D01*
X232050000Y-136250000D02*
X232050000Y-134500000D01*
X233800000Y-136250000D02*
X233800000Y-134500000D01*
X232550000Y-136650000D02*
X233250000Y-136650000D01*
X232550000Y-136850000D02*
X233250000Y-136850000D01*
X232900000Y-136450000D02*
X232900000Y-136650000D01*
X232900000Y-136850000D02*
X232900000Y-137050000D01*
D13*
X214257000Y-108530000D02*
X211597000Y-108530000D01*
X214257000Y-121290000D02*
X214257000Y-108530000D01*
X211597000Y-121290000D02*
X211597000Y-108530000D01*
X214257000Y-121290000D02*
X211597000Y-121290000D01*
X214257000Y-122560000D02*
X214257000Y-123890000D01*
X214257000Y-123890000D02*
X212927000Y-123890000D01*
X230090000Y-140085000D02*
X232990000Y-140085000D01*
X230090000Y-146795000D02*
X232990000Y-146795000D01*
X234895000Y-141990000D02*
X234895000Y-144890000D01*
X228185000Y-141990000D02*
X228185000Y-144890000D01*
X243500000Y-113300000D02*
G75*
G02X242800000Y-114000000I-700000J0D01*
G01*
X242200000Y-114000000D02*
G75*
G02X241500000Y-113300000I0J700000D01*
G01*
X241500000Y-111900000D02*
G75*
G02X242200000Y-111200000I700000J0D01*
G01*
X242800000Y-111200000D02*
G75*
G02X243500000Y-111900000I0J-700000D01*
G01*
X242200000Y-111200000D02*
X242800000Y-111200000D01*
X241500000Y-113300000D02*
X241500000Y-111900000D01*
X242800000Y-114000000D02*
X242200000Y-114000000D01*
X243500000Y-111900000D02*
X243500000Y-113300000D01*
X208100000Y-116150000D02*
G75*
G02X208800000Y-115450000I700000J0D01*
G01*
X209400000Y-115450000D02*
G75*
G02X210100000Y-116150000I0J-700000D01*
G01*
X210100000Y-117550000D02*
G75*
G02X209400000Y-118250000I-700000J0D01*
G01*
X208800000Y-118250000D02*
G75*
G02X208100000Y-117550000I0J700000D01*
G01*
X209400000Y-118250000D02*
X208800000Y-118250000D01*
X210100000Y-116150000D02*
X210100000Y-117550000D01*
X208800000Y-115450000D02*
X209400000Y-115450000D01*
X208100000Y-117550000D02*
X208100000Y-116150000D01*
X210100000Y-120000000D02*
X210100000Y-121400000D01*
X209400000Y-122100000D02*
X208800000Y-122100000D01*
X208100000Y-121400000D02*
X208100000Y-120000000D01*
X208800000Y-119300000D02*
X209400000Y-119300000D01*
X209400000Y-119300000D02*
G75*
G02X210100000Y-120000000I0J-700000D01*
G01*
X208100000Y-120000000D02*
G75*
G02X208800000Y-119300000I700000J0D01*
G01*
X208800000Y-122100000D02*
G75*
G02X208100000Y-121400000I0J700000D01*
G01*
X210100000Y-121400000D02*
G75*
G02X209400000Y-122100000I-700000J0D01*
G01*
X239000000Y-112875000D02*
G75*
G02X239000000Y-112675000I0J100000D01*
G01*
X239000000Y-112675000D02*
G75*
G02X239000000Y-112475000I0J100000D01*
G01*
X239000000Y-112475000D02*
G75*
G02X239000000Y-112275000I0J100000D01*
G01*
X239100000Y-112275000D02*
X239100000Y-112175000D01*
X239100000Y-112875000D02*
X239100000Y-112975000D01*
X239100000Y-112875000D02*
X239000000Y-112875000D01*
X239100000Y-112275000D02*
X239000000Y-112275000D01*
X239100000Y-112475000D02*
X239000000Y-112475000D01*
X239100000Y-112675000D02*
X239000000Y-112675000D01*
X238390000Y-112836252D02*
X238390000Y-112313748D01*
X239810000Y-112836252D02*
X239810000Y-112313748D01*
X229936252Y-119290000D02*
X229413748Y-119290000D01*
X229936252Y-120710000D02*
X229413748Y-120710000D01*
X229775000Y-120000000D02*
X229775000Y-120100000D01*
X229575000Y-120000000D02*
X229575000Y-120100000D01*
X229375000Y-120000000D02*
X229375000Y-120100000D01*
X229975000Y-120000000D02*
X229975000Y-120100000D01*
X229975000Y-120000000D02*
X230075000Y-120000000D01*
X229375000Y-120000000D02*
X229275000Y-120000000D01*
X229575000Y-120100000D02*
G75*
G02X229375000Y-120100000I-100000J0D01*
G01*
X229775000Y-120100000D02*
G75*
G02X229575000Y-120100000I-100000J0D01*
G01*
X229975000Y-120100000D02*
G75*
G02X229775000Y-120100000I-100000J0D01*
G01*
X233363748Y-120710000D02*
X233886252Y-120710000D01*
X233363748Y-119290000D02*
X233886252Y-119290000D01*
X233525000Y-120000000D02*
X233525000Y-119900000D01*
X233725000Y-120000000D02*
X233725000Y-119900000D01*
X233925000Y-120000000D02*
X233925000Y-119900000D01*
X233325000Y-120000000D02*
X233325000Y-119900000D01*
X233325000Y-120000000D02*
X233225000Y-120000000D01*
X233925000Y-120000000D02*
X234025000Y-120000000D01*
X233725000Y-119900000D02*
G75*
G02X233925000Y-119900000I100000J0D01*
G01*
X233525000Y-119900000D02*
G75*
G02X233725000Y-119900000I100000J0D01*
G01*
X233325000Y-119900000D02*
G75*
G02X233525000Y-119900000I100000J0D01*
G01*
X230500000Y-127675000D02*
G75*
G02X230500000Y-127875000I0J-100000D01*
G01*
X230500000Y-127875000D02*
G75*
G02X230500000Y-128075000I0J-100000D01*
G01*
X230500000Y-128075000D02*
G75*
G02X230500000Y-128275000I0J-100000D01*
G01*
X230400000Y-128275000D02*
X230400000Y-128375000D01*
X230400000Y-127675000D02*
X230400000Y-127575000D01*
X230400000Y-127675000D02*
X230500000Y-127675000D01*
X230400000Y-128275000D02*
X230500000Y-128275000D01*
X230400000Y-128075000D02*
X230500000Y-128075000D01*
X230400000Y-127875000D02*
X230500000Y-127875000D01*
X231110000Y-127713748D02*
X231110000Y-128236252D01*
X229690000Y-127713748D02*
X229690000Y-128236252D01*
X232190000Y-127713748D02*
X232190000Y-128236252D01*
X233610000Y-127713748D02*
X233610000Y-128236252D01*
X232900000Y-127875000D02*
X233000000Y-127875000D01*
X232900000Y-128075000D02*
X233000000Y-128075000D01*
X232900000Y-128275000D02*
X233000000Y-128275000D01*
X232900000Y-127675000D02*
X233000000Y-127675000D01*
X232900000Y-127675000D02*
X232900000Y-127575000D01*
X232900000Y-128275000D02*
X232900000Y-128375000D01*
X233000000Y-128075000D02*
G75*
G02X233000000Y-128275000I0J-100000D01*
G01*
X233000000Y-127875000D02*
G75*
G02X233000000Y-128075000I0J-100000D01*
G01*
X233000000Y-127675000D02*
G75*
G02X233000000Y-127875000I0J-100000D01*
G01*
X229690000Y-136563748D02*
X229690000Y-137086252D01*
X231110000Y-136563748D02*
X231110000Y-137086252D01*
X230400000Y-136725000D02*
X230500000Y-136725000D01*
X230400000Y-136925000D02*
X230500000Y-136925000D01*
X230400000Y-137125000D02*
X230500000Y-137125000D01*
X230400000Y-136525000D02*
X230500000Y-136525000D01*
X230400000Y-136525000D02*
X230400000Y-136425000D01*
X230400000Y-137125000D02*
X230400000Y-137225000D01*
X230500000Y-136925000D02*
G75*
G02X230500000Y-137125000I0J-100000D01*
G01*
X230500000Y-136725000D02*
G75*
G02X230500000Y-136925000I0J-100000D01*
G01*
X230500000Y-136525000D02*
G75*
G02X230500000Y-136725000I0J-100000D01*
G01*
X233625000Y-133200000D02*
G75*
G02X233825000Y-133200000I100000J0D01*
G01*
X233825000Y-133200000D02*
G75*
G02X234025000Y-133200000I100000J0D01*
G01*
X234025000Y-133200000D02*
G75*
G02X234225000Y-133200000I100000J0D01*
G01*
X234225000Y-133300000D02*
X234325000Y-133300000D01*
X233625000Y-133300000D02*
X233525000Y-133300000D01*
X233625000Y-133300000D02*
X233625000Y-133200000D01*
X234225000Y-133300000D02*
X234225000Y-133200000D01*
X234025000Y-133300000D02*
X234025000Y-133200000D01*
X233825000Y-133300000D02*
X233825000Y-133200000D01*
X233663748Y-132590000D02*
X234186252Y-132590000D01*
X233663748Y-134010000D02*
X234186252Y-134010000D01*
X229290000Y-109915000D02*
X229290000Y-109190000D01*
X229290000Y-109190000D02*
X230015000Y-109190000D01*
X234510000Y-113685000D02*
X234510000Y-114410000D01*
X234510000Y-114410000D02*
X233785000Y-114410000D01*
X234510000Y-109915000D02*
X234510000Y-109190000D01*
X234510000Y-109190000D02*
X233785000Y-109190000D01*
X229290000Y-113685000D02*
X229290000Y-114410000D01*
X220737500Y-116050000D02*
X225037500Y-116050000D01*
X225037500Y-116050000D02*
X225037500Y-110650000D01*
D10*
X222933333Y-109257142D02*
X222885714Y-109304761D01*
X222742857Y-109352380D01*
X222647619Y-109352380D01*
X222504761Y-109304761D01*
X222409523Y-109209523D01*
X222361904Y-109114285D01*
X222314285Y-108923809D01*
X222314285Y-108780952D01*
X222361904Y-108590476D01*
X222409523Y-108495238D01*
X222504761Y-108400000D01*
X222647619Y-108352380D01*
X222742857Y-108352380D01*
X222885714Y-108400000D01*
X222933333Y-108447619D01*
X223885714Y-109352380D02*
X223314285Y-109352380D01*
X223600000Y-109352380D02*
X223600000Y-108352380D01*
X223504761Y-108495238D01*
X223409523Y-108590476D01*
X223314285Y-108638095D01*
X224933333Y-117457142D02*
X224885714Y-117504761D01*
X224742857Y-117552380D01*
X224647619Y-117552380D01*
X224504761Y-117504761D01*
X224409523Y-117409523D01*
X224361904Y-117314285D01*
X224314285Y-117123809D01*
X224314285Y-116980952D01*
X224361904Y-116790476D01*
X224409523Y-116695238D01*
X224504761Y-116600000D01*
X224647619Y-116552380D01*
X224742857Y-116552380D01*
X224885714Y-116600000D01*
X224933333Y-116647619D01*
X225314285Y-116647619D02*
X225361904Y-116600000D01*
X225457142Y-116552380D01*
X225695238Y-116552380D01*
X225790476Y-116600000D01*
X225838095Y-116647619D01*
X225885714Y-116742857D01*
X225885714Y-116838095D01*
X225838095Y-116980952D01*
X225266666Y-117552380D01*
X225885714Y-117552380D01*
X238533333Y-117557142D02*
X238485714Y-117604761D01*
X238342857Y-117652380D01*
X238247619Y-117652380D01*
X238104761Y-117604761D01*
X238009523Y-117509523D01*
X237961904Y-117414285D01*
X237914285Y-117223809D01*
X237914285Y-117080952D01*
X237961904Y-116890476D01*
X238009523Y-116795238D01*
X238104761Y-116700000D01*
X238247619Y-116652380D01*
X238342857Y-116652380D01*
X238485714Y-116700000D01*
X238533333Y-116747619D01*
X238866666Y-116652380D02*
X239485714Y-116652380D01*
X239152380Y-117033333D01*
X239295238Y-117033333D01*
X239390476Y-117080952D01*
X239438095Y-117128571D01*
X239485714Y-117223809D01*
X239485714Y-117461904D01*
X239438095Y-117557142D01*
X239390476Y-117604761D01*
X239295238Y-117652380D01*
X239009523Y-117652380D01*
X238914285Y-117604761D01*
X238866666Y-117557142D01*
X229007142Y-123716666D02*
X229054761Y-123764285D01*
X229102380Y-123907142D01*
X229102380Y-124002380D01*
X229054761Y-124145238D01*
X228959523Y-124240476D01*
X228864285Y-124288095D01*
X228673809Y-124335714D01*
X228530952Y-124335714D01*
X228340476Y-124288095D01*
X228245238Y-124240476D01*
X228150000Y-124145238D01*
X228102380Y-124002380D01*
X228102380Y-123907142D01*
X228150000Y-123764285D01*
X228197619Y-123716666D01*
X228435714Y-122859523D02*
X229102380Y-122859523D01*
X228054761Y-123097619D02*
X228769047Y-123335714D01*
X228769047Y-122716666D01*
X234957142Y-123766666D02*
X235004761Y-123814285D01*
X235052380Y-123957142D01*
X235052380Y-124052380D01*
X235004761Y-124195238D01*
X234909523Y-124290476D01*
X234814285Y-124338095D01*
X234623809Y-124385714D01*
X234480952Y-124385714D01*
X234290476Y-124338095D01*
X234195238Y-124290476D01*
X234100000Y-124195238D01*
X234052380Y-124052380D01*
X234052380Y-123957142D01*
X234100000Y-123814285D01*
X234147619Y-123766666D01*
X234052380Y-122861904D02*
X234052380Y-123338095D01*
X234528571Y-123385714D01*
X234480952Y-123338095D01*
X234433333Y-123242857D01*
X234433333Y-123004761D01*
X234480952Y-122909523D01*
X234528571Y-122861904D01*
X234623809Y-122814285D01*
X234861904Y-122814285D01*
X234957142Y-122861904D01*
X235004761Y-122909523D01*
X235052380Y-123004761D01*
X235052380Y-123242857D01*
X235004761Y-123338095D01*
X234957142Y-123385714D01*
X225633333Y-131357142D02*
X225585714Y-131404761D01*
X225442857Y-131452380D01*
X225347619Y-131452380D01*
X225204761Y-131404761D01*
X225109523Y-131309523D01*
X225061904Y-131214285D01*
X225014285Y-131023809D01*
X225014285Y-130880952D01*
X225061904Y-130690476D01*
X225109523Y-130595238D01*
X225204761Y-130500000D01*
X225347619Y-130452380D01*
X225442857Y-130452380D01*
X225585714Y-130500000D01*
X225633333Y-130547619D01*
X226490476Y-130452380D02*
X226300000Y-130452380D01*
X226204761Y-130500000D01*
X226157142Y-130547619D01*
X226061904Y-130690476D01*
X226014285Y-130880952D01*
X226014285Y-131261904D01*
X226061904Y-131357142D01*
X226109523Y-131404761D01*
X226204761Y-131452380D01*
X226395238Y-131452380D01*
X226490476Y-131404761D01*
X226538095Y-131357142D01*
X226585714Y-131261904D01*
X226585714Y-131023809D01*
X226538095Y-130928571D01*
X226490476Y-130880952D01*
X226395238Y-130833333D01*
X226204761Y-130833333D01*
X226109523Y-130880952D01*
X226061904Y-130928571D01*
X226014285Y-131023809D01*
X237333333Y-131357142D02*
X237285714Y-131404761D01*
X237142857Y-131452380D01*
X237047619Y-131452380D01*
X236904761Y-131404761D01*
X236809523Y-131309523D01*
X236761904Y-131214285D01*
X236714285Y-131023809D01*
X236714285Y-130880952D01*
X236761904Y-130690476D01*
X236809523Y-130595238D01*
X236904761Y-130500000D01*
X237047619Y-130452380D01*
X237142857Y-130452380D01*
X237285714Y-130500000D01*
X237333333Y-130547619D01*
X237666666Y-130452380D02*
X238333333Y-130452380D01*
X237904761Y-131452380D01*
X234957142Y-136916666D02*
X235004761Y-136964285D01*
X235052380Y-137107142D01*
X235052380Y-137202380D01*
X235004761Y-137345238D01*
X234909523Y-137440476D01*
X234814285Y-137488095D01*
X234623809Y-137535714D01*
X234480952Y-137535714D01*
X234290476Y-137488095D01*
X234195238Y-137440476D01*
X234100000Y-137345238D01*
X234052380Y-137202380D01*
X234052380Y-137107142D01*
X234100000Y-136964285D01*
X234147619Y-136916666D01*
X234480952Y-136345238D02*
X234433333Y-136440476D01*
X234385714Y-136488095D01*
X234290476Y-136535714D01*
X234242857Y-136535714D01*
X234147619Y-136488095D01*
X234100000Y-136440476D01*
X234052380Y-136345238D01*
X234052380Y-136154761D01*
X234100000Y-136059523D01*
X234147619Y-136011904D01*
X234242857Y-135964285D01*
X234290476Y-135964285D01*
X234385714Y-136011904D01*
X234433333Y-136059523D01*
X234480952Y-136154761D01*
X234480952Y-136345238D01*
X234528571Y-136440476D01*
X234576190Y-136488095D01*
X234671428Y-136535714D01*
X234861904Y-136535714D01*
X234957142Y-136488095D01*
X235004761Y-136440476D01*
X235052380Y-136345238D01*
X235052380Y-136154761D01*
X235004761Y-136059523D01*
X234957142Y-136011904D01*
X234861904Y-135964285D01*
X234671428Y-135964285D01*
X234576190Y-136011904D01*
X234528571Y-136059523D01*
X234480952Y-136154761D01*
X212593666Y-124342380D02*
X212593666Y-125056666D01*
X212546047Y-125199523D01*
X212450809Y-125294761D01*
X212307952Y-125342380D01*
X212212714Y-125342380D01*
X213593666Y-125342380D02*
X213022238Y-125342380D01*
X213307952Y-125342380D02*
X213307952Y-124342380D01*
X213212714Y-124485238D01*
X213117476Y-124580476D01*
X213022238Y-124628095D01*
X231206666Y-138142380D02*
X231206666Y-138856666D01*
X231159047Y-138999523D01*
X231063809Y-139094761D01*
X230920952Y-139142380D01*
X230825714Y-139142380D01*
X231635238Y-138237619D02*
X231682857Y-138190000D01*
X231778095Y-138142380D01*
X232016190Y-138142380D01*
X232111428Y-138190000D01*
X232159047Y-138237619D01*
X232206666Y-138332857D01*
X232206666Y-138428095D01*
X232159047Y-138570952D01*
X231587619Y-139142380D01*
X232206666Y-139142380D01*
X243752380Y-113433333D02*
X244466666Y-113433333D01*
X244609523Y-113480952D01*
X244704761Y-113576190D01*
X244752380Y-113719047D01*
X244752380Y-113814285D01*
X244752380Y-112957142D02*
X243752380Y-112957142D01*
X243752380Y-112576190D01*
X243800000Y-112480952D01*
X243847619Y-112433333D01*
X243942857Y-112385714D01*
X244085714Y-112385714D01*
X244180952Y-112433333D01*
X244228571Y-112480952D01*
X244276190Y-112576190D01*
X244276190Y-112957142D01*
X244752380Y-111433333D02*
X244752380Y-112004761D01*
X244752380Y-111719047D02*
X243752380Y-111719047D01*
X243895238Y-111814285D01*
X243990476Y-111909523D01*
X244038095Y-112004761D01*
X206652380Y-117633333D02*
X207366666Y-117633333D01*
X207509523Y-117680952D01*
X207604761Y-117776190D01*
X207652380Y-117919047D01*
X207652380Y-118014285D01*
X207652380Y-117157142D02*
X206652380Y-117157142D01*
X206652380Y-116776190D01*
X206700000Y-116680952D01*
X206747619Y-116633333D01*
X206842857Y-116585714D01*
X206985714Y-116585714D01*
X207080952Y-116633333D01*
X207128571Y-116680952D01*
X207176190Y-116776190D01*
X207176190Y-117157142D01*
X206747619Y-116204761D02*
X206700000Y-116157142D01*
X206652380Y-116061904D01*
X206652380Y-115823809D01*
X206700000Y-115728571D01*
X206747619Y-115680952D01*
X206842857Y-115633333D01*
X206938095Y-115633333D01*
X207080952Y-115680952D01*
X207652380Y-116252380D01*
X207652380Y-115633333D01*
X206652380Y-121633333D02*
X207366666Y-121633333D01*
X207509523Y-121680952D01*
X207604761Y-121776190D01*
X207652380Y-121919047D01*
X207652380Y-122014285D01*
X207652380Y-121157142D02*
X206652380Y-121157142D01*
X206652380Y-120776190D01*
X206700000Y-120680952D01*
X206747619Y-120633333D01*
X206842857Y-120585714D01*
X206985714Y-120585714D01*
X207080952Y-120633333D01*
X207128571Y-120680952D01*
X207176190Y-120776190D01*
X207176190Y-121157142D01*
X206652380Y-120252380D02*
X206652380Y-119633333D01*
X207033333Y-119966666D01*
X207033333Y-119823809D01*
X207080952Y-119728571D01*
X207128571Y-119680952D01*
X207223809Y-119633333D01*
X207461904Y-119633333D01*
X207557142Y-119680952D01*
X207604761Y-119728571D01*
X207652380Y-119823809D01*
X207652380Y-120109523D01*
X207604761Y-120204761D01*
X207557142Y-120252380D01*
X237902380Y-112741666D02*
X237902380Y-113217857D01*
X236902380Y-113217857D01*
X237902380Y-111884523D02*
X237902380Y-112455952D01*
X237902380Y-112170238D02*
X236902380Y-112170238D01*
X237045238Y-112265476D01*
X237140476Y-112360714D01*
X237188095Y-112455952D01*
X226683333Y-120452380D02*
X226207142Y-120452380D01*
X226207142Y-119452380D01*
X226969047Y-119547619D02*
X227016666Y-119500000D01*
X227111904Y-119452380D01*
X227350000Y-119452380D01*
X227445238Y-119500000D01*
X227492857Y-119547619D01*
X227540476Y-119642857D01*
X227540476Y-119738095D01*
X227492857Y-119880952D01*
X226921428Y-120452380D01*
X227540476Y-120452380D01*
X236233333Y-120352380D02*
X235757142Y-120352380D01*
X235757142Y-119352380D01*
X236471428Y-119352380D02*
X237090476Y-119352380D01*
X236757142Y-119733333D01*
X236900000Y-119733333D01*
X236995238Y-119780952D01*
X237042857Y-119828571D01*
X237090476Y-119923809D01*
X237090476Y-120161904D01*
X237042857Y-120257142D01*
X236995238Y-120304761D01*
X236900000Y-120352380D01*
X236614285Y-120352380D01*
X236519047Y-120304761D01*
X236471428Y-120257142D01*
X229152380Y-127966666D02*
X229152380Y-128442857D01*
X228152380Y-128442857D01*
X228485714Y-127204761D02*
X229152380Y-127204761D01*
X228104761Y-127442857D02*
X228819047Y-127680952D01*
X228819047Y-127061904D01*
X235002380Y-128141666D02*
X235002380Y-128617857D01*
X234002380Y-128617857D01*
X234002380Y-127332142D02*
X234002380Y-127808333D01*
X234478571Y-127855952D01*
X234430952Y-127808333D01*
X234383333Y-127713095D01*
X234383333Y-127475000D01*
X234430952Y-127379761D01*
X234478571Y-127332142D01*
X234573809Y-127284523D01*
X234811904Y-127284523D01*
X234907142Y-127332142D01*
X234954761Y-127379761D01*
X235002380Y-127475000D01*
X235002380Y-127713095D01*
X234954761Y-127808333D01*
X234907142Y-127855952D01*
X229052380Y-136991666D02*
X229052380Y-137467857D01*
X228052380Y-137467857D01*
X228052380Y-136229761D02*
X228052380Y-136420238D01*
X228100000Y-136515476D01*
X228147619Y-136563095D01*
X228290476Y-136658333D01*
X228480952Y-136705952D01*
X228861904Y-136705952D01*
X228957142Y-136658333D01*
X229004761Y-136610714D01*
X229052380Y-136515476D01*
X229052380Y-136325000D01*
X229004761Y-136229761D01*
X228957142Y-136182142D01*
X228861904Y-136134523D01*
X228623809Y-136134523D01*
X228528571Y-136182142D01*
X228480952Y-136229761D01*
X228433333Y-136325000D01*
X228433333Y-136515476D01*
X228480952Y-136610714D01*
X228528571Y-136658333D01*
X228623809Y-136705952D01*
X236533333Y-133752380D02*
X236057142Y-133752380D01*
X236057142Y-132752380D01*
X236771428Y-132752380D02*
X237438095Y-132752380D01*
X237009523Y-133752380D01*
X227552380Y-114461904D02*
X228361904Y-114461904D01*
X228457142Y-114414285D01*
X228504761Y-114366666D01*
X228552380Y-114271428D01*
X228552380Y-114080952D01*
X228504761Y-113985714D01*
X228457142Y-113938095D01*
X228361904Y-113890476D01*
X227552380Y-113890476D01*
X228552380Y-112890476D02*
X228552380Y-113461904D01*
X228552380Y-113176190D02*
X227552380Y-113176190D01*
X227695238Y-113271428D01*
X227790476Y-113366666D01*
X227838095Y-113461904D01*
X219913690Y-113826190D02*
X220389880Y-113826190D01*
X219389880Y-114159523D02*
X219913690Y-113826190D01*
X219389880Y-113492857D01*
X220389880Y-112635714D02*
X220389880Y-113207142D01*
X220389880Y-112921428D02*
X219389880Y-112921428D01*
X219532738Y-113016666D01*
X219627976Y-113111904D01*
X219675595Y-113207142D01*
M02*
