G04 #@! TF.GenerationSoftware,KiCad,Pcbnew,(5.1.0)-1*
G04 #@! TF.CreationDate,2019-06-07T11:38:14-04:00*
G04 #@! TF.ProjectId,PiHat_AX5043_JZK,50694861-745f-4415-9835-3034335f4a5a,rev?*
G04 #@! TF.SameCoordinates,Original*
G04 #@! TF.FileFunction,Copper,L2,Inr*
G04 #@! TF.FilePolarity,Positive*
%FSLAX46Y46*%
G04 Gerber Fmt 4.6, Leading zero omitted, Abs format (unit mm)*
G04 Created by KiCad (PCBNEW (5.1.0)-1) date 2019-06-07 11:38:14*
%MOMM*%
%LPD*%
G04 APERTURE LIST*
%ADD10O,3.000000X1.700000*%
%ADD11R,3.000000X1.700000*%
%ADD12C,2.250000*%
%ADD13C,2.050000*%
%ADD14O,1.700000X1.700000*%
%ADD15R,1.700000X1.700000*%
%ADD16C,0.500000*%
%ADD17C,0.900000*%
%ADD18C,0.254000*%
G04 APERTURE END LIST*
D10*
X212800000Y-117480000D03*
X213054000Y-109860000D03*
X213054000Y-114940000D03*
X212800000Y-112400000D03*
D11*
X212800000Y-122560000D03*
D10*
X213054000Y-120020000D03*
D12*
X229000000Y-145980000D03*
X229000000Y-140900000D03*
X234080000Y-140900000D03*
X234080000Y-145980000D03*
D13*
X231540000Y-143440000D03*
D14*
X256630000Y-101183000D03*
X256630000Y-98643000D03*
X210910000Y-98643000D03*
X246470000Y-98643000D03*
X221070000Y-98643000D03*
X226150000Y-101183000D03*
X231230000Y-101183000D03*
X218530000Y-98897000D03*
X251550000Y-101183000D03*
X246470000Y-101183000D03*
X231230000Y-98643000D03*
X236310000Y-98643000D03*
X238850000Y-101437000D03*
X208370000Y-101437000D03*
X241390000Y-98643000D03*
X243930000Y-98897000D03*
X254090000Y-101437000D03*
X254090000Y-98897000D03*
X233770000Y-101437000D03*
X251550000Y-98643000D03*
D15*
X208370000Y-98897000D03*
D14*
X223610000Y-101437000D03*
X249010000Y-98897000D03*
X213450000Y-98897000D03*
X218530000Y-101437000D03*
X210910000Y-101183000D03*
X223610000Y-98897000D03*
X236310000Y-101183000D03*
X226150000Y-98643000D03*
X249010000Y-101437000D03*
X238850000Y-98897000D03*
X243930000Y-101437000D03*
X228690000Y-98897000D03*
X233770000Y-98897000D03*
X215990000Y-98643000D03*
X228690000Y-101437000D03*
X241390000Y-101183000D03*
X213450000Y-101437000D03*
X221070000Y-101183000D03*
X215990000Y-101183000D03*
D16*
X230900000Y-112800000D03*
X230900000Y-111800000D03*
X230900000Y-110800000D03*
X231900000Y-112800000D03*
X231900000Y-111800000D03*
X231900000Y-110800000D03*
X232900000Y-112800000D03*
X232900000Y-111800000D03*
X232900000Y-110800000D03*
D17*
X227910500Y-110189500D03*
X227200000Y-111400000D03*
X220422000Y-108222000D03*
X219577000Y-107377000D03*
X226791470Y-112421327D03*
X237000000Y-111523000D03*
X223876691Y-104925342D03*
X231300000Y-107200000D03*
X220100000Y-102900000D03*
X232422182Y-106622182D03*
X230000000Y-102800000D03*
X235000000Y-107500000D03*
X235000000Y-102900000D03*
X237000000Y-110422997D03*
X224621359Y-104115728D03*
X235800000Y-110100000D03*
X225700000Y-103900000D03*
X236300000Y-108800000D03*
X236300000Y-103000000D03*
X232600000Y-102800000D03*
X233200000Y-107400000D03*
D18*
G36*
X262449016Y-94732312D02*
G01*
X262880930Y-94862714D01*
X263279285Y-95074524D01*
X263628914Y-95359675D01*
X263916497Y-95707303D01*
X264131086Y-96104177D01*
X264264498Y-96535161D01*
X264315001Y-97015663D01*
X264315000Y-146966495D01*
X264267688Y-147449016D01*
X264137287Y-147880927D01*
X263925480Y-148279280D01*
X263640325Y-148628914D01*
X263292697Y-148916497D01*
X262895825Y-149131085D01*
X262464834Y-149264500D01*
X261984346Y-149315000D01*
X203033504Y-149315000D01*
X202550984Y-149267688D01*
X202119073Y-149137287D01*
X201720720Y-148925480D01*
X201371086Y-148640325D01*
X201083503Y-148292697D01*
X200868915Y-147895825D01*
X200735500Y-147464834D01*
X200685000Y-146984346D01*
X200685000Y-146304495D01*
X201515000Y-146304495D01*
X201515000Y-146695505D01*
X201591282Y-147079003D01*
X201740915Y-147440250D01*
X201958149Y-147765364D01*
X202234636Y-148041851D01*
X202559750Y-148259085D01*
X202920997Y-148408718D01*
X203304495Y-148485000D01*
X203695505Y-148485000D01*
X204079003Y-148408718D01*
X204440250Y-148259085D01*
X204765364Y-148041851D01*
X205041851Y-147765364D01*
X205259085Y-147440250D01*
X205356722Y-147204531D01*
X227955074Y-147204531D01*
X228065921Y-147481714D01*
X228376840Y-147635089D01*
X228711705Y-147724860D01*
X229057650Y-147747576D01*
X229401380Y-147702366D01*
X229729685Y-147590966D01*
X229934079Y-147481714D01*
X230044926Y-147204531D01*
X233035074Y-147204531D01*
X233145921Y-147481714D01*
X233456840Y-147635089D01*
X233791705Y-147724860D01*
X234137650Y-147747576D01*
X234481380Y-147702366D01*
X234809685Y-147590966D01*
X235014079Y-147481714D01*
X235124926Y-147204531D01*
X234080000Y-146159605D01*
X233035074Y-147204531D01*
X230044926Y-147204531D01*
X229000000Y-146159605D01*
X227955074Y-147204531D01*
X205356722Y-147204531D01*
X205408718Y-147079003D01*
X205485000Y-146695505D01*
X205485000Y-146304495D01*
X205431922Y-146037650D01*
X227232424Y-146037650D01*
X227277634Y-146381380D01*
X227389034Y-146709685D01*
X227498286Y-146914079D01*
X227775469Y-147024926D01*
X228820395Y-145980000D01*
X229179605Y-145980000D01*
X230224531Y-147024926D01*
X230501714Y-146914079D01*
X230655089Y-146603160D01*
X230744860Y-146268295D01*
X230760004Y-146037650D01*
X232312424Y-146037650D01*
X232357634Y-146381380D01*
X232469034Y-146709685D01*
X232578286Y-146914079D01*
X232855469Y-147024926D01*
X233900395Y-145980000D01*
X234259605Y-145980000D01*
X235304531Y-147024926D01*
X235581714Y-146914079D01*
X235735089Y-146603160D01*
X235824860Y-146268295D01*
X235840267Y-146033646D01*
X243315000Y-146033646D01*
X243318366Y-146067821D01*
X243318366Y-146080806D01*
X243319366Y-146090318D01*
X243341121Y-146284268D01*
X243354025Y-146344976D01*
X243366089Y-146405901D01*
X243368917Y-146415038D01*
X243427930Y-146601068D01*
X243452377Y-146658105D01*
X243476046Y-146715531D01*
X243480595Y-146723944D01*
X243574617Y-146894969D01*
X243609692Y-146946194D01*
X243644050Y-146997906D01*
X243650146Y-147005276D01*
X243775596Y-147154782D01*
X243819974Y-147198240D01*
X243863703Y-147242275D01*
X243871109Y-147248315D01*
X243871113Y-147248319D01*
X243871115Y-147248320D01*
X244023214Y-147370611D01*
X244075139Y-147404589D01*
X244126632Y-147439322D01*
X244135077Y-147443812D01*
X244308033Y-147534232D01*
X244365590Y-147557487D01*
X244422835Y-147581550D01*
X244431991Y-147584315D01*
X244619217Y-147639418D01*
X244680218Y-147651054D01*
X244741015Y-147663534D01*
X244750533Y-147664468D01*
X244944895Y-147682157D01*
X245006986Y-147681723D01*
X245069066Y-147682156D01*
X245078585Y-147681223D01*
X245272682Y-147660822D01*
X245333496Y-147648339D01*
X245394481Y-147636705D01*
X245403637Y-147633941D01*
X245590075Y-147576229D01*
X245647279Y-147552182D01*
X245704873Y-147528913D01*
X245713317Y-147524423D01*
X245884994Y-147431598D01*
X245936468Y-147396878D01*
X245988418Y-147362883D01*
X245995829Y-147356839D01*
X246146207Y-147232435D01*
X246189973Y-147188362D01*
X246234311Y-147144943D01*
X246240408Y-147137574D01*
X246363758Y-146986332D01*
X246398126Y-146934603D01*
X246433191Y-146883392D01*
X246437739Y-146874981D01*
X246437740Y-146874980D01*
X246437742Y-146874976D01*
X246529366Y-146702657D01*
X246553022Y-146645261D01*
X246577482Y-146588193D01*
X246580310Y-146579056D01*
X246636719Y-146392220D01*
X246648780Y-146331310D01*
X246654479Y-146304495D01*
X259515000Y-146304495D01*
X259515000Y-146695505D01*
X259591282Y-147079003D01*
X259740915Y-147440250D01*
X259958149Y-147765364D01*
X260234636Y-148041851D01*
X260559750Y-148259085D01*
X260920997Y-148408718D01*
X261304495Y-148485000D01*
X261695505Y-148485000D01*
X262079003Y-148408718D01*
X262440250Y-148259085D01*
X262765364Y-148041851D01*
X263041851Y-147765364D01*
X263259085Y-147440250D01*
X263408718Y-147079003D01*
X263485000Y-146695505D01*
X263485000Y-146304495D01*
X263408718Y-145920997D01*
X263259085Y-145559750D01*
X263041851Y-145234636D01*
X262765364Y-144958149D01*
X262440250Y-144740915D01*
X262079003Y-144591282D01*
X261695505Y-144515000D01*
X261304495Y-144515000D01*
X260920997Y-144591282D01*
X260559750Y-144740915D01*
X260234636Y-144958149D01*
X259958149Y-145234636D01*
X259740915Y-145559750D01*
X259591282Y-145920997D01*
X259515000Y-146304495D01*
X246654479Y-146304495D01*
X246661686Y-146270591D01*
X246662686Y-146261079D01*
X246681731Y-146066845D01*
X246681731Y-146066837D01*
X246685000Y-146033647D01*
X246685000Y-130966353D01*
X246681633Y-130932169D01*
X246681633Y-130919193D01*
X246680634Y-130909681D01*
X246658879Y-130715732D01*
X246645975Y-130655024D01*
X246633911Y-130594099D01*
X246631083Y-130584962D01*
X246572070Y-130398932D01*
X246547618Y-130341882D01*
X246523954Y-130284470D01*
X246519405Y-130276056D01*
X246425383Y-130105031D01*
X246390310Y-130053809D01*
X246355951Y-130002094D01*
X246349854Y-129994724D01*
X246224404Y-129845218D01*
X246180046Y-129801779D01*
X246136297Y-129757724D01*
X246128885Y-129751679D01*
X245976785Y-129629389D01*
X245924845Y-129595401D01*
X245873367Y-129560678D01*
X245864923Y-129556187D01*
X245691967Y-129465768D01*
X245634410Y-129442513D01*
X245577165Y-129418450D01*
X245568009Y-129415685D01*
X245380783Y-129360582D01*
X245319775Y-129348945D01*
X245258985Y-129336466D01*
X245249466Y-129335532D01*
X245055105Y-129317843D01*
X244992981Y-129318277D01*
X244930933Y-129317844D01*
X244921426Y-129318776D01*
X244921419Y-129318776D01*
X244921413Y-129318777D01*
X244727318Y-129339178D01*
X244666504Y-129351661D01*
X244605519Y-129363295D01*
X244596363Y-129366059D01*
X244409925Y-129423771D01*
X244352692Y-129447830D01*
X244295127Y-129471087D01*
X244286682Y-129475577D01*
X244115006Y-129568402D01*
X244063532Y-129603122D01*
X244011582Y-129637117D01*
X244004170Y-129643162D01*
X243853793Y-129767565D01*
X243810027Y-129811638D01*
X243765689Y-129855057D01*
X243759592Y-129862426D01*
X243636242Y-130013668D01*
X243601881Y-130065386D01*
X243566809Y-130116607D01*
X243562260Y-130125020D01*
X243470635Y-130297343D01*
X243446978Y-130354739D01*
X243422519Y-130411807D01*
X243419690Y-130420943D01*
X243363281Y-130607780D01*
X243351219Y-130668698D01*
X243338314Y-130729410D01*
X243337314Y-130738922D01*
X243318269Y-130933155D01*
X243318269Y-130933173D01*
X243315001Y-130966353D01*
X243315000Y-146033646D01*
X235840267Y-146033646D01*
X235847576Y-145922350D01*
X235802366Y-145578620D01*
X235690966Y-145250315D01*
X235581714Y-145045921D01*
X235304531Y-144935074D01*
X234259605Y-145980000D01*
X233900395Y-145980000D01*
X232855469Y-144935074D01*
X232578286Y-145045921D01*
X232424911Y-145356840D01*
X232335140Y-145691705D01*
X232312424Y-146037650D01*
X230760004Y-146037650D01*
X230767576Y-145922350D01*
X230722366Y-145578620D01*
X230610966Y-145250315D01*
X230501714Y-145045921D01*
X230224531Y-144935074D01*
X229179605Y-145980000D01*
X228820395Y-145980000D01*
X227775469Y-144935074D01*
X227498286Y-145045921D01*
X227344911Y-145356840D01*
X227255140Y-145691705D01*
X227232424Y-146037650D01*
X205431922Y-146037650D01*
X205408718Y-145920997D01*
X205259085Y-145559750D01*
X205041851Y-145234636D01*
X204765364Y-144958149D01*
X204462032Y-144755469D01*
X227955074Y-144755469D01*
X229000000Y-145800395D01*
X230044926Y-144755469D01*
X229934079Y-144478286D01*
X229623160Y-144324911D01*
X229288295Y-144235140D01*
X228942350Y-144212424D01*
X228598620Y-144257634D01*
X228270315Y-144369034D01*
X228065921Y-144478286D01*
X227955074Y-144755469D01*
X204462032Y-144755469D01*
X204440250Y-144740915D01*
X204079003Y-144591282D01*
X203695505Y-144515000D01*
X203304495Y-144515000D01*
X202920997Y-144591282D01*
X202559750Y-144740915D01*
X202234636Y-144958149D01*
X201958149Y-145234636D01*
X201740915Y-145559750D01*
X201591282Y-145920997D01*
X201515000Y-146304495D01*
X200685000Y-146304495D01*
X200685000Y-143276504D01*
X229880000Y-143276504D01*
X229880000Y-143603496D01*
X229943793Y-143924204D01*
X230068927Y-144226305D01*
X230250594Y-144498188D01*
X230481812Y-144729406D01*
X230753695Y-144911073D01*
X231055796Y-145036207D01*
X231376504Y-145100000D01*
X231703496Y-145100000D01*
X232024204Y-145036207D01*
X232326305Y-144911073D01*
X232559182Y-144755469D01*
X233035074Y-144755469D01*
X234080000Y-145800395D01*
X235124926Y-144755469D01*
X235014079Y-144478286D01*
X234703160Y-144324911D01*
X234368295Y-144235140D01*
X234022350Y-144212424D01*
X233678620Y-144257634D01*
X233350315Y-144369034D01*
X233145921Y-144478286D01*
X233035074Y-144755469D01*
X232559182Y-144755469D01*
X232598188Y-144729406D01*
X232829406Y-144498188D01*
X233011073Y-144226305D01*
X233136207Y-143924204D01*
X233200000Y-143603496D01*
X233200000Y-143276504D01*
X233136207Y-142955796D01*
X233011073Y-142653695D01*
X232829406Y-142381812D01*
X232598188Y-142150594D01*
X232559183Y-142124531D01*
X233035074Y-142124531D01*
X233145921Y-142401714D01*
X233456840Y-142555089D01*
X233791705Y-142644860D01*
X234137650Y-142667576D01*
X234481380Y-142622366D01*
X234809685Y-142510966D01*
X235014079Y-142401714D01*
X235124926Y-142124531D01*
X234080000Y-141079605D01*
X233035074Y-142124531D01*
X232559183Y-142124531D01*
X232326305Y-141968927D01*
X232024204Y-141843793D01*
X231703496Y-141780000D01*
X231376504Y-141780000D01*
X231055796Y-141843793D01*
X230753695Y-141968927D01*
X230481812Y-142150594D01*
X230250594Y-142381812D01*
X230068927Y-142653695D01*
X229943793Y-142955796D01*
X229880000Y-143276504D01*
X200685000Y-143276504D01*
X200685000Y-142124531D01*
X227955074Y-142124531D01*
X228065921Y-142401714D01*
X228376840Y-142555089D01*
X228711705Y-142644860D01*
X229057650Y-142667576D01*
X229401380Y-142622366D01*
X229729685Y-142510966D01*
X229934079Y-142401714D01*
X230044926Y-142124531D01*
X229000000Y-141079605D01*
X227955074Y-142124531D01*
X200685000Y-142124531D01*
X200685000Y-140957650D01*
X227232424Y-140957650D01*
X227277634Y-141301380D01*
X227389034Y-141629685D01*
X227498286Y-141834079D01*
X227775469Y-141944926D01*
X228820395Y-140900000D01*
X229179605Y-140900000D01*
X230224531Y-141944926D01*
X230501714Y-141834079D01*
X230655089Y-141523160D01*
X230744860Y-141188295D01*
X230760004Y-140957650D01*
X232312424Y-140957650D01*
X232357634Y-141301380D01*
X232469034Y-141629685D01*
X232578286Y-141834079D01*
X232855469Y-141944926D01*
X233900395Y-140900000D01*
X234259605Y-140900000D01*
X235304531Y-141944926D01*
X235581714Y-141834079D01*
X235735089Y-141523160D01*
X235824860Y-141188295D01*
X235847576Y-140842350D01*
X235802366Y-140498620D01*
X235690966Y-140170315D01*
X235581714Y-139965921D01*
X235304531Y-139855074D01*
X234259605Y-140900000D01*
X233900395Y-140900000D01*
X232855469Y-139855074D01*
X232578286Y-139965921D01*
X232424911Y-140276840D01*
X232335140Y-140611705D01*
X232312424Y-140957650D01*
X230760004Y-140957650D01*
X230767576Y-140842350D01*
X230722366Y-140498620D01*
X230610966Y-140170315D01*
X230501714Y-139965921D01*
X230224531Y-139855074D01*
X229179605Y-140900000D01*
X228820395Y-140900000D01*
X227775469Y-139855074D01*
X227498286Y-139965921D01*
X227344911Y-140276840D01*
X227255140Y-140611705D01*
X227232424Y-140957650D01*
X200685000Y-140957650D01*
X200685000Y-139675469D01*
X227955074Y-139675469D01*
X229000000Y-140720395D01*
X230044926Y-139675469D01*
X233035074Y-139675469D01*
X234080000Y-140720395D01*
X235124926Y-139675469D01*
X235014079Y-139398286D01*
X234703160Y-139244911D01*
X234368295Y-139155140D01*
X234022350Y-139132424D01*
X233678620Y-139177634D01*
X233350315Y-139289034D01*
X233145921Y-139398286D01*
X233035074Y-139675469D01*
X230044926Y-139675469D01*
X229934079Y-139398286D01*
X229623160Y-139244911D01*
X229288295Y-139155140D01*
X228942350Y-139132424D01*
X228598620Y-139177634D01*
X228270315Y-139289034D01*
X228065921Y-139398286D01*
X227955074Y-139675469D01*
X200685000Y-139675469D01*
X200685000Y-131185000D01*
X204533647Y-131185000D01*
X204562601Y-131182148D01*
X204565573Y-131182169D01*
X204575092Y-131181236D01*
X204623218Y-131176178D01*
X204634283Y-131175088D01*
X204634652Y-131174976D01*
X204672140Y-131171036D01*
X204732990Y-131158545D01*
X204793942Y-131146918D01*
X204803096Y-131144155D01*
X204803102Y-131144153D01*
X204896317Y-131115298D01*
X204953533Y-131091246D01*
X205011119Y-131067980D01*
X205019564Y-131063490D01*
X205105401Y-131017077D01*
X205156867Y-130982362D01*
X205208821Y-130948364D01*
X205216232Y-130942320D01*
X205291421Y-130880118D01*
X205335162Y-130836070D01*
X205379522Y-130792631D01*
X205385618Y-130785261D01*
X205385623Y-130785256D01*
X205385627Y-130785250D01*
X205447294Y-130709640D01*
X205481632Y-130657959D01*
X205516733Y-130606694D01*
X205521282Y-130598281D01*
X205567094Y-130512120D01*
X205590758Y-130454704D01*
X205615208Y-130397661D01*
X205618036Y-130388525D01*
X205646241Y-130295107D01*
X205658303Y-130234187D01*
X205671209Y-130173470D01*
X205672209Y-130163958D01*
X205681731Y-130066841D01*
X205681731Y-130066837D01*
X205685000Y-130033647D01*
X205685000Y-113966353D01*
X205682148Y-113937399D01*
X205682169Y-113934427D01*
X205681236Y-113924909D01*
X205676179Y-113876790D01*
X205675088Y-113865717D01*
X205674976Y-113865348D01*
X205671036Y-113827860D01*
X205658547Y-113767017D01*
X205646918Y-113706058D01*
X205644154Y-113696902D01*
X205615298Y-113603683D01*
X205591232Y-113546434D01*
X205567979Y-113488881D01*
X205563489Y-113480436D01*
X205517077Y-113394598D01*
X205482350Y-113343115D01*
X205448364Y-113291179D01*
X205442320Y-113283767D01*
X205380118Y-113208579D01*
X205336051Y-113164818D01*
X205292630Y-113120478D01*
X205285261Y-113114381D01*
X205209640Y-113052706D01*
X205157959Y-113018368D01*
X205106694Y-112983267D01*
X205098281Y-112978718D01*
X205012120Y-112932906D01*
X204954704Y-112909242D01*
X204897661Y-112884792D01*
X204888525Y-112881964D01*
X204795107Y-112853759D01*
X204734195Y-112841698D01*
X204673471Y-112828791D01*
X204663959Y-112827791D01*
X204566841Y-112818269D01*
X204566837Y-112818269D01*
X204533647Y-112815000D01*
X200685000Y-112815000D01*
X200685000Y-112400000D01*
X210657815Y-112400000D01*
X210686487Y-112691111D01*
X210771401Y-112971034D01*
X210909294Y-113229014D01*
X211094866Y-113455134D01*
X211320986Y-113640706D01*
X211518036Y-113746031D01*
X211348866Y-113884866D01*
X211163294Y-114110986D01*
X211025401Y-114368966D01*
X210940487Y-114648889D01*
X210911815Y-114940000D01*
X210940487Y-115231111D01*
X211025401Y-115511034D01*
X211163294Y-115769014D01*
X211348866Y-115995134D01*
X211518036Y-116133969D01*
X211320986Y-116239294D01*
X211094866Y-116424866D01*
X210909294Y-116650986D01*
X210771401Y-116908966D01*
X210686487Y-117188889D01*
X210657815Y-117480000D01*
X210686487Y-117771111D01*
X210771401Y-118051034D01*
X210909294Y-118309014D01*
X211094866Y-118535134D01*
X211320986Y-118720706D01*
X211518036Y-118826031D01*
X211348866Y-118964866D01*
X211163294Y-119190986D01*
X211025401Y-119448966D01*
X210940487Y-119728889D01*
X210911815Y-120020000D01*
X210940487Y-120311111D01*
X211025401Y-120591034D01*
X211163294Y-120849014D01*
X211346235Y-121071928D01*
X211300000Y-121071928D01*
X211175518Y-121084188D01*
X211055820Y-121120498D01*
X210945506Y-121179463D01*
X210848815Y-121258815D01*
X210769463Y-121355506D01*
X210710498Y-121465820D01*
X210674188Y-121585518D01*
X210661928Y-121710000D01*
X210661928Y-123410000D01*
X210674188Y-123534482D01*
X210710498Y-123654180D01*
X210769463Y-123764494D01*
X210848815Y-123861185D01*
X210945506Y-123940537D01*
X211055820Y-123999502D01*
X211175518Y-124035812D01*
X211300000Y-124048072D01*
X214300000Y-124048072D01*
X214424482Y-124035812D01*
X214544180Y-123999502D01*
X214654494Y-123940537D01*
X214751185Y-123861185D01*
X214830537Y-123764494D01*
X214889502Y-123654180D01*
X214925812Y-123534482D01*
X214938072Y-123410000D01*
X214938072Y-121710000D01*
X214925812Y-121585518D01*
X214889502Y-121465820D01*
X214830537Y-121355506D01*
X214751185Y-121258815D01*
X214654494Y-121179463D01*
X214640877Y-121172185D01*
X214759134Y-121075134D01*
X214944706Y-120849014D01*
X215082599Y-120591034D01*
X215167513Y-120311111D01*
X215196185Y-120020000D01*
X215167513Y-119728889D01*
X215082599Y-119448966D01*
X214944706Y-119190986D01*
X214759134Y-118964866D01*
X214533014Y-118779294D01*
X214335964Y-118673969D01*
X214505134Y-118535134D01*
X214690706Y-118309014D01*
X214828599Y-118051034D01*
X214913513Y-117771111D01*
X214942185Y-117480000D01*
X214913513Y-117188889D01*
X214828599Y-116908966D01*
X214690706Y-116650986D01*
X214505134Y-116424866D01*
X214335964Y-116286031D01*
X214533014Y-116180706D01*
X214759134Y-115995134D01*
X214944706Y-115769014D01*
X215082599Y-115511034D01*
X215167513Y-115231111D01*
X215196185Y-114940000D01*
X215167513Y-114648889D01*
X215082599Y-114368966D01*
X214944706Y-114110986D01*
X214759134Y-113884866D01*
X214533014Y-113699294D01*
X214335964Y-113593969D01*
X214505134Y-113455134D01*
X214690706Y-113229014D01*
X214828599Y-112971034D01*
X214913513Y-112691111D01*
X214942185Y-112400000D01*
X214933761Y-112314464D01*
X225706470Y-112314464D01*
X225706470Y-112528190D01*
X225748166Y-112737810D01*
X225829955Y-112935267D01*
X225948695Y-113112974D01*
X226099823Y-113264102D01*
X226277530Y-113382842D01*
X226474987Y-113464631D01*
X226684607Y-113506327D01*
X226898333Y-113506327D01*
X227107953Y-113464631D01*
X227305410Y-113382842D01*
X227483117Y-113264102D01*
X227634245Y-113112974D01*
X227752985Y-112935267D01*
X227834774Y-112737810D01*
X227876470Y-112528190D01*
X227876470Y-112314464D01*
X227865664Y-112260137D01*
X227891647Y-112242775D01*
X228042775Y-112091647D01*
X228161515Y-111913940D01*
X228243304Y-111716483D01*
X228285000Y-111506863D01*
X228285000Y-111293137D01*
X228269496Y-111215195D01*
X228424440Y-111151015D01*
X228602147Y-111032275D01*
X228753275Y-110881147D01*
X228864960Y-110713998D01*
X230014887Y-110713998D01*
X230015116Y-110888328D01*
X230049351Y-111059264D01*
X230115173Y-111218174D01*
X230222755Y-111220479D01*
X230181813Y-111261421D01*
X230220392Y-111300000D01*
X230181813Y-111338579D01*
X230222755Y-111379521D01*
X230115173Y-111381826D01*
X230048672Y-111542974D01*
X230014887Y-111713998D01*
X230015116Y-111888328D01*
X230049351Y-112059264D01*
X230115173Y-112218174D01*
X230222755Y-112220479D01*
X230181813Y-112261421D01*
X230220392Y-112300000D01*
X230181813Y-112338579D01*
X230222755Y-112379521D01*
X230115173Y-112381826D01*
X230048672Y-112542974D01*
X230014887Y-112713998D01*
X230015116Y-112888328D01*
X230049351Y-113059264D01*
X230115173Y-113218174D01*
X230303836Y-113222216D01*
X230726052Y-112800000D01*
X230709081Y-112783029D01*
X230808152Y-112683958D01*
X230813998Y-112685113D01*
X230988328Y-112684884D01*
X230992032Y-112684142D01*
X231016042Y-112708152D01*
X231014887Y-112713998D01*
X231015116Y-112888328D01*
X231015858Y-112892032D01*
X230916971Y-112990919D01*
X230900000Y-112973948D01*
X230477784Y-113396164D01*
X230481826Y-113584827D01*
X230642974Y-113651328D01*
X230813998Y-113685113D01*
X230988328Y-113684884D01*
X231159264Y-113650649D01*
X231318174Y-113584827D01*
X231320479Y-113477245D01*
X231361421Y-113518187D01*
X231400000Y-113479608D01*
X231438579Y-113518187D01*
X231479521Y-113477245D01*
X231481826Y-113584827D01*
X231642974Y-113651328D01*
X231813998Y-113685113D01*
X231988328Y-113684884D01*
X232159264Y-113650649D01*
X232318174Y-113584827D01*
X232320479Y-113477245D01*
X232361421Y-113518187D01*
X232400000Y-113479608D01*
X232438579Y-113518187D01*
X232479521Y-113477245D01*
X232481826Y-113584827D01*
X232642974Y-113651328D01*
X232813998Y-113685113D01*
X232988328Y-113684884D01*
X233159264Y-113650649D01*
X233318174Y-113584827D01*
X233322216Y-113396164D01*
X232900000Y-112973948D01*
X232883029Y-112990919D01*
X232783958Y-112891848D01*
X232785113Y-112886002D01*
X232784884Y-112711672D01*
X232784142Y-112707968D01*
X232808152Y-112683958D01*
X232813998Y-112685113D01*
X232988328Y-112684884D01*
X232992032Y-112684142D01*
X233090919Y-112783029D01*
X233073948Y-112800000D01*
X233496164Y-113222216D01*
X233684827Y-113218174D01*
X233751328Y-113057026D01*
X233785113Y-112886002D01*
X233784884Y-112711672D01*
X233750649Y-112540736D01*
X233684827Y-112381826D01*
X233577245Y-112379521D01*
X233618187Y-112338579D01*
X233579608Y-112300000D01*
X233618187Y-112261421D01*
X233577245Y-112220479D01*
X233684827Y-112218174D01*
X233751328Y-112057026D01*
X233785113Y-111886002D01*
X233784884Y-111711672D01*
X233750649Y-111540736D01*
X233684827Y-111381826D01*
X233577245Y-111379521D01*
X233618187Y-111338579D01*
X233579608Y-111300000D01*
X233618187Y-111261421D01*
X233577245Y-111220479D01*
X233684827Y-111218174D01*
X233751328Y-111057026D01*
X233785113Y-110886002D01*
X233784884Y-110711672D01*
X233750649Y-110540736D01*
X233684827Y-110381826D01*
X233496164Y-110377784D01*
X233073948Y-110800000D01*
X233090919Y-110816971D01*
X232991848Y-110916042D01*
X232986002Y-110914887D01*
X232811672Y-110915116D01*
X232807968Y-110915858D01*
X232783958Y-110891848D01*
X232785113Y-110886002D01*
X232784884Y-110711672D01*
X232784142Y-110707968D01*
X232883029Y-110609081D01*
X232900000Y-110626052D01*
X233322216Y-110203836D01*
X233318174Y-110015173D01*
X233157026Y-109948672D01*
X232986002Y-109914887D01*
X232811672Y-109915116D01*
X232640736Y-109949351D01*
X232481826Y-110015173D01*
X232479521Y-110122755D01*
X232438579Y-110081813D01*
X232400000Y-110120392D01*
X232361421Y-110081813D01*
X232320479Y-110122755D01*
X232318174Y-110015173D01*
X232157026Y-109948672D01*
X231986002Y-109914887D01*
X231811672Y-109915116D01*
X231640736Y-109949351D01*
X231481826Y-110015173D01*
X231479521Y-110122755D01*
X231438579Y-110081813D01*
X231400000Y-110120392D01*
X231361421Y-110081813D01*
X231320479Y-110122755D01*
X231318174Y-110015173D01*
X231157026Y-109948672D01*
X230986002Y-109914887D01*
X230811672Y-109915116D01*
X230640736Y-109949351D01*
X230481826Y-110015173D01*
X230477784Y-110203836D01*
X230900000Y-110626052D01*
X230916971Y-110609081D01*
X231016042Y-110708152D01*
X231014887Y-110713998D01*
X231015116Y-110888328D01*
X231015858Y-110892032D01*
X230991848Y-110916042D01*
X230986002Y-110914887D01*
X230811672Y-110915116D01*
X230807968Y-110915858D01*
X230709081Y-110816971D01*
X230726052Y-110800000D01*
X230303836Y-110377784D01*
X230115173Y-110381826D01*
X230048672Y-110542974D01*
X230014887Y-110713998D01*
X228864960Y-110713998D01*
X228872015Y-110703440D01*
X228953804Y-110505983D01*
X228995500Y-110296363D01*
X228995500Y-110082637D01*
X228953804Y-109873017D01*
X228872015Y-109675560D01*
X228753275Y-109497853D01*
X228602147Y-109346725D01*
X228424440Y-109227985D01*
X228226983Y-109146196D01*
X228017363Y-109104500D01*
X227803637Y-109104500D01*
X227594017Y-109146196D01*
X227396560Y-109227985D01*
X227218853Y-109346725D01*
X227067725Y-109497853D01*
X226948985Y-109675560D01*
X226867196Y-109873017D01*
X226825500Y-110082637D01*
X226825500Y-110296363D01*
X226841004Y-110374305D01*
X226686060Y-110438485D01*
X226508353Y-110557225D01*
X226357225Y-110708353D01*
X226238485Y-110886060D01*
X226156696Y-111083517D01*
X226115000Y-111293137D01*
X226115000Y-111506863D01*
X226125806Y-111561190D01*
X226099823Y-111578552D01*
X225948695Y-111729680D01*
X225829955Y-111907387D01*
X225748166Y-112104844D01*
X225706470Y-112314464D01*
X214933761Y-112314464D01*
X214913513Y-112108889D01*
X214828599Y-111828966D01*
X214690706Y-111570986D01*
X214505134Y-111344866D01*
X214334939Y-111205190D01*
X214389618Y-111183361D01*
X214634619Y-111024176D01*
X214843857Y-110820252D01*
X215009291Y-110579426D01*
X215124563Y-110310953D01*
X215145476Y-110216890D01*
X215024155Y-109987000D01*
X213181000Y-109987000D01*
X213181000Y-110007000D01*
X212927000Y-110007000D01*
X212927000Y-109987000D01*
X211083845Y-109987000D01*
X210962524Y-110216890D01*
X210983437Y-110310953D01*
X211098709Y-110579426D01*
X211264143Y-110820252D01*
X211473381Y-111024176D01*
X211518694Y-111053617D01*
X211320986Y-111159294D01*
X211094866Y-111344866D01*
X210909294Y-111570986D01*
X210771401Y-111828966D01*
X210686487Y-112108889D01*
X210657815Y-112400000D01*
X200685000Y-112400000D01*
X200685000Y-109503110D01*
X210962524Y-109503110D01*
X211083845Y-109733000D01*
X212927000Y-109733000D01*
X212927000Y-109713000D01*
X213181000Y-109713000D01*
X213181000Y-109733000D01*
X215024155Y-109733000D01*
X215145476Y-109503110D01*
X215124563Y-109409047D01*
X215009291Y-109140574D01*
X214843857Y-108899748D01*
X214634619Y-108695824D01*
X214389618Y-108536639D01*
X214118269Y-108428310D01*
X213831000Y-108375000D01*
X212277000Y-108375000D01*
X211989731Y-108428310D01*
X211718382Y-108536639D01*
X211473381Y-108695824D01*
X211264143Y-108899748D01*
X211098709Y-109140574D01*
X210983437Y-109409047D01*
X210962524Y-109503110D01*
X200685000Y-109503110D01*
X200685000Y-107270137D01*
X218492000Y-107270137D01*
X218492000Y-107483863D01*
X218533696Y-107693483D01*
X218615485Y-107890940D01*
X218734225Y-108068647D01*
X218885353Y-108219775D01*
X219063060Y-108338515D01*
X219260517Y-108420304D01*
X219359089Y-108439911D01*
X219378696Y-108538483D01*
X219460485Y-108735940D01*
X219579225Y-108913647D01*
X219730353Y-109064775D01*
X219908060Y-109183515D01*
X220105517Y-109265304D01*
X220315137Y-109307000D01*
X220528863Y-109307000D01*
X220738483Y-109265304D01*
X220935940Y-109183515D01*
X221113647Y-109064775D01*
X221264775Y-108913647D01*
X221383515Y-108735940D01*
X221465304Y-108538483D01*
X221507000Y-108328863D01*
X221507000Y-108115137D01*
X221465304Y-107905517D01*
X221383515Y-107708060D01*
X221264775Y-107530353D01*
X221113647Y-107379225D01*
X220935940Y-107260485D01*
X220738483Y-107178696D01*
X220639911Y-107159089D01*
X220626793Y-107093137D01*
X230215000Y-107093137D01*
X230215000Y-107306863D01*
X230256696Y-107516483D01*
X230338485Y-107713940D01*
X230457225Y-107891647D01*
X230608353Y-108042775D01*
X230786060Y-108161515D01*
X230983517Y-108243304D01*
X231193137Y-108285000D01*
X231406863Y-108285000D01*
X231616483Y-108243304D01*
X231813940Y-108161515D01*
X231991647Y-108042775D01*
X232142775Y-107891647D01*
X232196158Y-107811753D01*
X232238485Y-107913940D01*
X232357225Y-108091647D01*
X232508353Y-108242775D01*
X232686060Y-108361515D01*
X232883517Y-108443304D01*
X233093137Y-108485000D01*
X233306863Y-108485000D01*
X233516483Y-108443304D01*
X233713940Y-108361515D01*
X233891647Y-108242775D01*
X234042775Y-108091647D01*
X234066591Y-108056004D01*
X234157225Y-108191647D01*
X234308353Y-108342775D01*
X234486060Y-108461515D01*
X234683517Y-108543304D01*
X234893137Y-108585000D01*
X235106863Y-108585000D01*
X235241851Y-108558149D01*
X235215000Y-108693137D01*
X235215000Y-108906863D01*
X235256696Y-109116483D01*
X235270199Y-109149083D01*
X235108353Y-109257225D01*
X234957225Y-109408353D01*
X234838485Y-109586060D01*
X234756696Y-109783517D01*
X234715000Y-109993137D01*
X234715000Y-110206863D01*
X234756696Y-110416483D01*
X234838485Y-110613940D01*
X234957225Y-110791647D01*
X235108353Y-110942775D01*
X235286060Y-111061515D01*
X235483517Y-111143304D01*
X235693137Y-111185000D01*
X235906863Y-111185000D01*
X235970883Y-111172266D01*
X235956696Y-111206517D01*
X235915000Y-111416137D01*
X235915000Y-111629863D01*
X235956696Y-111839483D01*
X236038485Y-112036940D01*
X236157225Y-112214647D01*
X236308353Y-112365775D01*
X236486060Y-112484515D01*
X236683517Y-112566304D01*
X236893137Y-112608000D01*
X237106863Y-112608000D01*
X237316483Y-112566304D01*
X237513940Y-112484515D01*
X237691647Y-112365775D01*
X237842775Y-112214647D01*
X237961515Y-112036940D01*
X238043304Y-111839483D01*
X238085000Y-111629863D01*
X238085000Y-111416137D01*
X238043304Y-111206517D01*
X237961515Y-111009060D01*
X237937419Y-110972999D01*
X237961515Y-110936937D01*
X238043304Y-110739480D01*
X238085000Y-110529860D01*
X238085000Y-110316134D01*
X238043304Y-110106514D01*
X237961515Y-109909057D01*
X237842775Y-109731350D01*
X237691647Y-109580222D01*
X237513940Y-109461482D01*
X237316483Y-109379693D01*
X237229183Y-109362328D01*
X237261515Y-109313940D01*
X237343304Y-109116483D01*
X237385000Y-108906863D01*
X237385000Y-108693137D01*
X237343304Y-108483517D01*
X237261515Y-108286060D01*
X237142775Y-108108353D01*
X236991647Y-107957225D01*
X236813940Y-107838485D01*
X236616483Y-107756696D01*
X236406863Y-107715000D01*
X236193137Y-107715000D01*
X236058149Y-107741851D01*
X236085000Y-107606863D01*
X236085000Y-107393137D01*
X236043304Y-107183517D01*
X235961515Y-106986060D01*
X235842775Y-106808353D01*
X235691647Y-106657225D01*
X235513940Y-106538485D01*
X235316483Y-106456696D01*
X235106863Y-106415000D01*
X234893137Y-106415000D01*
X234683517Y-106456696D01*
X234486060Y-106538485D01*
X234308353Y-106657225D01*
X234157225Y-106808353D01*
X234133409Y-106843996D01*
X234042775Y-106708353D01*
X233891647Y-106557225D01*
X233713940Y-106438485D01*
X233516483Y-106356696D01*
X233473947Y-106348235D01*
X233465486Y-106305699D01*
X233383697Y-106108242D01*
X233264957Y-105930535D01*
X233113829Y-105779407D01*
X232936122Y-105660667D01*
X232738665Y-105578878D01*
X232529045Y-105537182D01*
X232315319Y-105537182D01*
X232105699Y-105578878D01*
X231908242Y-105660667D01*
X231730535Y-105779407D01*
X231579407Y-105930535D01*
X231460667Y-106108242D01*
X231453985Y-106124373D01*
X231406863Y-106115000D01*
X231193137Y-106115000D01*
X230983517Y-106156696D01*
X230786060Y-106238485D01*
X230608353Y-106357225D01*
X230457225Y-106508353D01*
X230338485Y-106686060D01*
X230256696Y-106883517D01*
X230215000Y-107093137D01*
X220626793Y-107093137D01*
X220620304Y-107060517D01*
X220538515Y-106863060D01*
X220419775Y-106685353D01*
X220268647Y-106534225D01*
X220090940Y-106415485D01*
X219893483Y-106333696D01*
X219683863Y-106292000D01*
X219470137Y-106292000D01*
X219260517Y-106333696D01*
X219063060Y-106415485D01*
X218885353Y-106534225D01*
X218734225Y-106685353D01*
X218615485Y-106863060D01*
X218533696Y-107060517D01*
X218492000Y-107270137D01*
X200685000Y-107270137D01*
X200685000Y-104818479D01*
X222791691Y-104818479D01*
X222791691Y-105032205D01*
X222833387Y-105241825D01*
X222915176Y-105439282D01*
X223033916Y-105616989D01*
X223185044Y-105768117D01*
X223362751Y-105886857D01*
X223560208Y-105968646D01*
X223769828Y-106010342D01*
X223983554Y-106010342D01*
X224193174Y-105968646D01*
X224390631Y-105886857D01*
X224568338Y-105768117D01*
X224719466Y-105616989D01*
X224838206Y-105439282D01*
X224919995Y-105241825D01*
X224936407Y-105159317D01*
X224937842Y-105159032D01*
X225135299Y-105077243D01*
X225313006Y-104958503D01*
X225344405Y-104927104D01*
X225383517Y-104943304D01*
X225593137Y-104985000D01*
X225806863Y-104985000D01*
X226016483Y-104943304D01*
X226213940Y-104861515D01*
X226391647Y-104742775D01*
X226542775Y-104591647D01*
X226661515Y-104413940D01*
X226743304Y-104216483D01*
X226785000Y-104006863D01*
X226785000Y-103793137D01*
X226743304Y-103583517D01*
X226661515Y-103386060D01*
X226542775Y-103208353D01*
X226391647Y-103057225D01*
X226213940Y-102938485D01*
X226016483Y-102856696D01*
X225806863Y-102815000D01*
X225593137Y-102815000D01*
X225383517Y-102856696D01*
X225186060Y-102938485D01*
X225008353Y-103057225D01*
X224976954Y-103088624D01*
X224937842Y-103072424D01*
X224728222Y-103030728D01*
X224514496Y-103030728D01*
X224304876Y-103072424D01*
X224107419Y-103154213D01*
X223929712Y-103272953D01*
X223778584Y-103424081D01*
X223659844Y-103601788D01*
X223578055Y-103799245D01*
X223561643Y-103881753D01*
X223560208Y-103882038D01*
X223362751Y-103963827D01*
X223185044Y-104082567D01*
X223033916Y-104233695D01*
X222915176Y-104411402D01*
X222833387Y-104608859D01*
X222791691Y-104818479D01*
X200685000Y-104818479D01*
X200685000Y-101437000D01*
X206877815Y-101437000D01*
X206906487Y-101728111D01*
X206991401Y-102008034D01*
X207129294Y-102266014D01*
X207314866Y-102492134D01*
X207540986Y-102677706D01*
X207798966Y-102815599D01*
X208078889Y-102900513D01*
X208297050Y-102922000D01*
X208442950Y-102922000D01*
X208661111Y-102900513D01*
X208941034Y-102815599D01*
X209199014Y-102677706D01*
X209425134Y-102492134D01*
X209610706Y-102266014D01*
X209716031Y-102068964D01*
X209854866Y-102238134D01*
X210080986Y-102423706D01*
X210338966Y-102561599D01*
X210618889Y-102646513D01*
X210837050Y-102668000D01*
X210982950Y-102668000D01*
X211201111Y-102646513D01*
X211481034Y-102561599D01*
X211739014Y-102423706D01*
X211965134Y-102238134D01*
X212105454Y-102067154D01*
X212105843Y-102068252D01*
X212254822Y-102318355D01*
X212449731Y-102534588D01*
X212683080Y-102708641D01*
X212945901Y-102833825D01*
X213093110Y-102878476D01*
X213323000Y-102757155D01*
X213323000Y-101564000D01*
X213303000Y-101564000D01*
X213303000Y-101310000D01*
X213323000Y-101310000D01*
X213323000Y-101290000D01*
X213577000Y-101290000D01*
X213577000Y-101310000D01*
X213597000Y-101310000D01*
X213597000Y-101564000D01*
X213577000Y-101564000D01*
X213577000Y-102757155D01*
X213806890Y-102878476D01*
X213954099Y-102833825D01*
X214216920Y-102708641D01*
X214450269Y-102534588D01*
X214645178Y-102318355D01*
X214794157Y-102068252D01*
X214794546Y-102067154D01*
X214934866Y-102238134D01*
X215160986Y-102423706D01*
X215418966Y-102561599D01*
X215698889Y-102646513D01*
X215917050Y-102668000D01*
X216062950Y-102668000D01*
X216281111Y-102646513D01*
X216561034Y-102561599D01*
X216819014Y-102423706D01*
X217045134Y-102238134D01*
X217183969Y-102068964D01*
X217289294Y-102266014D01*
X217474866Y-102492134D01*
X217700986Y-102677706D01*
X217958966Y-102815599D01*
X218238889Y-102900513D01*
X218457050Y-102922000D01*
X218602950Y-102922000D01*
X218821111Y-102900513D01*
X219015000Y-102841697D01*
X219015000Y-103006863D01*
X219056696Y-103216483D01*
X219138485Y-103413940D01*
X219257225Y-103591647D01*
X219408353Y-103742775D01*
X219586060Y-103861515D01*
X219783517Y-103943304D01*
X219993137Y-103985000D01*
X220206863Y-103985000D01*
X220416483Y-103943304D01*
X220613940Y-103861515D01*
X220791647Y-103742775D01*
X220942775Y-103591647D01*
X221061515Y-103413940D01*
X221143304Y-103216483D01*
X221185000Y-103006863D01*
X221185000Y-102793137D01*
X221159779Y-102666342D01*
X221361111Y-102646513D01*
X221641034Y-102561599D01*
X221899014Y-102423706D01*
X222125134Y-102238134D01*
X222265454Y-102067154D01*
X222265843Y-102068252D01*
X222414822Y-102318355D01*
X222609731Y-102534588D01*
X222843080Y-102708641D01*
X223105901Y-102833825D01*
X223253110Y-102878476D01*
X223483000Y-102757155D01*
X223483000Y-101564000D01*
X223463000Y-101564000D01*
X223463000Y-101310000D01*
X223483000Y-101310000D01*
X223483000Y-101290000D01*
X223737000Y-101290000D01*
X223737000Y-101310000D01*
X223757000Y-101310000D01*
X223757000Y-101564000D01*
X223737000Y-101564000D01*
X223737000Y-102757155D01*
X223966890Y-102878476D01*
X224114099Y-102833825D01*
X224376920Y-102708641D01*
X224610269Y-102534588D01*
X224805178Y-102318355D01*
X224954157Y-102068252D01*
X224954546Y-102067154D01*
X225094866Y-102238134D01*
X225320986Y-102423706D01*
X225578966Y-102561599D01*
X225858889Y-102646513D01*
X226077050Y-102668000D01*
X226222950Y-102668000D01*
X226441111Y-102646513D01*
X226721034Y-102561599D01*
X226979014Y-102423706D01*
X227205134Y-102238134D01*
X227343969Y-102068964D01*
X227449294Y-102266014D01*
X227634866Y-102492134D01*
X227860986Y-102677706D01*
X228118966Y-102815599D01*
X228398889Y-102900513D01*
X228617050Y-102922000D01*
X228762950Y-102922000D01*
X228915031Y-102907021D01*
X228956696Y-103116483D01*
X229038485Y-103313940D01*
X229157225Y-103491647D01*
X229308353Y-103642775D01*
X229486060Y-103761515D01*
X229683517Y-103843304D01*
X229893137Y-103885000D01*
X230106863Y-103885000D01*
X230316483Y-103843304D01*
X230513940Y-103761515D01*
X230691647Y-103642775D01*
X230842775Y-103491647D01*
X230961515Y-103313940D01*
X231043304Y-103116483D01*
X231085000Y-102906863D01*
X231085000Y-102693137D01*
X231052510Y-102529800D01*
X231103000Y-102503155D01*
X231103000Y-101310000D01*
X231083000Y-101310000D01*
X231083000Y-101056000D01*
X231103000Y-101056000D01*
X231103000Y-101036000D01*
X231357000Y-101036000D01*
X231357000Y-101056000D01*
X231377000Y-101056000D01*
X231377000Y-101310000D01*
X231357000Y-101310000D01*
X231357000Y-102503155D01*
X231534190Y-102596664D01*
X231515000Y-102693137D01*
X231515000Y-102906863D01*
X231556696Y-103116483D01*
X231638485Y-103313940D01*
X231757225Y-103491647D01*
X231908353Y-103642775D01*
X232086060Y-103761515D01*
X232283517Y-103843304D01*
X232493137Y-103885000D01*
X232706863Y-103885000D01*
X232916483Y-103843304D01*
X233113940Y-103761515D01*
X233291647Y-103642775D01*
X233442775Y-103491647D01*
X233561515Y-103313940D01*
X233643304Y-103116483D01*
X233682278Y-102920545D01*
X233697050Y-102922000D01*
X233842950Y-102922000D01*
X233915000Y-102914904D01*
X233915000Y-103006863D01*
X233956696Y-103216483D01*
X234038485Y-103413940D01*
X234157225Y-103591647D01*
X234308353Y-103742775D01*
X234486060Y-103861515D01*
X234683517Y-103943304D01*
X234893137Y-103985000D01*
X235106863Y-103985000D01*
X235316483Y-103943304D01*
X235513940Y-103861515D01*
X235581770Y-103816192D01*
X235608353Y-103842775D01*
X235786060Y-103961515D01*
X235983517Y-104043304D01*
X236193137Y-104085000D01*
X236406863Y-104085000D01*
X236616483Y-104043304D01*
X236813940Y-103961515D01*
X236991647Y-103842775D01*
X237142775Y-103691647D01*
X237261515Y-103513940D01*
X237343304Y-103316483D01*
X237385000Y-103106863D01*
X237385000Y-102893137D01*
X237343304Y-102683517D01*
X237261515Y-102486060D01*
X237191222Y-102380860D01*
X237365134Y-102238134D01*
X237503969Y-102068964D01*
X237609294Y-102266014D01*
X237794866Y-102492134D01*
X238020986Y-102677706D01*
X238278966Y-102815599D01*
X238558889Y-102900513D01*
X238777050Y-102922000D01*
X238922950Y-102922000D01*
X239141111Y-102900513D01*
X239421034Y-102815599D01*
X239679014Y-102677706D01*
X239905134Y-102492134D01*
X240090706Y-102266014D01*
X240196031Y-102068964D01*
X240334866Y-102238134D01*
X240560986Y-102423706D01*
X240818966Y-102561599D01*
X241098889Y-102646513D01*
X241317050Y-102668000D01*
X241462950Y-102668000D01*
X241681111Y-102646513D01*
X241961034Y-102561599D01*
X242219014Y-102423706D01*
X242445134Y-102238134D01*
X242585454Y-102067154D01*
X242585843Y-102068252D01*
X242734822Y-102318355D01*
X242929731Y-102534588D01*
X243163080Y-102708641D01*
X243425901Y-102833825D01*
X243573110Y-102878476D01*
X243803000Y-102757155D01*
X243803000Y-101564000D01*
X243783000Y-101564000D01*
X243783000Y-101310000D01*
X243803000Y-101310000D01*
X243803000Y-101290000D01*
X244057000Y-101290000D01*
X244057000Y-101310000D01*
X244077000Y-101310000D01*
X244077000Y-101564000D01*
X244057000Y-101564000D01*
X244057000Y-102757155D01*
X244286890Y-102878476D01*
X244434099Y-102833825D01*
X244696920Y-102708641D01*
X244930269Y-102534588D01*
X245125178Y-102318355D01*
X245274157Y-102068252D01*
X245274546Y-102067154D01*
X245414866Y-102238134D01*
X245640986Y-102423706D01*
X245898966Y-102561599D01*
X246178889Y-102646513D01*
X246397050Y-102668000D01*
X246542950Y-102668000D01*
X246761111Y-102646513D01*
X247041034Y-102561599D01*
X247299014Y-102423706D01*
X247525134Y-102238134D01*
X247665454Y-102067154D01*
X247665843Y-102068252D01*
X247814822Y-102318355D01*
X248009731Y-102534588D01*
X248243080Y-102708641D01*
X248505901Y-102833825D01*
X248653110Y-102878476D01*
X248883000Y-102757155D01*
X248883000Y-101564000D01*
X248863000Y-101564000D01*
X248863000Y-101310000D01*
X248883000Y-101310000D01*
X248883000Y-101290000D01*
X249137000Y-101290000D01*
X249137000Y-101310000D01*
X249157000Y-101310000D01*
X249157000Y-101564000D01*
X249137000Y-101564000D01*
X249137000Y-102757155D01*
X249366890Y-102878476D01*
X249514099Y-102833825D01*
X249776920Y-102708641D01*
X250010269Y-102534588D01*
X250205178Y-102318355D01*
X250354157Y-102068252D01*
X250354546Y-102067154D01*
X250494866Y-102238134D01*
X250720986Y-102423706D01*
X250978966Y-102561599D01*
X251258889Y-102646513D01*
X251477050Y-102668000D01*
X251622950Y-102668000D01*
X251841111Y-102646513D01*
X252121034Y-102561599D01*
X252379014Y-102423706D01*
X252605134Y-102238134D01*
X252743969Y-102068964D01*
X252849294Y-102266014D01*
X253034866Y-102492134D01*
X253260986Y-102677706D01*
X253518966Y-102815599D01*
X253798889Y-102900513D01*
X254017050Y-102922000D01*
X254162950Y-102922000D01*
X254381111Y-102900513D01*
X254661034Y-102815599D01*
X254919014Y-102677706D01*
X255145134Y-102492134D01*
X255330706Y-102266014D01*
X255436031Y-102068964D01*
X255574866Y-102238134D01*
X255800986Y-102423706D01*
X256058966Y-102561599D01*
X256338889Y-102646513D01*
X256557050Y-102668000D01*
X256702950Y-102668000D01*
X256921111Y-102646513D01*
X257201034Y-102561599D01*
X257459014Y-102423706D01*
X257685134Y-102238134D01*
X257870706Y-102012014D01*
X258008599Y-101754034D01*
X258093513Y-101474111D01*
X258122185Y-101183000D01*
X258093513Y-100891889D01*
X258008599Y-100611966D01*
X257870706Y-100353986D01*
X257685134Y-100127866D01*
X257459014Y-99942294D01*
X257401244Y-99911416D01*
X257630269Y-99740588D01*
X257825178Y-99524355D01*
X257974157Y-99274252D01*
X258071481Y-98999891D01*
X257950814Y-98770000D01*
X256757000Y-98770000D01*
X256757000Y-98790000D01*
X256503000Y-98790000D01*
X256503000Y-98770000D01*
X256483000Y-98770000D01*
X256483000Y-98516000D01*
X256503000Y-98516000D01*
X256503000Y-97322845D01*
X256757000Y-97322845D01*
X256757000Y-98516000D01*
X257950814Y-98516000D01*
X258071481Y-98286109D01*
X257974157Y-98011748D01*
X257825178Y-97761645D01*
X257630269Y-97545412D01*
X257396920Y-97371359D01*
X257256541Y-97304495D01*
X259515000Y-97304495D01*
X259515000Y-97695505D01*
X259591282Y-98079003D01*
X259740915Y-98440250D01*
X259958149Y-98765364D01*
X260234636Y-99041851D01*
X260559750Y-99259085D01*
X260920997Y-99408718D01*
X261304495Y-99485000D01*
X261695505Y-99485000D01*
X262079003Y-99408718D01*
X262440250Y-99259085D01*
X262765364Y-99041851D01*
X263041851Y-98765364D01*
X263259085Y-98440250D01*
X263408718Y-98079003D01*
X263485000Y-97695505D01*
X263485000Y-97304495D01*
X263408718Y-96920997D01*
X263259085Y-96559750D01*
X263041851Y-96234636D01*
X262765364Y-95958149D01*
X262440250Y-95740915D01*
X262079003Y-95591282D01*
X261695505Y-95515000D01*
X261304495Y-95515000D01*
X260920997Y-95591282D01*
X260559750Y-95740915D01*
X260234636Y-95958149D01*
X259958149Y-96234636D01*
X259740915Y-96559750D01*
X259591282Y-96920997D01*
X259515000Y-97304495D01*
X257256541Y-97304495D01*
X257134099Y-97246175D01*
X256986890Y-97201524D01*
X256757000Y-97322845D01*
X256503000Y-97322845D01*
X256273110Y-97201524D01*
X256125901Y-97246175D01*
X255863080Y-97371359D01*
X255629731Y-97545412D01*
X255434822Y-97761645D01*
X255285843Y-98011748D01*
X255285454Y-98012846D01*
X255145134Y-97841866D01*
X254919014Y-97656294D01*
X254661034Y-97518401D01*
X254381111Y-97433487D01*
X254162950Y-97412000D01*
X254017050Y-97412000D01*
X253798889Y-97433487D01*
X253518966Y-97518401D01*
X253260986Y-97656294D01*
X253034866Y-97841866D01*
X252896031Y-98011036D01*
X252790706Y-97813986D01*
X252605134Y-97587866D01*
X252379014Y-97402294D01*
X252121034Y-97264401D01*
X251841111Y-97179487D01*
X251622950Y-97158000D01*
X251477050Y-97158000D01*
X251258889Y-97179487D01*
X250978966Y-97264401D01*
X250720986Y-97402294D01*
X250494866Y-97587866D01*
X250309294Y-97813986D01*
X250203969Y-98011036D01*
X250065134Y-97841866D01*
X249839014Y-97656294D01*
X249581034Y-97518401D01*
X249301111Y-97433487D01*
X249082950Y-97412000D01*
X248937050Y-97412000D01*
X248718889Y-97433487D01*
X248438966Y-97518401D01*
X248180986Y-97656294D01*
X247954866Y-97841866D01*
X247816031Y-98011036D01*
X247710706Y-97813986D01*
X247525134Y-97587866D01*
X247299014Y-97402294D01*
X247041034Y-97264401D01*
X246761111Y-97179487D01*
X246542950Y-97158000D01*
X246397050Y-97158000D01*
X246178889Y-97179487D01*
X245898966Y-97264401D01*
X245640986Y-97402294D01*
X245414866Y-97587866D01*
X245229294Y-97813986D01*
X245123969Y-98011036D01*
X244985134Y-97841866D01*
X244759014Y-97656294D01*
X244501034Y-97518401D01*
X244221111Y-97433487D01*
X244002950Y-97412000D01*
X243857050Y-97412000D01*
X243638889Y-97433487D01*
X243358966Y-97518401D01*
X243100986Y-97656294D01*
X242874866Y-97841866D01*
X242736031Y-98011036D01*
X242630706Y-97813986D01*
X242445134Y-97587866D01*
X242219014Y-97402294D01*
X241961034Y-97264401D01*
X241681111Y-97179487D01*
X241462950Y-97158000D01*
X241317050Y-97158000D01*
X241098889Y-97179487D01*
X240818966Y-97264401D01*
X240560986Y-97402294D01*
X240334866Y-97587866D01*
X240149294Y-97813986D01*
X240042872Y-98013087D01*
X239850269Y-97799412D01*
X239616920Y-97625359D01*
X239354099Y-97500175D01*
X239206890Y-97455524D01*
X238977000Y-97576845D01*
X238977000Y-98770000D01*
X238997000Y-98770000D01*
X238997000Y-99024000D01*
X238977000Y-99024000D01*
X238977000Y-99044000D01*
X238723000Y-99044000D01*
X238723000Y-99024000D01*
X238703000Y-99024000D01*
X238703000Y-98770000D01*
X238723000Y-98770000D01*
X238723000Y-97576845D01*
X238493110Y-97455524D01*
X238345901Y-97500175D01*
X238083080Y-97625359D01*
X237849731Y-97799412D01*
X237657128Y-98013087D01*
X237550706Y-97813986D01*
X237365134Y-97587866D01*
X237139014Y-97402294D01*
X236881034Y-97264401D01*
X236601111Y-97179487D01*
X236382950Y-97158000D01*
X236237050Y-97158000D01*
X236018889Y-97179487D01*
X235738966Y-97264401D01*
X235480986Y-97402294D01*
X235254866Y-97587866D01*
X235069294Y-97813986D01*
X234963969Y-98011036D01*
X234825134Y-97841866D01*
X234599014Y-97656294D01*
X234341034Y-97518401D01*
X234061111Y-97433487D01*
X233842950Y-97412000D01*
X233697050Y-97412000D01*
X233478889Y-97433487D01*
X233198966Y-97518401D01*
X232940986Y-97656294D01*
X232714866Y-97841866D01*
X232576031Y-98011036D01*
X232470706Y-97813986D01*
X232285134Y-97587866D01*
X232059014Y-97402294D01*
X231801034Y-97264401D01*
X231521111Y-97179487D01*
X231302950Y-97158000D01*
X231157050Y-97158000D01*
X230938889Y-97179487D01*
X230658966Y-97264401D01*
X230400986Y-97402294D01*
X230174866Y-97587866D01*
X229989294Y-97813986D01*
X229883969Y-98011036D01*
X229745134Y-97841866D01*
X229519014Y-97656294D01*
X229261034Y-97518401D01*
X228981111Y-97433487D01*
X228762950Y-97412000D01*
X228617050Y-97412000D01*
X228398889Y-97433487D01*
X228118966Y-97518401D01*
X227860986Y-97656294D01*
X227634866Y-97841866D01*
X227496031Y-98011036D01*
X227390706Y-97813986D01*
X227205134Y-97587866D01*
X226979014Y-97402294D01*
X226721034Y-97264401D01*
X226441111Y-97179487D01*
X226222950Y-97158000D01*
X226077050Y-97158000D01*
X225858889Y-97179487D01*
X225578966Y-97264401D01*
X225320986Y-97402294D01*
X225094866Y-97587866D01*
X224909294Y-97813986D01*
X224803969Y-98011036D01*
X224665134Y-97841866D01*
X224439014Y-97656294D01*
X224181034Y-97518401D01*
X223901111Y-97433487D01*
X223682950Y-97412000D01*
X223537050Y-97412000D01*
X223318889Y-97433487D01*
X223038966Y-97518401D01*
X222780986Y-97656294D01*
X222554866Y-97841866D01*
X222416031Y-98011036D01*
X222310706Y-97813986D01*
X222125134Y-97587866D01*
X221899014Y-97402294D01*
X221641034Y-97264401D01*
X221361111Y-97179487D01*
X221142950Y-97158000D01*
X220997050Y-97158000D01*
X220778889Y-97179487D01*
X220498966Y-97264401D01*
X220240986Y-97402294D01*
X220014866Y-97587866D01*
X219829294Y-97813986D01*
X219722872Y-98013087D01*
X219530269Y-97799412D01*
X219296920Y-97625359D01*
X219034099Y-97500175D01*
X218886890Y-97455524D01*
X218657000Y-97576845D01*
X218657000Y-98770000D01*
X218677000Y-98770000D01*
X218677000Y-99024000D01*
X218657000Y-99024000D01*
X218657000Y-99044000D01*
X218403000Y-99044000D01*
X218403000Y-99024000D01*
X218383000Y-99024000D01*
X218383000Y-98770000D01*
X218403000Y-98770000D01*
X218403000Y-97576845D01*
X218173110Y-97455524D01*
X218025901Y-97500175D01*
X217763080Y-97625359D01*
X217529731Y-97799412D01*
X217337128Y-98013087D01*
X217230706Y-97813986D01*
X217045134Y-97587866D01*
X216819014Y-97402294D01*
X216561034Y-97264401D01*
X216281111Y-97179487D01*
X216062950Y-97158000D01*
X215917050Y-97158000D01*
X215698889Y-97179487D01*
X215418966Y-97264401D01*
X215160986Y-97402294D01*
X214934866Y-97587866D01*
X214749294Y-97813986D01*
X214643969Y-98011036D01*
X214505134Y-97841866D01*
X214279014Y-97656294D01*
X214021034Y-97518401D01*
X213741111Y-97433487D01*
X213522950Y-97412000D01*
X213377050Y-97412000D01*
X213158889Y-97433487D01*
X212878966Y-97518401D01*
X212620986Y-97656294D01*
X212394866Y-97841866D01*
X212256031Y-98011036D01*
X212150706Y-97813986D01*
X211965134Y-97587866D01*
X211739014Y-97402294D01*
X211481034Y-97264401D01*
X211201111Y-97179487D01*
X210982950Y-97158000D01*
X210837050Y-97158000D01*
X210618889Y-97179487D01*
X210338966Y-97264401D01*
X210080986Y-97402294D01*
X209854866Y-97587866D01*
X209757815Y-97706123D01*
X209750537Y-97692506D01*
X209671185Y-97595815D01*
X209574494Y-97516463D01*
X209464180Y-97457498D01*
X209344482Y-97421188D01*
X209220000Y-97408928D01*
X207520000Y-97408928D01*
X207395518Y-97421188D01*
X207275820Y-97457498D01*
X207165506Y-97516463D01*
X207068815Y-97595815D01*
X206989463Y-97692506D01*
X206930498Y-97802820D01*
X206894188Y-97922518D01*
X206881928Y-98047000D01*
X206881928Y-99747000D01*
X206894188Y-99871482D01*
X206930498Y-99991180D01*
X206989463Y-100101494D01*
X207068815Y-100198185D01*
X207165506Y-100277537D01*
X207275820Y-100336502D01*
X207344687Y-100357393D01*
X207314866Y-100381866D01*
X207129294Y-100607986D01*
X206991401Y-100865966D01*
X206906487Y-101145889D01*
X206877815Y-101437000D01*
X200685000Y-101437000D01*
X200685000Y-97304495D01*
X201515000Y-97304495D01*
X201515000Y-97695505D01*
X201591282Y-98079003D01*
X201740915Y-98440250D01*
X201958149Y-98765364D01*
X202234636Y-99041851D01*
X202559750Y-99259085D01*
X202920997Y-99408718D01*
X203304495Y-99485000D01*
X203695505Y-99485000D01*
X204079003Y-99408718D01*
X204440250Y-99259085D01*
X204765364Y-99041851D01*
X205041851Y-98765364D01*
X205259085Y-98440250D01*
X205408718Y-98079003D01*
X205485000Y-97695505D01*
X205485000Y-97304495D01*
X205408718Y-96920997D01*
X205259085Y-96559750D01*
X205041851Y-96234636D01*
X204765364Y-95958149D01*
X204440250Y-95740915D01*
X204079003Y-95591282D01*
X203695505Y-95515000D01*
X203304495Y-95515000D01*
X202920997Y-95591282D01*
X202559750Y-95740915D01*
X202234636Y-95958149D01*
X201958149Y-96234636D01*
X201740915Y-96559750D01*
X201591282Y-96920997D01*
X201515000Y-97304495D01*
X200685000Y-97304495D01*
X200685000Y-97033505D01*
X200732312Y-96550984D01*
X200862714Y-96119070D01*
X201074524Y-95720715D01*
X201359675Y-95371086D01*
X201707303Y-95083503D01*
X202104177Y-94868914D01*
X202535161Y-94735502D01*
X203015654Y-94685000D01*
X261966495Y-94685000D01*
X262449016Y-94732312D01*
X262449016Y-94732312D01*
G37*
X262449016Y-94732312D02*
X262880930Y-94862714D01*
X263279285Y-95074524D01*
X263628914Y-95359675D01*
X263916497Y-95707303D01*
X264131086Y-96104177D01*
X264264498Y-96535161D01*
X264315001Y-97015663D01*
X264315000Y-146966495D01*
X264267688Y-147449016D01*
X264137287Y-147880927D01*
X263925480Y-148279280D01*
X263640325Y-148628914D01*
X263292697Y-148916497D01*
X262895825Y-149131085D01*
X262464834Y-149264500D01*
X261984346Y-149315000D01*
X203033504Y-149315000D01*
X202550984Y-149267688D01*
X202119073Y-149137287D01*
X201720720Y-148925480D01*
X201371086Y-148640325D01*
X201083503Y-148292697D01*
X200868915Y-147895825D01*
X200735500Y-147464834D01*
X200685000Y-146984346D01*
X200685000Y-146304495D01*
X201515000Y-146304495D01*
X201515000Y-146695505D01*
X201591282Y-147079003D01*
X201740915Y-147440250D01*
X201958149Y-147765364D01*
X202234636Y-148041851D01*
X202559750Y-148259085D01*
X202920997Y-148408718D01*
X203304495Y-148485000D01*
X203695505Y-148485000D01*
X204079003Y-148408718D01*
X204440250Y-148259085D01*
X204765364Y-148041851D01*
X205041851Y-147765364D01*
X205259085Y-147440250D01*
X205356722Y-147204531D01*
X227955074Y-147204531D01*
X228065921Y-147481714D01*
X228376840Y-147635089D01*
X228711705Y-147724860D01*
X229057650Y-147747576D01*
X229401380Y-147702366D01*
X229729685Y-147590966D01*
X229934079Y-147481714D01*
X230044926Y-147204531D01*
X233035074Y-147204531D01*
X233145921Y-147481714D01*
X233456840Y-147635089D01*
X233791705Y-147724860D01*
X234137650Y-147747576D01*
X234481380Y-147702366D01*
X234809685Y-147590966D01*
X235014079Y-147481714D01*
X235124926Y-147204531D01*
X234080000Y-146159605D01*
X233035074Y-147204531D01*
X230044926Y-147204531D01*
X229000000Y-146159605D01*
X227955074Y-147204531D01*
X205356722Y-147204531D01*
X205408718Y-147079003D01*
X205485000Y-146695505D01*
X205485000Y-146304495D01*
X205431922Y-146037650D01*
X227232424Y-146037650D01*
X227277634Y-146381380D01*
X227389034Y-146709685D01*
X227498286Y-146914079D01*
X227775469Y-147024926D01*
X228820395Y-145980000D01*
X229179605Y-145980000D01*
X230224531Y-147024926D01*
X230501714Y-146914079D01*
X230655089Y-146603160D01*
X230744860Y-146268295D01*
X230760004Y-146037650D01*
X232312424Y-146037650D01*
X232357634Y-146381380D01*
X232469034Y-146709685D01*
X232578286Y-146914079D01*
X232855469Y-147024926D01*
X233900395Y-145980000D01*
X234259605Y-145980000D01*
X235304531Y-147024926D01*
X235581714Y-146914079D01*
X235735089Y-146603160D01*
X235824860Y-146268295D01*
X235840267Y-146033646D01*
X243315000Y-146033646D01*
X243318366Y-146067821D01*
X243318366Y-146080806D01*
X243319366Y-146090318D01*
X243341121Y-146284268D01*
X243354025Y-146344976D01*
X243366089Y-146405901D01*
X243368917Y-146415038D01*
X243427930Y-146601068D01*
X243452377Y-146658105D01*
X243476046Y-146715531D01*
X243480595Y-146723944D01*
X243574617Y-146894969D01*
X243609692Y-146946194D01*
X243644050Y-146997906D01*
X243650146Y-147005276D01*
X243775596Y-147154782D01*
X243819974Y-147198240D01*
X243863703Y-147242275D01*
X243871109Y-147248315D01*
X243871113Y-147248319D01*
X243871115Y-147248320D01*
X244023214Y-147370611D01*
X244075139Y-147404589D01*
X244126632Y-147439322D01*
X244135077Y-147443812D01*
X244308033Y-147534232D01*
X244365590Y-147557487D01*
X244422835Y-147581550D01*
X244431991Y-147584315D01*
X244619217Y-147639418D01*
X244680218Y-147651054D01*
X244741015Y-147663534D01*
X244750533Y-147664468D01*
X244944895Y-147682157D01*
X245006986Y-147681723D01*
X245069066Y-147682156D01*
X245078585Y-147681223D01*
X245272682Y-147660822D01*
X245333496Y-147648339D01*
X245394481Y-147636705D01*
X245403637Y-147633941D01*
X245590075Y-147576229D01*
X245647279Y-147552182D01*
X245704873Y-147528913D01*
X245713317Y-147524423D01*
X245884994Y-147431598D01*
X245936468Y-147396878D01*
X245988418Y-147362883D01*
X245995829Y-147356839D01*
X246146207Y-147232435D01*
X246189973Y-147188362D01*
X246234311Y-147144943D01*
X246240408Y-147137574D01*
X246363758Y-146986332D01*
X246398126Y-146934603D01*
X246433191Y-146883392D01*
X246437739Y-146874981D01*
X246437740Y-146874980D01*
X246437742Y-146874976D01*
X246529366Y-146702657D01*
X246553022Y-146645261D01*
X246577482Y-146588193D01*
X246580310Y-146579056D01*
X246636719Y-146392220D01*
X246648780Y-146331310D01*
X246654479Y-146304495D01*
X259515000Y-146304495D01*
X259515000Y-146695505D01*
X259591282Y-147079003D01*
X259740915Y-147440250D01*
X259958149Y-147765364D01*
X260234636Y-148041851D01*
X260559750Y-148259085D01*
X260920997Y-148408718D01*
X261304495Y-148485000D01*
X261695505Y-148485000D01*
X262079003Y-148408718D01*
X262440250Y-148259085D01*
X262765364Y-148041851D01*
X263041851Y-147765364D01*
X263259085Y-147440250D01*
X263408718Y-147079003D01*
X263485000Y-146695505D01*
X263485000Y-146304495D01*
X263408718Y-145920997D01*
X263259085Y-145559750D01*
X263041851Y-145234636D01*
X262765364Y-144958149D01*
X262440250Y-144740915D01*
X262079003Y-144591282D01*
X261695505Y-144515000D01*
X261304495Y-144515000D01*
X260920997Y-144591282D01*
X260559750Y-144740915D01*
X260234636Y-144958149D01*
X259958149Y-145234636D01*
X259740915Y-145559750D01*
X259591282Y-145920997D01*
X259515000Y-146304495D01*
X246654479Y-146304495D01*
X246661686Y-146270591D01*
X246662686Y-146261079D01*
X246681731Y-146066845D01*
X246681731Y-146066837D01*
X246685000Y-146033647D01*
X246685000Y-130966353D01*
X246681633Y-130932169D01*
X246681633Y-130919193D01*
X246680634Y-130909681D01*
X246658879Y-130715732D01*
X246645975Y-130655024D01*
X246633911Y-130594099D01*
X246631083Y-130584962D01*
X246572070Y-130398932D01*
X246547618Y-130341882D01*
X246523954Y-130284470D01*
X246519405Y-130276056D01*
X246425383Y-130105031D01*
X246390310Y-130053809D01*
X246355951Y-130002094D01*
X246349854Y-129994724D01*
X246224404Y-129845218D01*
X246180046Y-129801779D01*
X246136297Y-129757724D01*
X246128885Y-129751679D01*
X245976785Y-129629389D01*
X245924845Y-129595401D01*
X245873367Y-129560678D01*
X245864923Y-129556187D01*
X245691967Y-129465768D01*
X245634410Y-129442513D01*
X245577165Y-129418450D01*
X245568009Y-129415685D01*
X245380783Y-129360582D01*
X245319775Y-129348945D01*
X245258985Y-129336466D01*
X245249466Y-129335532D01*
X245055105Y-129317843D01*
X244992981Y-129318277D01*
X244930933Y-129317844D01*
X244921426Y-129318776D01*
X244921419Y-129318776D01*
X244921413Y-129318777D01*
X244727318Y-129339178D01*
X244666504Y-129351661D01*
X244605519Y-129363295D01*
X244596363Y-129366059D01*
X244409925Y-129423771D01*
X244352692Y-129447830D01*
X244295127Y-129471087D01*
X244286682Y-129475577D01*
X244115006Y-129568402D01*
X244063532Y-129603122D01*
X244011582Y-129637117D01*
X244004170Y-129643162D01*
X243853793Y-129767565D01*
X243810027Y-129811638D01*
X243765689Y-129855057D01*
X243759592Y-129862426D01*
X243636242Y-130013668D01*
X243601881Y-130065386D01*
X243566809Y-130116607D01*
X243562260Y-130125020D01*
X243470635Y-130297343D01*
X243446978Y-130354739D01*
X243422519Y-130411807D01*
X243419690Y-130420943D01*
X243363281Y-130607780D01*
X243351219Y-130668698D01*
X243338314Y-130729410D01*
X243337314Y-130738922D01*
X243318269Y-130933155D01*
X243318269Y-130933173D01*
X243315001Y-130966353D01*
X243315000Y-146033646D01*
X235840267Y-146033646D01*
X235847576Y-145922350D01*
X235802366Y-145578620D01*
X235690966Y-145250315D01*
X235581714Y-145045921D01*
X235304531Y-144935074D01*
X234259605Y-145980000D01*
X233900395Y-145980000D01*
X232855469Y-144935074D01*
X232578286Y-145045921D01*
X232424911Y-145356840D01*
X232335140Y-145691705D01*
X232312424Y-146037650D01*
X230760004Y-146037650D01*
X230767576Y-145922350D01*
X230722366Y-145578620D01*
X230610966Y-145250315D01*
X230501714Y-145045921D01*
X230224531Y-144935074D01*
X229179605Y-145980000D01*
X228820395Y-145980000D01*
X227775469Y-144935074D01*
X227498286Y-145045921D01*
X227344911Y-145356840D01*
X227255140Y-145691705D01*
X227232424Y-146037650D01*
X205431922Y-146037650D01*
X205408718Y-145920997D01*
X205259085Y-145559750D01*
X205041851Y-145234636D01*
X204765364Y-144958149D01*
X204462032Y-144755469D01*
X227955074Y-144755469D01*
X229000000Y-145800395D01*
X230044926Y-144755469D01*
X229934079Y-144478286D01*
X229623160Y-144324911D01*
X229288295Y-144235140D01*
X228942350Y-144212424D01*
X228598620Y-144257634D01*
X228270315Y-144369034D01*
X228065921Y-144478286D01*
X227955074Y-144755469D01*
X204462032Y-144755469D01*
X204440250Y-144740915D01*
X204079003Y-144591282D01*
X203695505Y-144515000D01*
X203304495Y-144515000D01*
X202920997Y-144591282D01*
X202559750Y-144740915D01*
X202234636Y-144958149D01*
X201958149Y-145234636D01*
X201740915Y-145559750D01*
X201591282Y-145920997D01*
X201515000Y-146304495D01*
X200685000Y-146304495D01*
X200685000Y-143276504D01*
X229880000Y-143276504D01*
X229880000Y-143603496D01*
X229943793Y-143924204D01*
X230068927Y-144226305D01*
X230250594Y-144498188D01*
X230481812Y-144729406D01*
X230753695Y-144911073D01*
X231055796Y-145036207D01*
X231376504Y-145100000D01*
X231703496Y-145100000D01*
X232024204Y-145036207D01*
X232326305Y-144911073D01*
X232559182Y-144755469D01*
X233035074Y-144755469D01*
X234080000Y-145800395D01*
X235124926Y-144755469D01*
X235014079Y-144478286D01*
X234703160Y-144324911D01*
X234368295Y-144235140D01*
X234022350Y-144212424D01*
X233678620Y-144257634D01*
X233350315Y-144369034D01*
X233145921Y-144478286D01*
X233035074Y-144755469D01*
X232559182Y-144755469D01*
X232598188Y-144729406D01*
X232829406Y-144498188D01*
X233011073Y-144226305D01*
X233136207Y-143924204D01*
X233200000Y-143603496D01*
X233200000Y-143276504D01*
X233136207Y-142955796D01*
X233011073Y-142653695D01*
X232829406Y-142381812D01*
X232598188Y-142150594D01*
X232559183Y-142124531D01*
X233035074Y-142124531D01*
X233145921Y-142401714D01*
X233456840Y-142555089D01*
X233791705Y-142644860D01*
X234137650Y-142667576D01*
X234481380Y-142622366D01*
X234809685Y-142510966D01*
X235014079Y-142401714D01*
X235124926Y-142124531D01*
X234080000Y-141079605D01*
X233035074Y-142124531D01*
X232559183Y-142124531D01*
X232326305Y-141968927D01*
X232024204Y-141843793D01*
X231703496Y-141780000D01*
X231376504Y-141780000D01*
X231055796Y-141843793D01*
X230753695Y-141968927D01*
X230481812Y-142150594D01*
X230250594Y-142381812D01*
X230068927Y-142653695D01*
X229943793Y-142955796D01*
X229880000Y-143276504D01*
X200685000Y-143276504D01*
X200685000Y-142124531D01*
X227955074Y-142124531D01*
X228065921Y-142401714D01*
X228376840Y-142555089D01*
X228711705Y-142644860D01*
X229057650Y-142667576D01*
X229401380Y-142622366D01*
X229729685Y-142510966D01*
X229934079Y-142401714D01*
X230044926Y-142124531D01*
X229000000Y-141079605D01*
X227955074Y-142124531D01*
X200685000Y-142124531D01*
X200685000Y-140957650D01*
X227232424Y-140957650D01*
X227277634Y-141301380D01*
X227389034Y-141629685D01*
X227498286Y-141834079D01*
X227775469Y-141944926D01*
X228820395Y-140900000D01*
X229179605Y-140900000D01*
X230224531Y-141944926D01*
X230501714Y-141834079D01*
X230655089Y-141523160D01*
X230744860Y-141188295D01*
X230760004Y-140957650D01*
X232312424Y-140957650D01*
X232357634Y-141301380D01*
X232469034Y-141629685D01*
X232578286Y-141834079D01*
X232855469Y-141944926D01*
X233900395Y-140900000D01*
X234259605Y-140900000D01*
X235304531Y-141944926D01*
X235581714Y-141834079D01*
X235735089Y-141523160D01*
X235824860Y-141188295D01*
X235847576Y-140842350D01*
X235802366Y-140498620D01*
X235690966Y-140170315D01*
X235581714Y-139965921D01*
X235304531Y-139855074D01*
X234259605Y-140900000D01*
X233900395Y-140900000D01*
X232855469Y-139855074D01*
X232578286Y-139965921D01*
X232424911Y-140276840D01*
X232335140Y-140611705D01*
X232312424Y-140957650D01*
X230760004Y-140957650D01*
X230767576Y-140842350D01*
X230722366Y-140498620D01*
X230610966Y-140170315D01*
X230501714Y-139965921D01*
X230224531Y-139855074D01*
X229179605Y-140900000D01*
X228820395Y-140900000D01*
X227775469Y-139855074D01*
X227498286Y-139965921D01*
X227344911Y-140276840D01*
X227255140Y-140611705D01*
X227232424Y-140957650D01*
X200685000Y-140957650D01*
X200685000Y-139675469D01*
X227955074Y-139675469D01*
X229000000Y-140720395D01*
X230044926Y-139675469D01*
X233035074Y-139675469D01*
X234080000Y-140720395D01*
X235124926Y-139675469D01*
X235014079Y-139398286D01*
X234703160Y-139244911D01*
X234368295Y-139155140D01*
X234022350Y-139132424D01*
X233678620Y-139177634D01*
X233350315Y-139289034D01*
X233145921Y-139398286D01*
X233035074Y-139675469D01*
X230044926Y-139675469D01*
X229934079Y-139398286D01*
X229623160Y-139244911D01*
X229288295Y-139155140D01*
X228942350Y-139132424D01*
X228598620Y-139177634D01*
X228270315Y-139289034D01*
X228065921Y-139398286D01*
X227955074Y-139675469D01*
X200685000Y-139675469D01*
X200685000Y-131185000D01*
X204533647Y-131185000D01*
X204562601Y-131182148D01*
X204565573Y-131182169D01*
X204575092Y-131181236D01*
X204623218Y-131176178D01*
X204634283Y-131175088D01*
X204634652Y-131174976D01*
X204672140Y-131171036D01*
X204732990Y-131158545D01*
X204793942Y-131146918D01*
X204803096Y-131144155D01*
X204803102Y-131144153D01*
X204896317Y-131115298D01*
X204953533Y-131091246D01*
X205011119Y-131067980D01*
X205019564Y-131063490D01*
X205105401Y-131017077D01*
X205156867Y-130982362D01*
X205208821Y-130948364D01*
X205216232Y-130942320D01*
X205291421Y-130880118D01*
X205335162Y-130836070D01*
X205379522Y-130792631D01*
X205385618Y-130785261D01*
X205385623Y-130785256D01*
X205385627Y-130785250D01*
X205447294Y-130709640D01*
X205481632Y-130657959D01*
X205516733Y-130606694D01*
X205521282Y-130598281D01*
X205567094Y-130512120D01*
X205590758Y-130454704D01*
X205615208Y-130397661D01*
X205618036Y-130388525D01*
X205646241Y-130295107D01*
X205658303Y-130234187D01*
X205671209Y-130173470D01*
X205672209Y-130163958D01*
X205681731Y-130066841D01*
X205681731Y-130066837D01*
X205685000Y-130033647D01*
X205685000Y-113966353D01*
X205682148Y-113937399D01*
X205682169Y-113934427D01*
X205681236Y-113924909D01*
X205676179Y-113876790D01*
X205675088Y-113865717D01*
X205674976Y-113865348D01*
X205671036Y-113827860D01*
X205658547Y-113767017D01*
X205646918Y-113706058D01*
X205644154Y-113696902D01*
X205615298Y-113603683D01*
X205591232Y-113546434D01*
X205567979Y-113488881D01*
X205563489Y-113480436D01*
X205517077Y-113394598D01*
X205482350Y-113343115D01*
X205448364Y-113291179D01*
X205442320Y-113283767D01*
X205380118Y-113208579D01*
X205336051Y-113164818D01*
X205292630Y-113120478D01*
X205285261Y-113114381D01*
X205209640Y-113052706D01*
X205157959Y-113018368D01*
X205106694Y-112983267D01*
X205098281Y-112978718D01*
X205012120Y-112932906D01*
X204954704Y-112909242D01*
X204897661Y-112884792D01*
X204888525Y-112881964D01*
X204795107Y-112853759D01*
X204734195Y-112841698D01*
X204673471Y-112828791D01*
X204663959Y-112827791D01*
X204566841Y-112818269D01*
X204566837Y-112818269D01*
X204533647Y-112815000D01*
X200685000Y-112815000D01*
X200685000Y-112400000D01*
X210657815Y-112400000D01*
X210686487Y-112691111D01*
X210771401Y-112971034D01*
X210909294Y-113229014D01*
X211094866Y-113455134D01*
X211320986Y-113640706D01*
X211518036Y-113746031D01*
X211348866Y-113884866D01*
X211163294Y-114110986D01*
X211025401Y-114368966D01*
X210940487Y-114648889D01*
X210911815Y-114940000D01*
X210940487Y-115231111D01*
X211025401Y-115511034D01*
X211163294Y-115769014D01*
X211348866Y-115995134D01*
X211518036Y-116133969D01*
X211320986Y-116239294D01*
X211094866Y-116424866D01*
X210909294Y-116650986D01*
X210771401Y-116908966D01*
X210686487Y-117188889D01*
X210657815Y-117480000D01*
X210686487Y-117771111D01*
X210771401Y-118051034D01*
X210909294Y-118309014D01*
X211094866Y-118535134D01*
X211320986Y-118720706D01*
X211518036Y-118826031D01*
X211348866Y-118964866D01*
X211163294Y-119190986D01*
X211025401Y-119448966D01*
X210940487Y-119728889D01*
X210911815Y-120020000D01*
X210940487Y-120311111D01*
X211025401Y-120591034D01*
X211163294Y-120849014D01*
X211346235Y-121071928D01*
X211300000Y-121071928D01*
X211175518Y-121084188D01*
X211055820Y-121120498D01*
X210945506Y-121179463D01*
X210848815Y-121258815D01*
X210769463Y-121355506D01*
X210710498Y-121465820D01*
X210674188Y-121585518D01*
X210661928Y-121710000D01*
X210661928Y-123410000D01*
X210674188Y-123534482D01*
X210710498Y-123654180D01*
X210769463Y-123764494D01*
X210848815Y-123861185D01*
X210945506Y-123940537D01*
X211055820Y-123999502D01*
X211175518Y-124035812D01*
X211300000Y-124048072D01*
X214300000Y-124048072D01*
X214424482Y-124035812D01*
X214544180Y-123999502D01*
X214654494Y-123940537D01*
X214751185Y-123861185D01*
X214830537Y-123764494D01*
X214889502Y-123654180D01*
X214925812Y-123534482D01*
X214938072Y-123410000D01*
X214938072Y-121710000D01*
X214925812Y-121585518D01*
X214889502Y-121465820D01*
X214830537Y-121355506D01*
X214751185Y-121258815D01*
X214654494Y-121179463D01*
X214640877Y-121172185D01*
X214759134Y-121075134D01*
X214944706Y-120849014D01*
X215082599Y-120591034D01*
X215167513Y-120311111D01*
X215196185Y-120020000D01*
X215167513Y-119728889D01*
X215082599Y-119448966D01*
X214944706Y-119190986D01*
X214759134Y-118964866D01*
X214533014Y-118779294D01*
X214335964Y-118673969D01*
X214505134Y-118535134D01*
X214690706Y-118309014D01*
X214828599Y-118051034D01*
X214913513Y-117771111D01*
X214942185Y-117480000D01*
X214913513Y-117188889D01*
X214828599Y-116908966D01*
X214690706Y-116650986D01*
X214505134Y-116424866D01*
X214335964Y-116286031D01*
X214533014Y-116180706D01*
X214759134Y-115995134D01*
X214944706Y-115769014D01*
X215082599Y-115511034D01*
X215167513Y-115231111D01*
X215196185Y-114940000D01*
X215167513Y-114648889D01*
X215082599Y-114368966D01*
X214944706Y-114110986D01*
X214759134Y-113884866D01*
X214533014Y-113699294D01*
X214335964Y-113593969D01*
X214505134Y-113455134D01*
X214690706Y-113229014D01*
X214828599Y-112971034D01*
X214913513Y-112691111D01*
X214942185Y-112400000D01*
X214933761Y-112314464D01*
X225706470Y-112314464D01*
X225706470Y-112528190D01*
X225748166Y-112737810D01*
X225829955Y-112935267D01*
X225948695Y-113112974D01*
X226099823Y-113264102D01*
X226277530Y-113382842D01*
X226474987Y-113464631D01*
X226684607Y-113506327D01*
X226898333Y-113506327D01*
X227107953Y-113464631D01*
X227305410Y-113382842D01*
X227483117Y-113264102D01*
X227634245Y-113112974D01*
X227752985Y-112935267D01*
X227834774Y-112737810D01*
X227876470Y-112528190D01*
X227876470Y-112314464D01*
X227865664Y-112260137D01*
X227891647Y-112242775D01*
X228042775Y-112091647D01*
X228161515Y-111913940D01*
X228243304Y-111716483D01*
X228285000Y-111506863D01*
X228285000Y-111293137D01*
X228269496Y-111215195D01*
X228424440Y-111151015D01*
X228602147Y-111032275D01*
X228753275Y-110881147D01*
X228864960Y-110713998D01*
X230014887Y-110713998D01*
X230015116Y-110888328D01*
X230049351Y-111059264D01*
X230115173Y-111218174D01*
X230222755Y-111220479D01*
X230181813Y-111261421D01*
X230220392Y-111300000D01*
X230181813Y-111338579D01*
X230222755Y-111379521D01*
X230115173Y-111381826D01*
X230048672Y-111542974D01*
X230014887Y-111713998D01*
X230015116Y-111888328D01*
X230049351Y-112059264D01*
X230115173Y-112218174D01*
X230222755Y-112220479D01*
X230181813Y-112261421D01*
X230220392Y-112300000D01*
X230181813Y-112338579D01*
X230222755Y-112379521D01*
X230115173Y-112381826D01*
X230048672Y-112542974D01*
X230014887Y-112713998D01*
X230015116Y-112888328D01*
X230049351Y-113059264D01*
X230115173Y-113218174D01*
X230303836Y-113222216D01*
X230726052Y-112800000D01*
X230709081Y-112783029D01*
X230808152Y-112683958D01*
X230813998Y-112685113D01*
X230988328Y-112684884D01*
X230992032Y-112684142D01*
X231016042Y-112708152D01*
X231014887Y-112713998D01*
X231015116Y-112888328D01*
X231015858Y-112892032D01*
X230916971Y-112990919D01*
X230900000Y-112973948D01*
X230477784Y-113396164D01*
X230481826Y-113584827D01*
X230642974Y-113651328D01*
X230813998Y-113685113D01*
X230988328Y-113684884D01*
X231159264Y-113650649D01*
X231318174Y-113584827D01*
X231320479Y-113477245D01*
X231361421Y-113518187D01*
X231400000Y-113479608D01*
X231438579Y-113518187D01*
X231479521Y-113477245D01*
X231481826Y-113584827D01*
X231642974Y-113651328D01*
X231813998Y-113685113D01*
X231988328Y-113684884D01*
X232159264Y-113650649D01*
X232318174Y-113584827D01*
X232320479Y-113477245D01*
X232361421Y-113518187D01*
X232400000Y-113479608D01*
X232438579Y-113518187D01*
X232479521Y-113477245D01*
X232481826Y-113584827D01*
X232642974Y-113651328D01*
X232813998Y-113685113D01*
X232988328Y-113684884D01*
X233159264Y-113650649D01*
X233318174Y-113584827D01*
X233322216Y-113396164D01*
X232900000Y-112973948D01*
X232883029Y-112990919D01*
X232783958Y-112891848D01*
X232785113Y-112886002D01*
X232784884Y-112711672D01*
X232784142Y-112707968D01*
X232808152Y-112683958D01*
X232813998Y-112685113D01*
X232988328Y-112684884D01*
X232992032Y-112684142D01*
X233090919Y-112783029D01*
X233073948Y-112800000D01*
X233496164Y-113222216D01*
X233684827Y-113218174D01*
X233751328Y-113057026D01*
X233785113Y-112886002D01*
X233784884Y-112711672D01*
X233750649Y-112540736D01*
X233684827Y-112381826D01*
X233577245Y-112379521D01*
X233618187Y-112338579D01*
X233579608Y-112300000D01*
X233618187Y-112261421D01*
X233577245Y-112220479D01*
X233684827Y-112218174D01*
X233751328Y-112057026D01*
X233785113Y-111886002D01*
X233784884Y-111711672D01*
X233750649Y-111540736D01*
X233684827Y-111381826D01*
X233577245Y-111379521D01*
X233618187Y-111338579D01*
X233579608Y-111300000D01*
X233618187Y-111261421D01*
X233577245Y-111220479D01*
X233684827Y-111218174D01*
X233751328Y-111057026D01*
X233785113Y-110886002D01*
X233784884Y-110711672D01*
X233750649Y-110540736D01*
X233684827Y-110381826D01*
X233496164Y-110377784D01*
X233073948Y-110800000D01*
X233090919Y-110816971D01*
X232991848Y-110916042D01*
X232986002Y-110914887D01*
X232811672Y-110915116D01*
X232807968Y-110915858D01*
X232783958Y-110891848D01*
X232785113Y-110886002D01*
X232784884Y-110711672D01*
X232784142Y-110707968D01*
X232883029Y-110609081D01*
X232900000Y-110626052D01*
X233322216Y-110203836D01*
X233318174Y-110015173D01*
X233157026Y-109948672D01*
X232986002Y-109914887D01*
X232811672Y-109915116D01*
X232640736Y-109949351D01*
X232481826Y-110015173D01*
X232479521Y-110122755D01*
X232438579Y-110081813D01*
X232400000Y-110120392D01*
X232361421Y-110081813D01*
X232320479Y-110122755D01*
X232318174Y-110015173D01*
X232157026Y-109948672D01*
X231986002Y-109914887D01*
X231811672Y-109915116D01*
X231640736Y-109949351D01*
X231481826Y-110015173D01*
X231479521Y-110122755D01*
X231438579Y-110081813D01*
X231400000Y-110120392D01*
X231361421Y-110081813D01*
X231320479Y-110122755D01*
X231318174Y-110015173D01*
X231157026Y-109948672D01*
X230986002Y-109914887D01*
X230811672Y-109915116D01*
X230640736Y-109949351D01*
X230481826Y-110015173D01*
X230477784Y-110203836D01*
X230900000Y-110626052D01*
X230916971Y-110609081D01*
X231016042Y-110708152D01*
X231014887Y-110713998D01*
X231015116Y-110888328D01*
X231015858Y-110892032D01*
X230991848Y-110916042D01*
X230986002Y-110914887D01*
X230811672Y-110915116D01*
X230807968Y-110915858D01*
X230709081Y-110816971D01*
X230726052Y-110800000D01*
X230303836Y-110377784D01*
X230115173Y-110381826D01*
X230048672Y-110542974D01*
X230014887Y-110713998D01*
X228864960Y-110713998D01*
X228872015Y-110703440D01*
X228953804Y-110505983D01*
X228995500Y-110296363D01*
X228995500Y-110082637D01*
X228953804Y-109873017D01*
X228872015Y-109675560D01*
X228753275Y-109497853D01*
X228602147Y-109346725D01*
X228424440Y-109227985D01*
X228226983Y-109146196D01*
X228017363Y-109104500D01*
X227803637Y-109104500D01*
X227594017Y-109146196D01*
X227396560Y-109227985D01*
X227218853Y-109346725D01*
X227067725Y-109497853D01*
X226948985Y-109675560D01*
X226867196Y-109873017D01*
X226825500Y-110082637D01*
X226825500Y-110296363D01*
X226841004Y-110374305D01*
X226686060Y-110438485D01*
X226508353Y-110557225D01*
X226357225Y-110708353D01*
X226238485Y-110886060D01*
X226156696Y-111083517D01*
X226115000Y-111293137D01*
X226115000Y-111506863D01*
X226125806Y-111561190D01*
X226099823Y-111578552D01*
X225948695Y-111729680D01*
X225829955Y-111907387D01*
X225748166Y-112104844D01*
X225706470Y-112314464D01*
X214933761Y-112314464D01*
X214913513Y-112108889D01*
X214828599Y-111828966D01*
X214690706Y-111570986D01*
X214505134Y-111344866D01*
X214334939Y-111205190D01*
X214389618Y-111183361D01*
X214634619Y-111024176D01*
X214843857Y-110820252D01*
X215009291Y-110579426D01*
X215124563Y-110310953D01*
X215145476Y-110216890D01*
X215024155Y-109987000D01*
X213181000Y-109987000D01*
X213181000Y-110007000D01*
X212927000Y-110007000D01*
X212927000Y-109987000D01*
X211083845Y-109987000D01*
X210962524Y-110216890D01*
X210983437Y-110310953D01*
X211098709Y-110579426D01*
X211264143Y-110820252D01*
X211473381Y-111024176D01*
X211518694Y-111053617D01*
X211320986Y-111159294D01*
X211094866Y-111344866D01*
X210909294Y-111570986D01*
X210771401Y-111828966D01*
X210686487Y-112108889D01*
X210657815Y-112400000D01*
X200685000Y-112400000D01*
X200685000Y-109503110D01*
X210962524Y-109503110D01*
X211083845Y-109733000D01*
X212927000Y-109733000D01*
X212927000Y-109713000D01*
X213181000Y-109713000D01*
X213181000Y-109733000D01*
X215024155Y-109733000D01*
X215145476Y-109503110D01*
X215124563Y-109409047D01*
X215009291Y-109140574D01*
X214843857Y-108899748D01*
X214634619Y-108695824D01*
X214389618Y-108536639D01*
X214118269Y-108428310D01*
X213831000Y-108375000D01*
X212277000Y-108375000D01*
X211989731Y-108428310D01*
X211718382Y-108536639D01*
X211473381Y-108695824D01*
X211264143Y-108899748D01*
X211098709Y-109140574D01*
X210983437Y-109409047D01*
X210962524Y-109503110D01*
X200685000Y-109503110D01*
X200685000Y-107270137D01*
X218492000Y-107270137D01*
X218492000Y-107483863D01*
X218533696Y-107693483D01*
X218615485Y-107890940D01*
X218734225Y-108068647D01*
X218885353Y-108219775D01*
X219063060Y-108338515D01*
X219260517Y-108420304D01*
X219359089Y-108439911D01*
X219378696Y-108538483D01*
X219460485Y-108735940D01*
X219579225Y-108913647D01*
X219730353Y-109064775D01*
X219908060Y-109183515D01*
X220105517Y-109265304D01*
X220315137Y-109307000D01*
X220528863Y-109307000D01*
X220738483Y-109265304D01*
X220935940Y-109183515D01*
X221113647Y-109064775D01*
X221264775Y-108913647D01*
X221383515Y-108735940D01*
X221465304Y-108538483D01*
X221507000Y-108328863D01*
X221507000Y-108115137D01*
X221465304Y-107905517D01*
X221383515Y-107708060D01*
X221264775Y-107530353D01*
X221113647Y-107379225D01*
X220935940Y-107260485D01*
X220738483Y-107178696D01*
X220639911Y-107159089D01*
X220626793Y-107093137D01*
X230215000Y-107093137D01*
X230215000Y-107306863D01*
X230256696Y-107516483D01*
X230338485Y-107713940D01*
X230457225Y-107891647D01*
X230608353Y-108042775D01*
X230786060Y-108161515D01*
X230983517Y-108243304D01*
X231193137Y-108285000D01*
X231406863Y-108285000D01*
X231616483Y-108243304D01*
X231813940Y-108161515D01*
X231991647Y-108042775D01*
X232142775Y-107891647D01*
X232196158Y-107811753D01*
X232238485Y-107913940D01*
X232357225Y-108091647D01*
X232508353Y-108242775D01*
X232686060Y-108361515D01*
X232883517Y-108443304D01*
X233093137Y-108485000D01*
X233306863Y-108485000D01*
X233516483Y-108443304D01*
X233713940Y-108361515D01*
X233891647Y-108242775D01*
X234042775Y-108091647D01*
X234066591Y-108056004D01*
X234157225Y-108191647D01*
X234308353Y-108342775D01*
X234486060Y-108461515D01*
X234683517Y-108543304D01*
X234893137Y-108585000D01*
X235106863Y-108585000D01*
X235241851Y-108558149D01*
X235215000Y-108693137D01*
X235215000Y-108906863D01*
X235256696Y-109116483D01*
X235270199Y-109149083D01*
X235108353Y-109257225D01*
X234957225Y-109408353D01*
X234838485Y-109586060D01*
X234756696Y-109783517D01*
X234715000Y-109993137D01*
X234715000Y-110206863D01*
X234756696Y-110416483D01*
X234838485Y-110613940D01*
X234957225Y-110791647D01*
X235108353Y-110942775D01*
X235286060Y-111061515D01*
X235483517Y-111143304D01*
X235693137Y-111185000D01*
X235906863Y-111185000D01*
X235970883Y-111172266D01*
X235956696Y-111206517D01*
X235915000Y-111416137D01*
X235915000Y-111629863D01*
X235956696Y-111839483D01*
X236038485Y-112036940D01*
X236157225Y-112214647D01*
X236308353Y-112365775D01*
X236486060Y-112484515D01*
X236683517Y-112566304D01*
X236893137Y-112608000D01*
X237106863Y-112608000D01*
X237316483Y-112566304D01*
X237513940Y-112484515D01*
X237691647Y-112365775D01*
X237842775Y-112214647D01*
X237961515Y-112036940D01*
X238043304Y-111839483D01*
X238085000Y-111629863D01*
X238085000Y-111416137D01*
X238043304Y-111206517D01*
X237961515Y-111009060D01*
X237937419Y-110972999D01*
X237961515Y-110936937D01*
X238043304Y-110739480D01*
X238085000Y-110529860D01*
X238085000Y-110316134D01*
X238043304Y-110106514D01*
X237961515Y-109909057D01*
X237842775Y-109731350D01*
X237691647Y-109580222D01*
X237513940Y-109461482D01*
X237316483Y-109379693D01*
X237229183Y-109362328D01*
X237261515Y-109313940D01*
X237343304Y-109116483D01*
X237385000Y-108906863D01*
X237385000Y-108693137D01*
X237343304Y-108483517D01*
X237261515Y-108286060D01*
X237142775Y-108108353D01*
X236991647Y-107957225D01*
X236813940Y-107838485D01*
X236616483Y-107756696D01*
X236406863Y-107715000D01*
X236193137Y-107715000D01*
X236058149Y-107741851D01*
X236085000Y-107606863D01*
X236085000Y-107393137D01*
X236043304Y-107183517D01*
X235961515Y-106986060D01*
X235842775Y-106808353D01*
X235691647Y-106657225D01*
X235513940Y-106538485D01*
X235316483Y-106456696D01*
X235106863Y-106415000D01*
X234893137Y-106415000D01*
X234683517Y-106456696D01*
X234486060Y-106538485D01*
X234308353Y-106657225D01*
X234157225Y-106808353D01*
X234133409Y-106843996D01*
X234042775Y-106708353D01*
X233891647Y-106557225D01*
X233713940Y-106438485D01*
X233516483Y-106356696D01*
X233473947Y-106348235D01*
X233465486Y-106305699D01*
X233383697Y-106108242D01*
X233264957Y-105930535D01*
X233113829Y-105779407D01*
X232936122Y-105660667D01*
X232738665Y-105578878D01*
X232529045Y-105537182D01*
X232315319Y-105537182D01*
X232105699Y-105578878D01*
X231908242Y-105660667D01*
X231730535Y-105779407D01*
X231579407Y-105930535D01*
X231460667Y-106108242D01*
X231453985Y-106124373D01*
X231406863Y-106115000D01*
X231193137Y-106115000D01*
X230983517Y-106156696D01*
X230786060Y-106238485D01*
X230608353Y-106357225D01*
X230457225Y-106508353D01*
X230338485Y-106686060D01*
X230256696Y-106883517D01*
X230215000Y-107093137D01*
X220626793Y-107093137D01*
X220620304Y-107060517D01*
X220538515Y-106863060D01*
X220419775Y-106685353D01*
X220268647Y-106534225D01*
X220090940Y-106415485D01*
X219893483Y-106333696D01*
X219683863Y-106292000D01*
X219470137Y-106292000D01*
X219260517Y-106333696D01*
X219063060Y-106415485D01*
X218885353Y-106534225D01*
X218734225Y-106685353D01*
X218615485Y-106863060D01*
X218533696Y-107060517D01*
X218492000Y-107270137D01*
X200685000Y-107270137D01*
X200685000Y-104818479D01*
X222791691Y-104818479D01*
X222791691Y-105032205D01*
X222833387Y-105241825D01*
X222915176Y-105439282D01*
X223033916Y-105616989D01*
X223185044Y-105768117D01*
X223362751Y-105886857D01*
X223560208Y-105968646D01*
X223769828Y-106010342D01*
X223983554Y-106010342D01*
X224193174Y-105968646D01*
X224390631Y-105886857D01*
X224568338Y-105768117D01*
X224719466Y-105616989D01*
X224838206Y-105439282D01*
X224919995Y-105241825D01*
X224936407Y-105159317D01*
X224937842Y-105159032D01*
X225135299Y-105077243D01*
X225313006Y-104958503D01*
X225344405Y-104927104D01*
X225383517Y-104943304D01*
X225593137Y-104985000D01*
X225806863Y-104985000D01*
X226016483Y-104943304D01*
X226213940Y-104861515D01*
X226391647Y-104742775D01*
X226542775Y-104591647D01*
X226661515Y-104413940D01*
X226743304Y-104216483D01*
X226785000Y-104006863D01*
X226785000Y-103793137D01*
X226743304Y-103583517D01*
X226661515Y-103386060D01*
X226542775Y-103208353D01*
X226391647Y-103057225D01*
X226213940Y-102938485D01*
X226016483Y-102856696D01*
X225806863Y-102815000D01*
X225593137Y-102815000D01*
X225383517Y-102856696D01*
X225186060Y-102938485D01*
X225008353Y-103057225D01*
X224976954Y-103088624D01*
X224937842Y-103072424D01*
X224728222Y-103030728D01*
X224514496Y-103030728D01*
X224304876Y-103072424D01*
X224107419Y-103154213D01*
X223929712Y-103272953D01*
X223778584Y-103424081D01*
X223659844Y-103601788D01*
X223578055Y-103799245D01*
X223561643Y-103881753D01*
X223560208Y-103882038D01*
X223362751Y-103963827D01*
X223185044Y-104082567D01*
X223033916Y-104233695D01*
X222915176Y-104411402D01*
X222833387Y-104608859D01*
X222791691Y-104818479D01*
X200685000Y-104818479D01*
X200685000Y-101437000D01*
X206877815Y-101437000D01*
X206906487Y-101728111D01*
X206991401Y-102008034D01*
X207129294Y-102266014D01*
X207314866Y-102492134D01*
X207540986Y-102677706D01*
X207798966Y-102815599D01*
X208078889Y-102900513D01*
X208297050Y-102922000D01*
X208442950Y-102922000D01*
X208661111Y-102900513D01*
X208941034Y-102815599D01*
X209199014Y-102677706D01*
X209425134Y-102492134D01*
X209610706Y-102266014D01*
X209716031Y-102068964D01*
X209854866Y-102238134D01*
X210080986Y-102423706D01*
X210338966Y-102561599D01*
X210618889Y-102646513D01*
X210837050Y-102668000D01*
X210982950Y-102668000D01*
X211201111Y-102646513D01*
X211481034Y-102561599D01*
X211739014Y-102423706D01*
X211965134Y-102238134D01*
X212105454Y-102067154D01*
X212105843Y-102068252D01*
X212254822Y-102318355D01*
X212449731Y-102534588D01*
X212683080Y-102708641D01*
X212945901Y-102833825D01*
X213093110Y-102878476D01*
X213323000Y-102757155D01*
X213323000Y-101564000D01*
X213303000Y-101564000D01*
X213303000Y-101310000D01*
X213323000Y-101310000D01*
X213323000Y-101290000D01*
X213577000Y-101290000D01*
X213577000Y-101310000D01*
X213597000Y-101310000D01*
X213597000Y-101564000D01*
X213577000Y-101564000D01*
X213577000Y-102757155D01*
X213806890Y-102878476D01*
X213954099Y-102833825D01*
X214216920Y-102708641D01*
X214450269Y-102534588D01*
X214645178Y-102318355D01*
X214794157Y-102068252D01*
X214794546Y-102067154D01*
X214934866Y-102238134D01*
X215160986Y-102423706D01*
X215418966Y-102561599D01*
X215698889Y-102646513D01*
X215917050Y-102668000D01*
X216062950Y-102668000D01*
X216281111Y-102646513D01*
X216561034Y-102561599D01*
X216819014Y-102423706D01*
X217045134Y-102238134D01*
X217183969Y-102068964D01*
X217289294Y-102266014D01*
X217474866Y-102492134D01*
X217700986Y-102677706D01*
X217958966Y-102815599D01*
X218238889Y-102900513D01*
X218457050Y-102922000D01*
X218602950Y-102922000D01*
X218821111Y-102900513D01*
X219015000Y-102841697D01*
X219015000Y-103006863D01*
X219056696Y-103216483D01*
X219138485Y-103413940D01*
X219257225Y-103591647D01*
X219408353Y-103742775D01*
X219586060Y-103861515D01*
X219783517Y-103943304D01*
X219993137Y-103985000D01*
X220206863Y-103985000D01*
X220416483Y-103943304D01*
X220613940Y-103861515D01*
X220791647Y-103742775D01*
X220942775Y-103591647D01*
X221061515Y-103413940D01*
X221143304Y-103216483D01*
X221185000Y-103006863D01*
X221185000Y-102793137D01*
X221159779Y-102666342D01*
X221361111Y-102646513D01*
X221641034Y-102561599D01*
X221899014Y-102423706D01*
X222125134Y-102238134D01*
X222265454Y-102067154D01*
X222265843Y-102068252D01*
X222414822Y-102318355D01*
X222609731Y-102534588D01*
X222843080Y-102708641D01*
X223105901Y-102833825D01*
X223253110Y-102878476D01*
X223483000Y-102757155D01*
X223483000Y-101564000D01*
X223463000Y-101564000D01*
X223463000Y-101310000D01*
X223483000Y-101310000D01*
X223483000Y-101290000D01*
X223737000Y-101290000D01*
X223737000Y-101310000D01*
X223757000Y-101310000D01*
X223757000Y-101564000D01*
X223737000Y-101564000D01*
X223737000Y-102757155D01*
X223966890Y-102878476D01*
X224114099Y-102833825D01*
X224376920Y-102708641D01*
X224610269Y-102534588D01*
X224805178Y-102318355D01*
X224954157Y-102068252D01*
X224954546Y-102067154D01*
X225094866Y-102238134D01*
X225320986Y-102423706D01*
X225578966Y-102561599D01*
X225858889Y-102646513D01*
X226077050Y-102668000D01*
X226222950Y-102668000D01*
X226441111Y-102646513D01*
X226721034Y-102561599D01*
X226979014Y-102423706D01*
X227205134Y-102238134D01*
X227343969Y-102068964D01*
X227449294Y-102266014D01*
X227634866Y-102492134D01*
X227860986Y-102677706D01*
X228118966Y-102815599D01*
X228398889Y-102900513D01*
X228617050Y-102922000D01*
X228762950Y-102922000D01*
X228915031Y-102907021D01*
X228956696Y-103116483D01*
X229038485Y-103313940D01*
X229157225Y-103491647D01*
X229308353Y-103642775D01*
X229486060Y-103761515D01*
X229683517Y-103843304D01*
X229893137Y-103885000D01*
X230106863Y-103885000D01*
X230316483Y-103843304D01*
X230513940Y-103761515D01*
X230691647Y-103642775D01*
X230842775Y-103491647D01*
X230961515Y-103313940D01*
X231043304Y-103116483D01*
X231085000Y-102906863D01*
X231085000Y-102693137D01*
X231052510Y-102529800D01*
X231103000Y-102503155D01*
X231103000Y-101310000D01*
X231083000Y-101310000D01*
X231083000Y-101056000D01*
X231103000Y-101056000D01*
X231103000Y-101036000D01*
X231357000Y-101036000D01*
X231357000Y-101056000D01*
X231377000Y-101056000D01*
X231377000Y-101310000D01*
X231357000Y-101310000D01*
X231357000Y-102503155D01*
X231534190Y-102596664D01*
X231515000Y-102693137D01*
X231515000Y-102906863D01*
X231556696Y-103116483D01*
X231638485Y-103313940D01*
X231757225Y-103491647D01*
X231908353Y-103642775D01*
X232086060Y-103761515D01*
X232283517Y-103843304D01*
X232493137Y-103885000D01*
X232706863Y-103885000D01*
X232916483Y-103843304D01*
X233113940Y-103761515D01*
X233291647Y-103642775D01*
X233442775Y-103491647D01*
X233561515Y-103313940D01*
X233643304Y-103116483D01*
X233682278Y-102920545D01*
X233697050Y-102922000D01*
X233842950Y-102922000D01*
X233915000Y-102914904D01*
X233915000Y-103006863D01*
X233956696Y-103216483D01*
X234038485Y-103413940D01*
X234157225Y-103591647D01*
X234308353Y-103742775D01*
X234486060Y-103861515D01*
X234683517Y-103943304D01*
X234893137Y-103985000D01*
X235106863Y-103985000D01*
X235316483Y-103943304D01*
X235513940Y-103861515D01*
X235581770Y-103816192D01*
X235608353Y-103842775D01*
X235786060Y-103961515D01*
X235983517Y-104043304D01*
X236193137Y-104085000D01*
X236406863Y-104085000D01*
X236616483Y-104043304D01*
X236813940Y-103961515D01*
X236991647Y-103842775D01*
X237142775Y-103691647D01*
X237261515Y-103513940D01*
X237343304Y-103316483D01*
X237385000Y-103106863D01*
X237385000Y-102893137D01*
X237343304Y-102683517D01*
X237261515Y-102486060D01*
X237191222Y-102380860D01*
X237365134Y-102238134D01*
X237503969Y-102068964D01*
X237609294Y-102266014D01*
X237794866Y-102492134D01*
X238020986Y-102677706D01*
X238278966Y-102815599D01*
X238558889Y-102900513D01*
X238777050Y-102922000D01*
X238922950Y-102922000D01*
X239141111Y-102900513D01*
X239421034Y-102815599D01*
X239679014Y-102677706D01*
X239905134Y-102492134D01*
X240090706Y-102266014D01*
X240196031Y-102068964D01*
X240334866Y-102238134D01*
X240560986Y-102423706D01*
X240818966Y-102561599D01*
X241098889Y-102646513D01*
X241317050Y-102668000D01*
X241462950Y-102668000D01*
X241681111Y-102646513D01*
X241961034Y-102561599D01*
X242219014Y-102423706D01*
X242445134Y-102238134D01*
X242585454Y-102067154D01*
X242585843Y-102068252D01*
X242734822Y-102318355D01*
X242929731Y-102534588D01*
X243163080Y-102708641D01*
X243425901Y-102833825D01*
X243573110Y-102878476D01*
X243803000Y-102757155D01*
X243803000Y-101564000D01*
X243783000Y-101564000D01*
X243783000Y-101310000D01*
X243803000Y-101310000D01*
X243803000Y-101290000D01*
X244057000Y-101290000D01*
X244057000Y-101310000D01*
X244077000Y-101310000D01*
X244077000Y-101564000D01*
X244057000Y-101564000D01*
X244057000Y-102757155D01*
X244286890Y-102878476D01*
X244434099Y-102833825D01*
X244696920Y-102708641D01*
X244930269Y-102534588D01*
X245125178Y-102318355D01*
X245274157Y-102068252D01*
X245274546Y-102067154D01*
X245414866Y-102238134D01*
X245640986Y-102423706D01*
X245898966Y-102561599D01*
X246178889Y-102646513D01*
X246397050Y-102668000D01*
X246542950Y-102668000D01*
X246761111Y-102646513D01*
X247041034Y-102561599D01*
X247299014Y-102423706D01*
X247525134Y-102238134D01*
X247665454Y-102067154D01*
X247665843Y-102068252D01*
X247814822Y-102318355D01*
X248009731Y-102534588D01*
X248243080Y-102708641D01*
X248505901Y-102833825D01*
X248653110Y-102878476D01*
X248883000Y-102757155D01*
X248883000Y-101564000D01*
X248863000Y-101564000D01*
X248863000Y-101310000D01*
X248883000Y-101310000D01*
X248883000Y-101290000D01*
X249137000Y-101290000D01*
X249137000Y-101310000D01*
X249157000Y-101310000D01*
X249157000Y-101564000D01*
X249137000Y-101564000D01*
X249137000Y-102757155D01*
X249366890Y-102878476D01*
X249514099Y-102833825D01*
X249776920Y-102708641D01*
X250010269Y-102534588D01*
X250205178Y-102318355D01*
X250354157Y-102068252D01*
X250354546Y-102067154D01*
X250494866Y-102238134D01*
X250720986Y-102423706D01*
X250978966Y-102561599D01*
X251258889Y-102646513D01*
X251477050Y-102668000D01*
X251622950Y-102668000D01*
X251841111Y-102646513D01*
X252121034Y-102561599D01*
X252379014Y-102423706D01*
X252605134Y-102238134D01*
X252743969Y-102068964D01*
X252849294Y-102266014D01*
X253034866Y-102492134D01*
X253260986Y-102677706D01*
X253518966Y-102815599D01*
X253798889Y-102900513D01*
X254017050Y-102922000D01*
X254162950Y-102922000D01*
X254381111Y-102900513D01*
X254661034Y-102815599D01*
X254919014Y-102677706D01*
X255145134Y-102492134D01*
X255330706Y-102266014D01*
X255436031Y-102068964D01*
X255574866Y-102238134D01*
X255800986Y-102423706D01*
X256058966Y-102561599D01*
X256338889Y-102646513D01*
X256557050Y-102668000D01*
X256702950Y-102668000D01*
X256921111Y-102646513D01*
X257201034Y-102561599D01*
X257459014Y-102423706D01*
X257685134Y-102238134D01*
X257870706Y-102012014D01*
X258008599Y-101754034D01*
X258093513Y-101474111D01*
X258122185Y-101183000D01*
X258093513Y-100891889D01*
X258008599Y-100611966D01*
X257870706Y-100353986D01*
X257685134Y-100127866D01*
X257459014Y-99942294D01*
X257401244Y-99911416D01*
X257630269Y-99740588D01*
X257825178Y-99524355D01*
X257974157Y-99274252D01*
X258071481Y-98999891D01*
X257950814Y-98770000D01*
X256757000Y-98770000D01*
X256757000Y-98790000D01*
X256503000Y-98790000D01*
X256503000Y-98770000D01*
X256483000Y-98770000D01*
X256483000Y-98516000D01*
X256503000Y-98516000D01*
X256503000Y-97322845D01*
X256757000Y-97322845D01*
X256757000Y-98516000D01*
X257950814Y-98516000D01*
X258071481Y-98286109D01*
X257974157Y-98011748D01*
X257825178Y-97761645D01*
X257630269Y-97545412D01*
X257396920Y-97371359D01*
X257256541Y-97304495D01*
X259515000Y-97304495D01*
X259515000Y-97695505D01*
X259591282Y-98079003D01*
X259740915Y-98440250D01*
X259958149Y-98765364D01*
X260234636Y-99041851D01*
X260559750Y-99259085D01*
X260920997Y-99408718D01*
X261304495Y-99485000D01*
X261695505Y-99485000D01*
X262079003Y-99408718D01*
X262440250Y-99259085D01*
X262765364Y-99041851D01*
X263041851Y-98765364D01*
X263259085Y-98440250D01*
X263408718Y-98079003D01*
X263485000Y-97695505D01*
X263485000Y-97304495D01*
X263408718Y-96920997D01*
X263259085Y-96559750D01*
X263041851Y-96234636D01*
X262765364Y-95958149D01*
X262440250Y-95740915D01*
X262079003Y-95591282D01*
X261695505Y-95515000D01*
X261304495Y-95515000D01*
X260920997Y-95591282D01*
X260559750Y-95740915D01*
X260234636Y-95958149D01*
X259958149Y-96234636D01*
X259740915Y-96559750D01*
X259591282Y-96920997D01*
X259515000Y-97304495D01*
X257256541Y-97304495D01*
X257134099Y-97246175D01*
X256986890Y-97201524D01*
X256757000Y-97322845D01*
X256503000Y-97322845D01*
X256273110Y-97201524D01*
X256125901Y-97246175D01*
X255863080Y-97371359D01*
X255629731Y-97545412D01*
X255434822Y-97761645D01*
X255285843Y-98011748D01*
X255285454Y-98012846D01*
X255145134Y-97841866D01*
X254919014Y-97656294D01*
X254661034Y-97518401D01*
X254381111Y-97433487D01*
X254162950Y-97412000D01*
X254017050Y-97412000D01*
X253798889Y-97433487D01*
X253518966Y-97518401D01*
X253260986Y-97656294D01*
X253034866Y-97841866D01*
X252896031Y-98011036D01*
X252790706Y-97813986D01*
X252605134Y-97587866D01*
X252379014Y-97402294D01*
X252121034Y-97264401D01*
X251841111Y-97179487D01*
X251622950Y-97158000D01*
X251477050Y-97158000D01*
X251258889Y-97179487D01*
X250978966Y-97264401D01*
X250720986Y-97402294D01*
X250494866Y-97587866D01*
X250309294Y-97813986D01*
X250203969Y-98011036D01*
X250065134Y-97841866D01*
X249839014Y-97656294D01*
X249581034Y-97518401D01*
X249301111Y-97433487D01*
X249082950Y-97412000D01*
X248937050Y-97412000D01*
X248718889Y-97433487D01*
X248438966Y-97518401D01*
X248180986Y-97656294D01*
X247954866Y-97841866D01*
X247816031Y-98011036D01*
X247710706Y-97813986D01*
X247525134Y-97587866D01*
X247299014Y-97402294D01*
X247041034Y-97264401D01*
X246761111Y-97179487D01*
X246542950Y-97158000D01*
X246397050Y-97158000D01*
X246178889Y-97179487D01*
X245898966Y-97264401D01*
X245640986Y-97402294D01*
X245414866Y-97587866D01*
X245229294Y-97813986D01*
X245123969Y-98011036D01*
X244985134Y-97841866D01*
X244759014Y-97656294D01*
X244501034Y-97518401D01*
X244221111Y-97433487D01*
X244002950Y-97412000D01*
X243857050Y-97412000D01*
X243638889Y-97433487D01*
X243358966Y-97518401D01*
X243100986Y-97656294D01*
X242874866Y-97841866D01*
X242736031Y-98011036D01*
X242630706Y-97813986D01*
X242445134Y-97587866D01*
X242219014Y-97402294D01*
X241961034Y-97264401D01*
X241681111Y-97179487D01*
X241462950Y-97158000D01*
X241317050Y-97158000D01*
X241098889Y-97179487D01*
X240818966Y-97264401D01*
X240560986Y-97402294D01*
X240334866Y-97587866D01*
X240149294Y-97813986D01*
X240042872Y-98013087D01*
X239850269Y-97799412D01*
X239616920Y-97625359D01*
X239354099Y-97500175D01*
X239206890Y-97455524D01*
X238977000Y-97576845D01*
X238977000Y-98770000D01*
X238997000Y-98770000D01*
X238997000Y-99024000D01*
X238977000Y-99024000D01*
X238977000Y-99044000D01*
X238723000Y-99044000D01*
X238723000Y-99024000D01*
X238703000Y-99024000D01*
X238703000Y-98770000D01*
X238723000Y-98770000D01*
X238723000Y-97576845D01*
X238493110Y-97455524D01*
X238345901Y-97500175D01*
X238083080Y-97625359D01*
X237849731Y-97799412D01*
X237657128Y-98013087D01*
X237550706Y-97813986D01*
X237365134Y-97587866D01*
X237139014Y-97402294D01*
X236881034Y-97264401D01*
X236601111Y-97179487D01*
X236382950Y-97158000D01*
X236237050Y-97158000D01*
X236018889Y-97179487D01*
X235738966Y-97264401D01*
X235480986Y-97402294D01*
X235254866Y-97587866D01*
X235069294Y-97813986D01*
X234963969Y-98011036D01*
X234825134Y-97841866D01*
X234599014Y-97656294D01*
X234341034Y-97518401D01*
X234061111Y-97433487D01*
X233842950Y-97412000D01*
X233697050Y-97412000D01*
X233478889Y-97433487D01*
X233198966Y-97518401D01*
X232940986Y-97656294D01*
X232714866Y-97841866D01*
X232576031Y-98011036D01*
X232470706Y-97813986D01*
X232285134Y-97587866D01*
X232059014Y-97402294D01*
X231801034Y-97264401D01*
X231521111Y-97179487D01*
X231302950Y-97158000D01*
X231157050Y-97158000D01*
X230938889Y-97179487D01*
X230658966Y-97264401D01*
X230400986Y-97402294D01*
X230174866Y-97587866D01*
X229989294Y-97813986D01*
X229883969Y-98011036D01*
X229745134Y-97841866D01*
X229519014Y-97656294D01*
X229261034Y-97518401D01*
X228981111Y-97433487D01*
X228762950Y-97412000D01*
X228617050Y-97412000D01*
X228398889Y-97433487D01*
X228118966Y-97518401D01*
X227860986Y-97656294D01*
X227634866Y-97841866D01*
X227496031Y-98011036D01*
X227390706Y-97813986D01*
X227205134Y-97587866D01*
X226979014Y-97402294D01*
X226721034Y-97264401D01*
X226441111Y-97179487D01*
X226222950Y-97158000D01*
X226077050Y-97158000D01*
X225858889Y-97179487D01*
X225578966Y-97264401D01*
X225320986Y-97402294D01*
X225094866Y-97587866D01*
X224909294Y-97813986D01*
X224803969Y-98011036D01*
X224665134Y-97841866D01*
X224439014Y-97656294D01*
X224181034Y-97518401D01*
X223901111Y-97433487D01*
X223682950Y-97412000D01*
X223537050Y-97412000D01*
X223318889Y-97433487D01*
X223038966Y-97518401D01*
X222780986Y-97656294D01*
X222554866Y-97841866D01*
X222416031Y-98011036D01*
X222310706Y-97813986D01*
X222125134Y-97587866D01*
X221899014Y-97402294D01*
X221641034Y-97264401D01*
X221361111Y-97179487D01*
X221142950Y-97158000D01*
X220997050Y-97158000D01*
X220778889Y-97179487D01*
X220498966Y-97264401D01*
X220240986Y-97402294D01*
X220014866Y-97587866D01*
X219829294Y-97813986D01*
X219722872Y-98013087D01*
X219530269Y-97799412D01*
X219296920Y-97625359D01*
X219034099Y-97500175D01*
X218886890Y-97455524D01*
X218657000Y-97576845D01*
X218657000Y-98770000D01*
X218677000Y-98770000D01*
X218677000Y-99024000D01*
X218657000Y-99024000D01*
X218657000Y-99044000D01*
X218403000Y-99044000D01*
X218403000Y-99024000D01*
X218383000Y-99024000D01*
X218383000Y-98770000D01*
X218403000Y-98770000D01*
X218403000Y-97576845D01*
X218173110Y-97455524D01*
X218025901Y-97500175D01*
X217763080Y-97625359D01*
X217529731Y-97799412D01*
X217337128Y-98013087D01*
X217230706Y-97813986D01*
X217045134Y-97587866D01*
X216819014Y-97402294D01*
X216561034Y-97264401D01*
X216281111Y-97179487D01*
X216062950Y-97158000D01*
X215917050Y-97158000D01*
X215698889Y-97179487D01*
X215418966Y-97264401D01*
X215160986Y-97402294D01*
X214934866Y-97587866D01*
X214749294Y-97813986D01*
X214643969Y-98011036D01*
X214505134Y-97841866D01*
X214279014Y-97656294D01*
X214021034Y-97518401D01*
X213741111Y-97433487D01*
X213522950Y-97412000D01*
X213377050Y-97412000D01*
X213158889Y-97433487D01*
X212878966Y-97518401D01*
X212620986Y-97656294D01*
X212394866Y-97841866D01*
X212256031Y-98011036D01*
X212150706Y-97813986D01*
X211965134Y-97587866D01*
X211739014Y-97402294D01*
X211481034Y-97264401D01*
X211201111Y-97179487D01*
X210982950Y-97158000D01*
X210837050Y-97158000D01*
X210618889Y-97179487D01*
X210338966Y-97264401D01*
X210080986Y-97402294D01*
X209854866Y-97587866D01*
X209757815Y-97706123D01*
X209750537Y-97692506D01*
X209671185Y-97595815D01*
X209574494Y-97516463D01*
X209464180Y-97457498D01*
X209344482Y-97421188D01*
X209220000Y-97408928D01*
X207520000Y-97408928D01*
X207395518Y-97421188D01*
X207275820Y-97457498D01*
X207165506Y-97516463D01*
X207068815Y-97595815D01*
X206989463Y-97692506D01*
X206930498Y-97802820D01*
X206894188Y-97922518D01*
X206881928Y-98047000D01*
X206881928Y-99747000D01*
X206894188Y-99871482D01*
X206930498Y-99991180D01*
X206989463Y-100101494D01*
X207068815Y-100198185D01*
X207165506Y-100277537D01*
X207275820Y-100336502D01*
X207344687Y-100357393D01*
X207314866Y-100381866D01*
X207129294Y-100607986D01*
X206991401Y-100865966D01*
X206906487Y-101145889D01*
X206877815Y-101437000D01*
X200685000Y-101437000D01*
X200685000Y-97304495D01*
X201515000Y-97304495D01*
X201515000Y-97695505D01*
X201591282Y-98079003D01*
X201740915Y-98440250D01*
X201958149Y-98765364D01*
X202234636Y-99041851D01*
X202559750Y-99259085D01*
X202920997Y-99408718D01*
X203304495Y-99485000D01*
X203695505Y-99485000D01*
X204079003Y-99408718D01*
X204440250Y-99259085D01*
X204765364Y-99041851D01*
X205041851Y-98765364D01*
X205259085Y-98440250D01*
X205408718Y-98079003D01*
X205485000Y-97695505D01*
X205485000Y-97304495D01*
X205408718Y-96920997D01*
X205259085Y-96559750D01*
X205041851Y-96234636D01*
X204765364Y-95958149D01*
X204440250Y-95740915D01*
X204079003Y-95591282D01*
X203695505Y-95515000D01*
X203304495Y-95515000D01*
X202920997Y-95591282D01*
X202559750Y-95740915D01*
X202234636Y-95958149D01*
X201958149Y-96234636D01*
X201740915Y-96559750D01*
X201591282Y-96920997D01*
X201515000Y-97304495D01*
X200685000Y-97304495D01*
X200685000Y-97033505D01*
X200732312Y-96550984D01*
X200862714Y-96119070D01*
X201074524Y-95720715D01*
X201359675Y-95371086D01*
X201707303Y-95083503D01*
X202104177Y-94868914D01*
X202535161Y-94735502D01*
X203015654Y-94685000D01*
X261966495Y-94685000D01*
X262449016Y-94732312D01*
G36*
X231813998Y-112685113D02*
G01*
X231988328Y-112684884D01*
X231992032Y-112684142D01*
X232016042Y-112708152D01*
X232014887Y-112713998D01*
X232015116Y-112888328D01*
X232015858Y-112892032D01*
X231916971Y-112990919D01*
X231900000Y-112973948D01*
X231883029Y-112990919D01*
X231783958Y-112891848D01*
X231785113Y-112886002D01*
X231784884Y-112711672D01*
X231784142Y-112707968D01*
X231808152Y-112683958D01*
X231813998Y-112685113D01*
X231813998Y-112685113D01*
G37*
X231813998Y-112685113D02*
X231988328Y-112684884D01*
X231992032Y-112684142D01*
X232016042Y-112708152D01*
X232014887Y-112713998D01*
X232015116Y-112888328D01*
X232015858Y-112892032D01*
X231916971Y-112990919D01*
X231900000Y-112973948D01*
X231883029Y-112990919D01*
X231783958Y-112891848D01*
X231785113Y-112886002D01*
X231784884Y-112711672D01*
X231784142Y-112707968D01*
X231808152Y-112683958D01*
X231813998Y-112685113D01*
G36*
X230813998Y-111685113D02*
G01*
X230988328Y-111684884D01*
X230992032Y-111684142D01*
X231016042Y-111708152D01*
X231014887Y-111713998D01*
X231015116Y-111888328D01*
X231015858Y-111892032D01*
X230991848Y-111916042D01*
X230986002Y-111914887D01*
X230811672Y-111915116D01*
X230807968Y-111915858D01*
X230709081Y-111816971D01*
X230726052Y-111800000D01*
X230709081Y-111783029D01*
X230808152Y-111683958D01*
X230813998Y-111685113D01*
X230813998Y-111685113D01*
G37*
X230813998Y-111685113D02*
X230988328Y-111684884D01*
X230992032Y-111684142D01*
X231016042Y-111708152D01*
X231014887Y-111713998D01*
X231015116Y-111888328D01*
X231015858Y-111892032D01*
X230991848Y-111916042D01*
X230986002Y-111914887D01*
X230811672Y-111915116D01*
X230807968Y-111915858D01*
X230709081Y-111816971D01*
X230726052Y-111800000D01*
X230709081Y-111783029D01*
X230808152Y-111683958D01*
X230813998Y-111685113D01*
G36*
X231813998Y-111685113D02*
G01*
X231988328Y-111684884D01*
X231992032Y-111684142D01*
X232016042Y-111708152D01*
X232014887Y-111713998D01*
X232015116Y-111888328D01*
X232015858Y-111892032D01*
X231991848Y-111916042D01*
X231986002Y-111914887D01*
X231811672Y-111915116D01*
X231807968Y-111915858D01*
X231783958Y-111891848D01*
X231785113Y-111886002D01*
X231784884Y-111711672D01*
X231784142Y-111707968D01*
X231808152Y-111683958D01*
X231813998Y-111685113D01*
X231813998Y-111685113D01*
G37*
X231813998Y-111685113D02*
X231988328Y-111684884D01*
X231992032Y-111684142D01*
X232016042Y-111708152D01*
X232014887Y-111713998D01*
X232015116Y-111888328D01*
X232015858Y-111892032D01*
X231991848Y-111916042D01*
X231986002Y-111914887D01*
X231811672Y-111915116D01*
X231807968Y-111915858D01*
X231783958Y-111891848D01*
X231785113Y-111886002D01*
X231784884Y-111711672D01*
X231784142Y-111707968D01*
X231808152Y-111683958D01*
X231813998Y-111685113D01*
G36*
X232813998Y-111685113D02*
G01*
X232988328Y-111684884D01*
X232992032Y-111684142D01*
X233090919Y-111783029D01*
X233073948Y-111800000D01*
X233090919Y-111816971D01*
X232991848Y-111916042D01*
X232986002Y-111914887D01*
X232811672Y-111915116D01*
X232807968Y-111915858D01*
X232783958Y-111891848D01*
X232785113Y-111886002D01*
X232784884Y-111711672D01*
X232784142Y-111707968D01*
X232808152Y-111683958D01*
X232813998Y-111685113D01*
X232813998Y-111685113D01*
G37*
X232813998Y-111685113D02*
X232988328Y-111684884D01*
X232992032Y-111684142D01*
X233090919Y-111783029D01*
X233073948Y-111800000D01*
X233090919Y-111816971D01*
X232991848Y-111916042D01*
X232986002Y-111914887D01*
X232811672Y-111915116D01*
X232807968Y-111915858D01*
X232783958Y-111891848D01*
X232785113Y-111886002D01*
X232784884Y-111711672D01*
X232784142Y-111707968D01*
X232808152Y-111683958D01*
X232813998Y-111685113D01*
G36*
X232016042Y-110708152D02*
G01*
X232014887Y-110713998D01*
X232015116Y-110888328D01*
X232015858Y-110892032D01*
X231991848Y-110916042D01*
X231986002Y-110914887D01*
X231811672Y-110915116D01*
X231807968Y-110915858D01*
X231783958Y-110891848D01*
X231785113Y-110886002D01*
X231784884Y-110711672D01*
X231784142Y-110707968D01*
X231883029Y-110609081D01*
X231900000Y-110626052D01*
X231916971Y-110609081D01*
X232016042Y-110708152D01*
X232016042Y-110708152D01*
G37*
X232016042Y-110708152D02*
X232014887Y-110713998D01*
X232015116Y-110888328D01*
X232015858Y-110892032D01*
X231991848Y-110916042D01*
X231986002Y-110914887D01*
X231811672Y-110915116D01*
X231807968Y-110915858D01*
X231783958Y-110891848D01*
X231785113Y-110886002D01*
X231784884Y-110711672D01*
X231784142Y-110707968D01*
X231883029Y-110609081D01*
X231900000Y-110626052D01*
X231916971Y-110609081D01*
X232016042Y-110708152D01*
M02*
